<svg xmlns="http://www.w3.org/2000/svg" xmlns:xlink="http://www.w3.org/1999/xlink" width="500" zoomAndPan="magnify" viewBox="0 0 375 185.999996" height="248" preserveAspectRatio="xMidYMid meet" version="1.2"><defs/><g id="9cb6d97ea5"><g style="fill:#000000;fill-opacity:1;"><g transform="translate(55.320507, 88.324435)"><path style="stroke:none" d="M 51.125 -0.046875 C 51.125 -0.046875 51.195312 -0.128906 51.34375 -0.296875 C 51.5 -0.460938 51.613281 -0.785156 51.6875 -1.265625 C 51.769531 -1.753906 51.738281 -2.453125 51.59375 -3.359375 C 51.445312 -4.273438 51.070312 -5.484375 50.46875 -6.984375 L 44.78125 -21.546875 L 12.921875 -21.546875 L 7.1875 -6.984375 C 6.613281 -5.484375 6.253906 -4.273438 6.109375 -3.359375 C 5.960938 -2.453125 5.929688 -1.753906 6.015625 -1.265625 C 6.097656 -0.785156 6.203125 -0.460938 6.328125 -0.296875 C 6.460938 -0.128906 6.53125 -0.046875 6.53125 -0.046875 L 1.25 -0.046875 C 1.25 -0.046875 1.488281 -0.210938 1.96875 -0.546875 C 2.445312 -0.878906 3.050781 -1.546875 3.78125 -2.546875 C 4.519531 -3.546875 5.269531 -5.023438 6.03125 -6.984375 L 31.328125 -71.46875 L 56.5625 -6.984375 C 57.351562 -5.023438 58.113281 -3.546875 58.84375 -2.546875 C 59.582031 -1.546875 60.179688 -0.878906 60.640625 -0.546875 C 61.109375 -0.210938 61.34375 -0.046875 61.34375 -0.046875 Z M 13.359375 -22.75 L 44.34375 -22.75 L 28.828125 -62.296875 Z M 13.359375 -22.75 "/></g></g><g style="fill:#000000;fill-opacity:1;"><g transform="translate(118.901775, 88.324435)"><path style="stroke:none" d="M 9.375 -76.3125 L 9.421875 -21.296875 C 9.421875 -17.671875 10.050781 -14.410156 11.3125 -11.515625 C 12.582031 -8.628906 14.53125 -6.335938 17.15625 -4.640625 C 19.78125 -2.941406 23.15625 -2.09375 27.28125 -2.09375 C 29.375 -2.09375 31.5 -2.53125 33.65625 -3.40625 C 35.820312 -4.289062 37.8125 -5.707031 39.625 -7.65625 C 41.4375 -9.601562 42.890625 -12.140625 43.984375 -15.265625 C 45.085938 -18.390625 45.640625 -22.195312 45.640625 -26.6875 C 45.640625 -31.570312 45.070312 -35.664062 43.9375 -38.96875 C 42.8125 -42.28125 41.289062 -44.890625 39.375 -46.796875 C 37.46875 -48.710938 35.335938 -50.023438 32.984375 -50.734375 C 30.640625 -51.453125 28.253906 -51.660156 25.828125 -51.359375 C 23.398438 -51.066406 21.085938 -50.335938 18.890625 -49.171875 C 16.703125 -48.015625 14.800781 -46.507812 13.1875 -44.65625 C 11.570312 -42.8125 10.4375 -40.742188 9.78125 -38.453125 C 9.738281 -40.816406 10.304688 -42.96875 11.484375 -44.90625 C 12.671875 -46.851562 14.269531 -48.5 16.28125 -49.84375 C 18.289062 -51.195312 20.539062 -52.210938 23.03125 -52.890625 C 25.53125 -53.578125 28.117188 -53.84375 30.796875 -53.6875 C 33.472656 -53.539062 36.066406 -52.925781 38.578125 -51.84375 C 41.085938 -50.757812 43.347656 -49.144531 45.359375 -47 C 47.367188 -44.863281 48.972656 -42.128906 50.171875 -38.796875 C 51.367188 -35.472656 51.96875 -31.484375 51.96875 -26.828125 C 51.96875 -22.742188 51.359375 -19.054688 50.140625 -15.765625 C 48.929688 -12.472656 47.203125 -9.65625 44.953125 -7.3125 C 42.710938 -4.96875 40.054688 -3.160156 36.984375 -1.890625 C 33.910156 -0.628906 30.507812 0 26.78125 0 C 22.894531 0 19.445312 -0.765625 16.4375 -2.296875 C 13.425781 -3.828125 11.085938 -5.851562 9.421875 -8.375 L 9.421875 -5.890625 C 9.421875 -4.285156 9.113281 -3.0625 8.5 -2.21875 C 7.882812 -1.375 6.96875 -0.789062 5.75 -0.46875 C 4.539062 -0.15625 3.039062 0 1.25 0 C 1.25 0 1.421875 -0.140625 1.765625 -0.421875 C 2.117188 -0.703125 2.46875 -1.316406 2.8125 -2.265625 C 3.164062 -3.210938 3.34375 -4.671875 3.34375 -6.640625 L 3.34375 -66.1875 C 3.34375 -68.175781 3.164062 -69.671875 2.8125 -70.671875 C 2.46875 -71.671875 2.117188 -72.335938 1.765625 -72.671875 C 1.421875 -73.003906 1.25 -73.171875 1.25 -73.171875 Z M 9.375 -76.3125 "/></g></g><g style="fill:#000000;fill-opacity:1;"><g transform="translate(173.107927, 88.324435)"><path style="stroke:none" d="M 43.84375 -21.203125 L 43.84375 -76.3125 L 51.96875 -73.171875 C 51.96875 -73.171875 51.789062 -73.003906 51.4375 -72.671875 C 51.09375 -72.335938 50.742188 -71.671875 50.390625 -70.671875 C 50.046875 -69.671875 49.875 -68.175781 49.875 -66.1875 L 49.875 -6.640625 C 49.875 -4.671875 50.046875 -3.210938 50.390625 -2.265625 C 50.742188 -1.316406 51.09375 -0.703125 51.4375 -0.421875 C 51.789062 -0.140625 51.96875 0 51.96875 0 C 50.175781 0 48.671875 -0.15625 47.453125 -0.46875 C 46.242188 -0.789062 45.332031 -1.375 44.71875 -2.21875 C 44.101562 -3.0625 43.796875 -4.285156 43.796875 -5.890625 L 43.796875 -8.375 C 42.128906 -5.851562 39.789062 -3.828125 36.78125 -2.296875 C 33.769531 -0.765625 30.335938 0 26.484375 0 C 22.753906 0 19.34375 -0.628906 16.25 -1.890625 C 13.164062 -3.160156 10.5 -4.96875 8.25 -7.3125 C 6.007812 -9.65625 4.28125 -12.472656 3.0625 -15.765625 C 1.851562 -19.054688 1.25 -22.742188 1.25 -26.828125 C 1.25 -31.148438 1.828125 -34.945312 2.984375 -38.21875 C 4.148438 -41.5 5.710938 -44.273438 7.671875 -46.546875 C 9.640625 -48.828125 11.851562 -50.625 14.3125 -51.9375 C 16.769531 -53.257812 19.320312 -54.109375 21.96875 -54.484375 C 24.613281 -54.867188 27.179688 -54.800781 29.671875 -54.28125 C 32.171875 -53.769531 34.429688 -52.832031 36.453125 -51.46875 C 38.484375 -50.101562 40.117188 -48.332031 41.359375 -46.15625 C 42.609375 -43.976562 43.300781 -41.410156 43.4375 -38.453125 C 42.976562 -40.679688 42.113281 -42.679688 40.84375 -44.453125 C 39.582031 -46.234375 38.050781 -47.722656 36.25 -48.921875 C 34.457031 -50.117188 32.519531 -51 30.4375 -51.5625 C 28.363281 -52.132812 26.253906 -52.3125 24.109375 -52.09375 C 21.960938 -51.875 19.898438 -51.222656 17.921875 -50.140625 C 15.953125 -49.066406 14.191406 -47.503906 12.640625 -45.453125 C 11.097656 -43.410156 9.867188 -40.84375 8.953125 -37.75 C 8.035156 -34.65625 7.578125 -30.96875 7.578125 -26.6875 C 7.578125 -22.195312 8.125 -18.390625 9.21875 -15.265625 C 10.320312 -12.140625 11.78125 -9.601562 13.59375 -7.65625 C 15.40625 -5.707031 17.390625 -4.289062 19.546875 -3.40625 C 21.710938 -2.53125 23.859375 -2.09375 25.984375 -2.09375 C 29.078125 -2.09375 31.742188 -2.632812 33.984375 -3.71875 C 36.234375 -4.800781 38.082031 -6.242188 39.53125 -8.046875 C 40.976562 -9.859375 42.054688 -11.90625 42.765625 -14.1875 C 43.484375 -16.46875 43.84375 -18.804688 43.84375 -21.203125 Z M 43.84375 -21.203125 "/></g></g><g style="fill:#000000;fill-opacity:1;"><g transform="translate(227.314079, 88.324435)"><path style="stroke:none" d="M 9.421875 -15.109375 C 9.421875 -12.617188 9.851562 -10.488281 10.71875 -8.71875 C 11.582031 -6.957031 12.742188 -5.535156 14.203125 -4.453125 C 15.671875 -3.378906 17.316406 -2.660156 19.140625 -2.296875 C 20.972656 -1.929688 22.84375 -1.921875 24.75 -2.265625 C 26.664062 -2.617188 28.515625 -3.328125 30.296875 -4.390625 C 32.078125 -5.453125 33.65625 -6.863281 35.03125 -8.625 C 36.414062 -10.382812 37.457031 -12.515625 38.15625 -15.015625 C 37.6875 -11.816406 36.710938 -9.160156 35.234375 -7.046875 C 33.753906 -4.941406 31.957031 -3.320312 29.84375 -2.1875 C 27.738281 -1.0625 25.488281 -0.375 23.09375 -0.125 C 20.695312 0.125 18.332031 -0.015625 16 -0.546875 C 13.675781 -1.078125 11.554688 -1.945312 9.640625 -3.15625 C 7.734375 -4.375 6.207031 -5.894531 5.0625 -7.71875 C 3.914062 -9.550781 3.34375 -11.632812 3.34375 -13.96875 L 3.34375 -43.6875 C 3.34375 -45.6875 3.164062 -47.148438 2.8125 -48.078125 C 2.46875 -49.003906 2.117188 -49.601562 1.765625 -49.875 C 1.421875 -50.144531 1.25 -50.28125 1.25 -50.28125 L 9.421875 -53.46875 C 9.421875 -53.46875 9.421875 -53.332031 9.421875 -53.0625 C 9.421875 -52.800781 9.421875 -52.195312 9.421875 -51.25 C 9.421875 -50.300781 9.421875 -48.828125 9.421875 -46.828125 C 9.421875 -46.828125 9.421875 -46.769531 9.421875 -46.65625 C 9.421875 -46.539062 9.421875 -46.195312 9.421875 -45.625 C 9.421875 -45.0625 9.421875 -44.140625 9.421875 -42.859375 C 9.421875 -41.585938 9.421875 -39.785156 9.421875 -37.453125 C 9.421875 -35.128906 9.421875 -32.144531 9.421875 -28.5 C 9.421875 -24.863281 9.421875 -20.398438 9.421875 -15.109375 Z M 36.40625 0 C 36.40625 0 36.578125 -0.140625 36.921875 -0.421875 C 37.273438 -0.703125 37.625 -1.316406 37.96875 -2.265625 C 38.320312 -3.210938 38.5 -4.671875 38.5 -6.640625 L 38.5 -43.34375 C 38.5 -45.332031 38.320312 -46.816406 37.96875 -47.796875 C 37.625 -48.785156 37.273438 -49.445312 36.921875 -49.78125 C 36.578125 -50.113281 36.40625 -50.28125 36.40625 -50.28125 L 44.53125 -53.421875 L 44.59375 -6.578125 C 44.59375 -4.617188 44.765625 -3.164062 45.109375 -2.21875 C 45.460938 -1.269531 45.804688 -0.660156 46.140625 -0.390625 C 46.472656 -0.128906 46.640625 0 46.640625 0 Z M 36.40625 0 "/></g></g><g style="fill:#000000;fill-opacity:1;"><g transform="translate(276.184391, 88.324435)"><path style="stroke:none" d="M 9.671875 -38.453125 C 9.773438 -41.210938 10.359375 -43.570312 11.421875 -45.53125 C 12.484375 -47.5 13.867188 -49.085938 15.578125 -50.296875 C 17.296875 -51.515625 19.175781 -52.363281 21.21875 -52.84375 C 23.269531 -53.320312 25.347656 -53.453125 27.453125 -53.234375 C 29.566406 -53.023438 31.570312 -52.476562 33.46875 -51.59375 C 35.363281 -50.71875 37 -49.519531 38.375 -48 C 39.757812 -46.488281 40.71875 -44.65625 41.25 -42.5 L 35.859375 -41.203125 C 35.191406 -43.554688 34.160156 -45.457031 32.765625 -46.90625 C 31.367188 -48.351562 29.769531 -49.375 27.96875 -49.96875 C 26.175781 -50.570312 24.316406 -50.753906 22.390625 -50.515625 C 20.460938 -50.285156 18.617188 -49.671875 16.859375 -48.671875 C 15.097656 -47.679688 13.582031 -46.328125 12.3125 -44.609375 C 11.050781 -42.898438 10.171875 -40.847656 9.671875 -38.453125 Z M 1.25 0 C 1.25 0 1.421875 -0.140625 1.765625 -0.421875 C 2.117188 -0.703125 2.46875 -1.316406 2.8125 -2.265625 C 3.164062 -3.210938 3.34375 -4.671875 3.34375 -6.640625 L 3.34375 -43.34375 C 3.34375 -45.332031 3.164062 -46.816406 2.8125 -47.796875 C 2.46875 -48.785156 2.117188 -49.445312 1.765625 -49.78125 C 1.421875 -50.113281 1.25 -50.28125 1.25 -50.28125 L 9.375 -53.421875 L 9.421875 -6.578125 C 9.421875 -4.617188 9.59375 -3.164062 9.9375 -2.21875 C 10.289062 -1.269531 10.632812 -0.660156 10.96875 -0.390625 C 11.300781 -0.128906 11.46875 0 11.46875 0 Z M 1.25 0 "/></g></g><g style="fill:#000000;fill-opacity:1;"><g transform="translate(97.895974, 139.799694)"><path style="stroke:none" d="M 30.859375 -4.65625 C 31.679688 -3.351562 32.410156 -2.367188 33.046875 -1.703125 C 33.679688 -1.035156 34.179688 -0.585938 34.546875 -0.359375 C 34.910156 -0.140625 35.09375 -0.03125 35.09375 -0.03125 L 28.265625 -0.03125 C 28.265625 -0.03125 28.296875 -0.0820312 28.359375 -0.1875 C 28.429688 -0.300781 28.460938 -0.519531 28.453125 -0.84375 C 28.441406 -1.164062 28.316406 -1.628906 28.078125 -2.234375 C 27.847656 -2.847656 27.4375 -3.65625 26.84375 -4.65625 L 18.34375 -18.515625 C 18.34375 -18.515625 18.046875 -18.515625 17.453125 -18.515625 C 16.867188 -18.515625 16.117188 -18.515625 15.203125 -18.515625 C 14.296875 -18.515625 13.328125 -18.515625 12.296875 -18.515625 C 11.265625 -18.515625 10.296875 -18.515625 9.390625 -18.515625 C 8.484375 -18.515625 7.738281 -18.515625 7.15625 -18.515625 C 6.582031 -18.515625 6.296875 -18.515625 6.296875 -18.515625 L 6.296875 -4.421875 C 6.296875 -3.117188 6.410156 -2.148438 6.640625 -1.515625 C 6.878906 -0.878906 7.109375 -0.472656 7.328125 -0.296875 C 7.546875 -0.117188 7.65625 -0.03125 7.65625 -0.03125 L 0.828125 -0.03125 C 0.828125 -0.03125 0.941406 -0.125 1.171875 -0.3125 C 1.410156 -0.5 1.644531 -0.910156 1.875 -1.546875 C 2.113281 -2.179688 2.234375 -3.15625 2.234375 -4.46875 L 2.234375 -43.09375 C 2.234375 -44.414062 2.113281 -45.40625 1.875 -46.0625 C 1.644531 -46.71875 1.410156 -47.15625 1.171875 -47.375 C 0.941406 -47.601562 0.828125 -47.71875 0.828125 -47.71875 C 0.828125 -47.71875 1.164062 -47.71875 1.84375 -47.71875 C 2.519531 -47.71875 3.425781 -47.71875 4.5625 -47.71875 C 5.695312 -47.71875 6.941406 -47.71875 8.296875 -47.71875 C 9.648438 -47.71875 11.019531 -47.71875 12.40625 -47.71875 C 13.789062 -47.71875 15.078125 -47.71875 16.265625 -47.71875 C 17.453125 -47.71875 18.429688 -47.71875 19.203125 -47.71875 C 19.984375 -47.71875 20.441406 -47.71875 20.578125 -47.71875 C 22.753906 -47.71875 24.816406 -47.390625 26.765625 -46.734375 C 28.722656 -46.078125 30.453125 -45.128906 31.953125 -43.890625 C 33.453125 -42.660156 34.632812 -41.175781 35.5 -39.4375 C 36.363281 -37.695312 36.796875 -35.738281 36.796875 -33.5625 C 36.796875 -30.695312 36.304688 -28.210938 35.328125 -26.109375 C 34.347656 -24.015625 32.796875 -22.347656 30.671875 -21.109375 C 28.554688 -19.867188 25.769531 -19.070312 22.3125 -18.71875 Z M 16.109375 -19.71875 C 18.441406 -19.71875 20.601562 -19.898438 22.59375 -20.265625 C 24.582031 -20.628906 26.320312 -21.296875 27.8125 -22.265625 C 29.3125 -23.242188 30.476562 -24.632812 31.3125 -26.4375 C 32.144531 -28.238281 32.5625 -30.582031 32.5625 -33.46875 C 32.5625 -35.769531 32.140625 -37.738281 31.296875 -39.375 C 30.453125 -41.007812 29.332031 -42.328125 27.9375 -43.328125 C 26.539062 -44.335938 24.992188 -45.078125 23.296875 -45.546875 C 21.597656 -46.015625 19.894531 -46.25 18.1875 -46.25 L 6.6875 -46.25 C 6.582031 -45.914062 6.488281 -45.488281 6.40625 -44.96875 C 6.332031 -44.445312 6.296875 -43.820312 6.296875 -43.09375 L 6.296875 -19.71875 Z M 16.109375 -19.71875 "/></g></g><g style="fill:#000000;fill-opacity:1;"><g transform="translate(136.182161, 139.799694)"><path style="stroke:none" d="M 28.0625 -14.8125 L 28.0625 -23.84375 C 28.0625 -25.195312 27.96875 -26.507812 27.78125 -27.78125 C 27.59375 -29.0625 27.203125 -30.210938 26.609375 -31.234375 C 26.023438 -32.253906 25.140625 -33.0625 23.953125 -33.65625 C 22.765625 -34.257812 21.1875 -34.5625 19.21875 -34.5625 C 17.28125 -34.5625 15.515625 -34.15625 13.921875 -33.34375 C 12.335938 -32.53125 10.992188 -31.390625 9.890625 -29.921875 C 8.796875 -28.460938 8.019531 -26.757812 7.5625 -24.8125 L 4 -27.171875 C 5.019531 -29.296875 6.332031 -30.972656 7.9375 -32.203125 C 9.550781 -33.441406 11.332031 -34.328125 13.28125 -34.859375 C 15.238281 -35.390625 17.226562 -35.65625 19.25 -35.65625 C 21.488281 -35.65625 23.375 -35.441406 24.90625 -35.015625 C 26.4375 -34.597656 27.675781 -34.007812 28.625 -33.25 C 29.582031 -32.5 30.316406 -31.628906 30.828125 -30.640625 C 31.335938 -29.660156 31.679688 -28.59375 31.859375 -27.4375 C 32.035156 -26.28125 32.125 -25.09375 32.125 -23.875 L 32.125 -4.390625 C 32.125 -3.085938 32.238281 -2.117188 32.46875 -1.484375 C 32.707031 -0.847656 32.9375 -0.441406 33.15625 -0.265625 C 33.382812 -0.0859375 33.5 0 33.5 0 C 32.539062 0 31.648438 -0.0859375 30.828125 -0.265625 C 30.003906 -0.441406 29.335938 -0.847656 28.828125 -1.484375 C 28.316406 -2.117188 28.0625 -3.097656 28.0625 -4.421875 L 28.0625 -8.890625 C 27.582031 -7.773438 26.960938 -6.6875 26.203125 -5.625 C 25.453125 -4.5625 24.535156 -3.609375 23.453125 -2.765625 C 22.378906 -1.921875 21.117188 -1.25 19.671875 -0.75 C 18.234375 -0.25 16.582031 0 14.71875 0 C 12.539062 0 10.65625 -0.234375 9.0625 -0.703125 C 7.476562 -1.171875 6.160156 -1.789062 5.109375 -2.5625 C 4.054688 -3.34375 3.210938 -4.191406 2.578125 -5.109375 C 1.941406 -6.035156 1.488281 -6.945312 1.21875 -7.84375 C 0.957031 -8.738281 0.828125 -9.550781 0.828125 -10.28125 C 0.828125 -12.28125 1.171875 -13.984375 1.859375 -15.390625 C 2.546875 -16.804688 3.472656 -17.976562 4.640625 -18.90625 C 5.804688 -19.84375 7.132812 -20.597656 8.625 -21.171875 C 10.113281 -21.753906 11.664062 -22.210938 13.28125 -22.546875 C 14.90625 -22.878906 16.503906 -23.140625 18.078125 -23.328125 C 19.648438 -23.515625 21.109375 -23.695312 22.453125 -23.875 C 23.796875 -24.050781 24.945312 -24.269531 25.90625 -24.53125 C 26.863281 -24.800781 27.519531 -25.179688 27.875 -25.671875 C 27.695312 -25.179688 27.238281 -24.78125 26.5 -24.46875 C 25.769531 -24.15625 24.84375 -23.878906 23.71875 -23.640625 C 22.601562 -23.398438 21.378906 -23.148438 20.046875 -22.890625 C 18.710938 -22.640625 17.34375 -22.332031 15.9375 -21.96875 C 14.539062 -21.613281 13.191406 -21.164062 11.890625 -20.625 C 10.597656 -20.082031 9.4375 -19.410156 8.40625 -18.609375 C 7.375 -17.816406 6.554688 -16.84375 5.953125 -15.6875 C 5.359375 -14.53125 5.0625 -13.148438 5.0625 -11.546875 C 5.0625 -8.328125 6.007812 -5.910156 7.90625 -4.296875 C 9.800781 -2.691406 12.359375 -1.890625 15.578125 -1.890625 C 17.578125 -1.890625 19.351562 -2.242188 20.90625 -2.953125 C 22.457031 -3.671875 23.765625 -4.632812 24.828125 -5.84375 C 25.898438 -7.050781 26.707031 -8.429688 27.25 -9.984375 C 27.789062 -11.535156 28.0625 -13.144531 28.0625 -14.8125 Z M 28.0625 -14.8125 "/></g></g><g style="fill:#000000;fill-opacity:1;"><g transform="translate(171.172402, 139.799694)"><path style="stroke:none" d="M 6.265625 -50.9375 L 6.296875 -3.921875 C 6.296875 -2.859375 6.085938 -2.039062 5.671875 -1.46875 C 5.265625 -0.90625 4.65625 -0.519531 3.84375 -0.3125 C 3.03125 -0.101562 2.023438 0 0.828125 0 C 0.828125 0 0.941406 -0.09375 1.171875 -0.28125 C 1.410156 -0.46875 1.644531 -0.878906 1.875 -1.515625 C 2.113281 -2.148438 2.234375 -3.117188 2.234375 -4.421875 L 2.234375 -44.1875 C 2.234375 -45.519531 2.113281 -46.519531 1.875 -47.1875 C 1.644531 -47.851562 1.410156 -48.296875 1.171875 -48.515625 C 0.941406 -48.734375 0.828125 -48.84375 0.828125 -48.84375 Z M 24.3125 0 C 24.3125 0 24.425781 -0.09375 24.65625 -0.28125 C 24.882812 -0.46875 25.109375 -0.878906 25.328125 -1.515625 C 25.554688 -2.148438 25.671875 -3.117188 25.671875 -4.421875 C 25.671875 -4.421875 25.671875 -4.457031 25.671875 -4.53125 C 25.671875 -4.613281 25.671875 -4.84375 25.671875 -5.21875 C 25.671875 -5.601562 25.671875 -6.222656 25.671875 -7.078125 C 25.671875 -7.929688 25.671875 -9.132812 25.671875 -10.6875 C 25.671875 -12.238281 25.671875 -14.226562 25.671875 -16.65625 C 25.671875 -19.09375 25.671875 -22.078125 25.671875 -25.609375 C 25.671875 -27.273438 25.378906 -28.691406 24.796875 -29.859375 C 24.222656 -31.035156 23.445312 -31.984375 22.46875 -32.703125 C 21.5 -33.429688 20.398438 -33.914062 19.171875 -34.15625 C 17.953125 -34.40625 16.703125 -34.410156 15.421875 -34.171875 C 14.148438 -33.941406 12.925781 -33.472656 11.75 -32.765625 C 10.570312 -32.054688 9.519531 -31.113281 8.59375 -29.9375 C 7.675781 -28.757812 6.988281 -27.335938 6.53125 -25.671875 C 6.84375 -27.804688 7.488281 -29.578125 8.46875 -30.984375 C 9.457031 -32.390625 10.65625 -33.46875 12.0625 -34.21875 C 13.476562 -34.976562 14.976562 -35.441406 16.5625 -35.609375 C 18.15625 -35.773438 19.726562 -35.679688 21.28125 -35.328125 C 22.832031 -34.972656 24.242188 -34.390625 25.515625 -33.578125 C 26.796875 -32.765625 27.816406 -31.75 28.578125 -30.53125 C 29.347656 -29.3125 29.734375 -27.925781 29.734375 -26.375 L 29.734375 -4.390625 C 29.734375 -3.085938 29.847656 -2.117188 30.078125 -1.484375 C 30.316406 -0.847656 30.550781 -0.441406 30.78125 -0.265625 C 31.007812 -0.0859375 31.125 0 31.125 0 Z M 24.3125 0 "/></g></g><g style="fill:#000000;fill-opacity:1;"><g transform="translate(203.798893, 139.799694)"><path style="stroke:none" d="M 6.296875 -35.625 L 6.296875 -3.921875 C 6.296875 -2.859375 6.085938 -2.039062 5.671875 -1.46875 C 5.265625 -0.90625 4.65625 -0.519531 3.84375 -0.3125 C 3.03125 -0.101562 2.023438 0 0.828125 0 C 0.828125 0 0.941406 -0.09375 1.171875 -0.28125 C 1.410156 -0.46875 1.644531 -0.878906 1.875 -1.515625 C 2.113281 -2.148438 2.234375 -3.117188 2.234375 -4.421875 L 2.234375 -28.875 C 2.234375 -30.195312 2.117188 -31.191406 1.890625 -31.859375 C 1.671875 -32.523438 1.441406 -32.96875 1.203125 -33.1875 C 0.972656 -33.414062 0.859375 -33.53125 0.859375 -33.53125 Z M 39.921875 0 C 39.921875 0 40.035156 -0.09375 40.265625 -0.28125 C 40.503906 -0.46875 40.738281 -0.878906 40.96875 -1.515625 C 41.207031 -2.148438 41.328125 -3.117188 41.328125 -4.421875 C 41.328125 -4.421875 41.328125 -4.5 41.328125 -4.65625 C 41.328125 -4.8125 41.328125 -5.132812 41.328125 -5.625 C 41.328125 -6.113281 41.328125 -6.859375 41.328125 -7.859375 C 41.328125 -8.859375 41.328125 -10.195312 41.328125 -11.875 C 41.328125 -13.550781 41.328125 -15.640625 41.328125 -18.140625 C 41.328125 -20.648438 41.328125 -23.671875 41.328125 -27.203125 C 41.328125 -28.828125 41.003906 -30.15625 40.359375 -31.1875 C 39.710938 -32.21875 38.875 -32.957031 37.84375 -33.40625 C 36.8125 -33.863281 35.691406 -34.039062 34.484375 -33.9375 C 33.273438 -33.84375 32.097656 -33.46875 30.953125 -32.8125 C 29.804688 -32.15625 28.796875 -31.234375 27.921875 -30.046875 C 27.046875 -28.859375 26.429688 -27.398438 26.078125 -25.671875 C 26.160156 -27.734375 26.566406 -29.457031 27.296875 -30.84375 C 28.035156 -32.238281 28.976562 -33.3125 30.125 -34.0625 C 31.28125 -34.8125 32.535156 -35.285156 33.890625 -35.484375 C 35.242188 -35.691406 36.59375 -35.640625 37.9375 -35.328125 C 39.28125 -35.015625 40.507812 -34.472656 41.625 -33.703125 C 42.75 -32.941406 43.648438 -31.984375 44.328125 -30.828125 C 45.003906 -29.671875 45.34375 -28.351562 45.34375 -26.875 L 45.390625 -4.390625 C 45.390625 -3.085938 45.503906 -2.117188 45.734375 -1.484375 C 45.960938 -0.847656 46.1875 -0.441406 46.40625 -0.265625 C 46.632812 -0.0859375 46.75 0 46.75 0 Z M 20.375 0 C 20.375 0 20.488281 -0.09375 20.71875 -0.28125 C 20.957031 -0.46875 21.191406 -0.878906 21.421875 -1.515625 C 21.660156 -2.148438 21.78125 -3.117188 21.78125 -4.421875 C 21.78125 -4.421875 21.78125 -4.5 21.78125 -4.65625 C 21.78125 -4.8125 21.78125 -5.132812 21.78125 -5.625 C 21.78125 -6.113281 21.78125 -6.859375 21.78125 -7.859375 C 21.78125 -8.859375 21.78125 -10.195312 21.78125 -11.875 C 21.78125 -13.550781 21.78125 -15.640625 21.78125 -18.140625 C 21.78125 -20.648438 21.78125 -23.671875 21.78125 -27.203125 C 21.78125 -28.828125 21.457031 -30.15625 20.8125 -31.1875 C 20.164062 -32.21875 19.328125 -32.957031 18.296875 -33.40625 C 17.265625 -33.863281 16.144531 -34.039062 14.9375 -33.9375 C 13.726562 -33.84375 12.550781 -33.46875 11.40625 -32.8125 C 10.257812 -32.15625 9.25 -31.234375 8.375 -30.046875 C 7.5 -28.859375 6.882812 -27.398438 6.53125 -25.671875 C 6.613281 -27.734375 7.019531 -29.457031 7.75 -30.84375 C 8.488281 -32.238281 9.429688 -33.3125 10.578125 -34.0625 C 11.734375 -34.8125 12.988281 -35.285156 14.34375 -35.484375 C 15.695312 -35.691406 17.046875 -35.640625 18.390625 -35.328125 C 19.734375 -35.015625 20.96875 -34.472656 22.09375 -33.703125 C 23.21875 -32.941406 24.117188 -31.984375 24.796875 -30.828125 C 25.472656 -29.671875 25.8125 -28.351562 25.8125 -26.875 L 25.8125 -4.390625 C 25.8125 -3.085938 25.925781 -2.117188 26.15625 -1.484375 C 26.382812 -0.847656 26.613281 -0.441406 26.84375 -0.265625 C 27.082031 -0.0859375 27.203125 0 27.203125 0 Z M 20.375 0 "/></g></g><g style="fill:#000000;fill-opacity:1;"><g transform="translate(252.039489, 139.799694)"><path style="stroke:none" d="M 28.0625 -14.8125 L 28.0625 -23.84375 C 28.0625 -25.195312 27.96875 -26.507812 27.78125 -27.78125 C 27.59375 -29.0625 27.203125 -30.210938 26.609375 -31.234375 C 26.023438 -32.253906 25.140625 -33.0625 23.953125 -33.65625 C 22.765625 -34.257812 21.1875 -34.5625 19.21875 -34.5625 C 17.28125 -34.5625 15.515625 -34.15625 13.921875 -33.34375 C 12.335938 -32.53125 10.992188 -31.390625 9.890625 -29.921875 C 8.796875 -28.460938 8.019531 -26.757812 7.5625 -24.8125 L 4 -27.171875 C 5.019531 -29.296875 6.332031 -30.972656 7.9375 -32.203125 C 9.550781 -33.441406 11.332031 -34.328125 13.28125 -34.859375 C 15.238281 -35.390625 17.226562 -35.65625 19.25 -35.65625 C 21.488281 -35.65625 23.375 -35.441406 24.90625 -35.015625 C 26.4375 -34.597656 27.675781 -34.007812 28.625 -33.25 C 29.582031 -32.5 30.316406 -31.628906 30.828125 -30.640625 C 31.335938 -29.660156 31.679688 -28.59375 31.859375 -27.4375 C 32.035156 -26.28125 32.125 -25.09375 32.125 -23.875 L 32.125 -4.390625 C 32.125 -3.085938 32.238281 -2.117188 32.46875 -1.484375 C 32.707031 -0.847656 32.9375 -0.441406 33.15625 -0.265625 C 33.382812 -0.0859375 33.5 0 33.5 0 C 32.539062 0 31.648438 -0.0859375 30.828125 -0.265625 C 30.003906 -0.441406 29.335938 -0.847656 28.828125 -1.484375 C 28.316406 -2.117188 28.0625 -3.097656 28.0625 -4.421875 L 28.0625 -8.890625 C 27.582031 -7.773438 26.960938 -6.6875 26.203125 -5.625 C 25.453125 -4.5625 24.535156 -3.609375 23.453125 -2.765625 C 22.378906 -1.921875 21.117188 -1.25 19.671875 -0.75 C 18.234375 -0.25 16.582031 0 14.71875 0 C 12.539062 0 10.65625 -0.234375 9.0625 -0.703125 C 7.476562 -1.171875 6.160156 -1.789062 5.109375 -2.5625 C 4.054688 -3.34375 3.210938 -4.191406 2.578125 -5.109375 C 1.941406 -6.035156 1.488281 -6.945312 1.21875 -7.84375 C 0.957031 -8.738281 0.828125 -9.550781 0.828125 -10.28125 C 0.828125 -12.28125 1.171875 -13.984375 1.859375 -15.390625 C 2.546875 -16.804688 3.472656 -17.976562 4.640625 -18.90625 C 5.804688 -19.84375 7.132812 -20.597656 8.625 -21.171875 C 10.113281 -21.753906 11.664062 -22.210938 13.28125 -22.546875 C 14.90625 -22.878906 16.503906 -23.140625 18.078125 -23.328125 C 19.648438 -23.515625 21.109375 -23.695312 22.453125 -23.875 C 23.796875 -24.050781 24.945312 -24.269531 25.90625 -24.53125 C 26.863281 -24.800781 27.519531 -25.179688 27.875 -25.671875 C 27.695312 -25.179688 27.238281 -24.78125 26.5 -24.46875 C 25.769531 -24.15625 24.84375 -23.878906 23.71875 -23.640625 C 22.601562 -23.398438 21.378906 -23.148438 20.046875 -22.890625 C 18.710938 -22.640625 17.34375 -22.332031 15.9375 -21.96875 C 14.539062 -21.613281 13.191406 -21.164062 11.890625 -20.625 C 10.597656 -20.082031 9.4375 -19.410156 8.40625 -18.609375 C 7.375 -17.816406 6.554688 -16.84375 5.953125 -15.6875 C 5.359375 -14.53125 5.0625 -13.148438 5.0625 -11.546875 C 5.0625 -8.328125 6.007812 -5.910156 7.90625 -4.296875 C 9.800781 -2.691406 12.359375 -1.890625 15.578125 -1.890625 C 17.578125 -1.890625 19.351562 -2.242188 20.90625 -2.953125 C 22.457031 -3.671875 23.765625 -4.632812 24.828125 -5.84375 C 25.898438 -7.050781 26.707031 -8.429688 27.25 -9.984375 C 27.789062 -11.535156 28.0625 -13.144531 28.0625 -14.8125 Z M 28.0625 -14.8125 "/></g></g><g style="fill:#000000;fill-opacity:1;"><g transform="translate(287.029729, 139.799694)"><path style="stroke:none" d="M 0.828125 -33.53125 L 6.296875 -35.625 L 6.296875 -3.921875 C 6.296875 -2.859375 6.085938 -2.039062 5.671875 -1.46875 C 5.265625 -0.90625 4.65625 -0.519531 3.84375 -0.3125 C 3.03125 -0.101562 2.023438 0 0.828125 0 C 0.828125 0 0.941406 -0.09375 1.171875 -0.28125 C 1.410156 -0.46875 1.644531 -0.878906 1.875 -1.515625 C 2.113281 -2.148438 2.234375 -3.117188 2.234375 -4.421875 L 2.234375 -28.875 C 2.234375 -30.195312 2.113281 -31.191406 1.875 -31.859375 C 1.644531 -32.523438 1.410156 -32.96875 1.171875 -33.1875 C 0.941406 -33.414062 0.828125 -33.53125 0.828125 -33.53125 Z M 24.3125 0 C 24.3125 0 24.425781 -0.09375 24.65625 -0.28125 C 24.882812 -0.46875 25.109375 -0.878906 25.328125 -1.515625 C 25.554688 -2.148438 25.671875 -3.117188 25.671875 -4.421875 C 25.671875 -4.421875 25.671875 -4.457031 25.671875 -4.53125 C 25.671875 -4.613281 25.671875 -4.84375 25.671875 -5.21875 C 25.671875 -5.601562 25.671875 -6.222656 25.671875 -7.078125 C 25.671875 -7.929688 25.671875 -9.132812 25.671875 -10.6875 C 25.671875 -12.238281 25.671875 -14.226562 25.671875 -16.65625 C 25.671875 -19.09375 25.671875 -22.078125 25.671875 -25.609375 C 25.671875 -27.273438 25.378906 -28.691406 24.796875 -29.859375 C 24.222656 -31.035156 23.445312 -31.984375 22.46875 -32.703125 C 21.5 -33.429688 20.398438 -33.914062 19.171875 -34.15625 C 17.953125 -34.40625 16.703125 -34.410156 15.421875 -34.171875 C 14.148438 -33.941406 12.925781 -33.472656 11.75 -32.765625 C 10.570312 -32.054688 9.519531 -31.113281 8.59375 -29.9375 C 7.675781 -28.757812 6.988281 -27.335938 6.53125 -25.671875 C 6.84375 -27.804688 7.488281 -29.578125 8.46875 -30.984375 C 9.457031 -32.390625 10.65625 -33.46875 12.0625 -34.21875 C 13.476562 -34.976562 14.976562 -35.441406 16.5625 -35.609375 C 18.15625 -35.773438 19.726562 -35.679688 21.28125 -35.328125 C 22.832031 -34.972656 24.242188 -34.390625 25.515625 -33.578125 C 26.796875 -32.765625 27.816406 -31.75 28.578125 -30.53125 C 29.347656 -29.3125 29.734375 -27.925781 29.734375 -26.375 L 29.734375 -4.390625 C 29.734375 -3.085938 29.847656 -2.117188 30.078125 -1.484375 C 30.316406 -0.847656 30.550781 -0.441406 30.78125 -0.265625 C 31.007812 -0.0859375 31.125 0 31.125 0 Z M 24.3125 0 "/></g></g></g></svg>