<svg xmlns="http://www.w3.org/2000/svg" xmlns:xlink="http://www.w3.org/1999/xlink" width="500" zoomAndPan="magnify" viewBox="0 0 375 374.999991" height="500" preserveAspectRatio="xMidYMid meet" version="1.2"><defs/><g id="b3840664ec"><g style="fill:#000000;fill-opacity:1;"><g transform="translate(0.0000045, 180.867589)"><path style="stroke:none" d="M 72.5 -0.078125 C 72.5 -0.078125 72.601562 -0.191406 72.8125 -0.421875 C 73.03125 -0.660156 73.195312 -1.117188 73.3125 -1.796875 C 73.4375 -2.484375 73.390625 -3.472656 73.171875 -4.765625 C 72.960938 -6.066406 72.429688 -7.78125 71.578125 -9.90625 L 63.515625 -30.5625 L 18.3125 -30.5625 L 10.1875 -9.90625 C 9.382812 -7.78125 8.875 -6.066406 8.65625 -4.765625 C 8.445312 -3.472656 8.398438 -2.484375 8.515625 -1.796875 C 8.640625 -1.117188 8.796875 -0.660156 8.984375 -0.421875 C 9.171875 -0.191406 9.265625 -0.078125 9.265625 -0.078125 L 1.765625 -0.078125 C 1.765625 -0.078125 2.101562 -0.3125 2.78125 -0.78125 C 3.46875 -1.25 4.332031 -2.191406 5.375 -3.609375 C 6.414062 -5.023438 7.476562 -7.125 8.5625 -9.90625 L 44.421875 -101.359375 L 80.21875 -9.90625 C 81.34375 -7.125 82.421875 -5.023438 83.453125 -3.609375 C 84.492188 -2.191406 85.34375 -1.25 86 -0.78125 C 86.664062 -0.3125 87 -0.078125 87 -0.078125 Z M 18.953125 -32.25 L 62.875 -32.25 L 40.890625 -88.34375 Z M 18.953125 -32.25 "/></g></g><g style="fill:#000000;fill-opacity:1;"><g transform="translate(90.191663, 180.867589)"><path style="stroke:none" d="M 13.296875 -108.21875 L 13.375 -30.203125 C 13.375 -25.066406 14.269531 -20.445312 16.0625 -16.34375 C 17.851562 -12.238281 20.609375 -8.984375 24.328125 -6.578125 C 28.054688 -4.171875 32.84375 -2.96875 38.6875 -2.96875 C 41.65625 -2.96875 44.671875 -3.59375 47.734375 -4.84375 C 50.804688 -6.09375 53.625 -8.097656 56.1875 -10.859375 C 58.757812 -13.617188 60.820312 -17.210938 62.375 -21.640625 C 63.9375 -26.078125 64.71875 -31.476562 64.71875 -37.84375 C 64.71875 -44.769531 63.914062 -50.578125 62.3125 -55.265625 C 60.707031 -59.960938 58.550781 -63.664062 55.84375 -66.375 C 53.132812 -69.09375 50.113281 -70.957031 46.78125 -71.96875 C 43.457031 -72.988281 40.078125 -73.285156 36.640625 -72.859375 C 33.203125 -72.429688 29.925781 -71.390625 26.8125 -69.734375 C 23.695312 -68.085938 20.992188 -65.957031 18.703125 -63.34375 C 16.421875 -60.726562 14.804688 -57.789062 13.859375 -54.53125 C 13.816406 -57.882812 14.628906 -60.9375 16.296875 -63.6875 C 17.972656 -66.445312 20.238281 -68.78125 23.09375 -70.6875 C 25.945312 -72.601562 29.140625 -74.046875 32.671875 -75.015625 C 36.210938 -75.984375 39.878906 -76.359375 43.671875 -76.140625 C 47.472656 -75.929688 51.148438 -75.0625 54.703125 -73.53125 C 58.265625 -72 61.472656 -69.710938 64.328125 -66.671875 C 67.179688 -63.628906 69.457031 -59.75 71.15625 -55.03125 C 72.851562 -50.3125 73.703125 -44.65625 73.703125 -38.0625 C 73.703125 -32.257812 72.84375 -27.019531 71.125 -22.34375 C 69.40625 -17.675781 66.953125 -13.679688 63.765625 -10.359375 C 60.585938 -7.035156 56.816406 -4.476562 52.453125 -2.6875 C 48.085938 -0.894531 43.265625 0 37.984375 0 C 32.460938 0 27.566406 -1.082031 23.296875 -3.25 C 19.035156 -5.414062 15.726562 -8.296875 13.375 -11.890625 L 13.375 -8.34375 C 13.375 -6.082031 12.9375 -4.347656 12.0625 -3.140625 C 11.1875 -1.941406 9.890625 -1.117188 8.171875 -0.671875 C 6.453125 -0.222656 4.316406 0 1.765625 0 C 1.765625 0 2.007812 -0.195312 2.5 -0.59375 C 3 -1 3.492188 -1.875 3.984375 -3.21875 C 4.484375 -4.5625 4.734375 -6.625 4.734375 -9.40625 L 4.734375 -93.859375 C 4.734375 -96.691406 4.484375 -98.816406 3.984375 -100.234375 C 3.492188 -101.648438 3 -102.59375 2.5 -103.0625 C 2.007812 -103.53125 1.765625 -103.765625 1.765625 -103.765625 Z M 13.296875 -108.21875 "/></g></g><g style="fill:#000000;fill-opacity:1;"><g transform="translate(167.08448, 180.867589)"><path style="stroke:none" d="M 62.171875 -30.0625 L 62.171875 -108.21875 L 73.703125 -103.765625 C 73.703125 -103.765625 73.453125 -103.53125 72.953125 -103.0625 C 72.460938 -102.59375 71.96875 -101.648438 71.46875 -100.234375 C 70.976562 -98.816406 70.734375 -96.691406 70.734375 -93.859375 L 70.734375 -9.40625 C 70.734375 -6.625 70.976562 -4.5625 71.46875 -3.21875 C 71.96875 -1.875 72.460938 -1 72.953125 -0.59375 C 73.453125 -0.195312 73.703125 0 73.703125 0 C 71.160156 0 69.023438 -0.222656 67.296875 -0.671875 C 65.578125 -1.117188 64.28125 -1.941406 63.40625 -3.140625 C 62.539062 -4.347656 62.109375 -6.082031 62.109375 -8.34375 L 62.109375 -11.890625 C 59.742188 -8.296875 56.425781 -5.414062 52.15625 -3.25 C 47.894531 -1.082031 43.03125 0 37.5625 0 C 32.28125 0 27.445312 -0.894531 23.0625 -2.6875 C 18.675781 -4.476562 14.890625 -7.035156 11.703125 -10.359375 C 8.523438 -13.679688 6.070312 -17.675781 4.34375 -22.34375 C 2.625 -27.019531 1.765625 -32.257812 1.765625 -38.0625 C 1.765625 -44.1875 2.585938 -49.570312 4.234375 -54.21875 C 5.890625 -58.863281 8.109375 -62.800781 10.890625 -66.03125 C 13.671875 -69.257812 16.804688 -71.804688 20.296875 -73.671875 C 23.785156 -75.535156 27.40625 -76.738281 31.15625 -77.28125 C 34.90625 -77.820312 38.546875 -77.722656 42.078125 -76.984375 C 45.617188 -76.253906 48.828125 -74.921875 51.703125 -72.984375 C 54.578125 -71.054688 56.898438 -68.546875 58.671875 -65.453125 C 60.441406 -62.367188 61.421875 -58.726562 61.609375 -54.53125 C 60.953125 -57.695312 59.726562 -60.539062 57.9375 -63.0625 C 56.144531 -65.582031 53.972656 -67.691406 51.421875 -69.390625 C 48.878906 -71.085938 46.132812 -72.335938 43.1875 -73.140625 C 40.238281 -73.941406 37.242188 -74.1875 34.203125 -73.875 C 31.160156 -73.570312 28.234375 -72.65625 25.421875 -71.125 C 22.617188 -69.59375 20.117188 -67.375 17.921875 -64.46875 C 15.734375 -61.570312 13.988281 -57.929688 12.6875 -53.546875 C 11.394531 -49.160156 10.75 -43.925781 10.75 -37.84375 C 10.75 -31.476562 11.523438 -26.078125 13.078125 -21.640625 C 14.640625 -17.210938 16.703125 -13.617188 19.265625 -10.859375 C 21.835938 -8.097656 24.65625 -6.09375 27.71875 -4.84375 C 30.789062 -3.59375 33.835938 -2.96875 36.859375 -2.96875 C 41.242188 -2.96875 45.023438 -3.734375 48.203125 -5.265625 C 51.390625 -6.796875 54.007812 -8.847656 56.0625 -11.421875 C 58.113281 -13.992188 59.644531 -16.894531 60.65625 -20.125 C 61.664062 -23.351562 62.171875 -26.664062 62.171875 -30.0625 Z M 62.171875 -30.0625 "/></g></g><g style="fill:#000000;fill-opacity:1;"><g transform="translate(243.977297, 180.867589)"><path style="stroke:none" d="M 13.375 -21.4375 C 13.375 -17.894531 13.984375 -14.875 15.203125 -12.375 C 16.429688 -9.875 18.082031 -7.859375 20.15625 -6.328125 C 22.226562 -4.796875 24.5625 -3.769531 27.15625 -3.25 C 29.75 -2.726562 32.398438 -2.71875 35.109375 -3.21875 C 37.828125 -3.71875 40.445312 -4.71875 42.96875 -6.21875 C 45.488281 -7.726562 47.726562 -9.734375 49.6875 -12.234375 C 51.644531 -14.734375 53.117188 -17.753906 54.109375 -21.296875 C 53.453125 -16.765625 52.070312 -13 49.96875 -10 C 47.875 -7.007812 45.328125 -4.710938 42.328125 -3.109375 C 39.335938 -1.503906 36.144531 -0.523438 32.75 -0.171875 C 29.351562 0.179688 26.003906 -0.015625 22.703125 -0.765625 C 19.398438 -1.523438 16.394531 -2.765625 13.6875 -4.484375 C 10.976562 -6.210938 8.804688 -8.375 7.171875 -10.96875 C 5.546875 -13.5625 4.734375 -16.507812 4.734375 -19.8125 L 4.734375 -61.96875 C 4.734375 -64.789062 4.484375 -66.863281 3.984375 -68.1875 C 3.492188 -69.507812 3 -70.359375 2.5 -70.734375 C 2.007812 -71.109375 1.765625 -71.296875 1.765625 -71.296875 L 13.375 -75.828125 C 13.375 -75.828125 13.375 -75.640625 13.375 -75.265625 C 13.375 -74.890625 13.375 -74.023438 13.375 -72.671875 C 13.375 -71.328125 13.375 -69.242188 13.375 -66.421875 C 13.375 -66.421875 13.375 -66.335938 13.375 -66.171875 C 13.375 -66.003906 13.375 -65.519531 13.375 -64.71875 C 13.375 -63.914062 13.375 -62.609375 13.375 -60.796875 C 13.375 -58.984375 13.375 -56.425781 13.375 -53.125 C 13.375 -49.820312 13.375 -45.585938 13.375 -40.421875 C 13.375 -35.253906 13.375 -28.925781 13.375 -21.4375 Z M 51.640625 0 C 51.640625 0 51.882812 -0.195312 52.375 -0.59375 C 52.875 -1 53.367188 -1.875 53.859375 -3.21875 C 54.359375 -4.5625 54.609375 -6.625 54.609375 -9.40625 L 54.609375 -61.46875 C 54.609375 -64.300781 54.359375 -66.410156 53.859375 -67.796875 C 53.367188 -69.191406 52.875 -70.125 52.375 -70.59375 C 51.882812 -71.0625 51.640625 -71.296875 51.640625 -71.296875 L 63.171875 -75.75 L 63.234375 -9.34375 C 63.234375 -6.550781 63.476562 -4.484375 63.96875 -3.140625 C 64.46875 -1.796875 64.953125 -0.9375 65.421875 -0.5625 C 65.898438 -0.1875 66.140625 0 66.140625 0 Z M 51.640625 0 "/></g></g><g style="fill:#000000;fill-opacity:1;"><g transform="translate(313.301088, 180.867589)"><path style="stroke:none" d="M 13.71875 -54.53125 C 13.863281 -58.445312 14.691406 -61.796875 16.203125 -64.578125 C 17.710938 -67.359375 19.679688 -69.609375 22.109375 -71.328125 C 24.535156 -73.054688 27.195312 -74.257812 30.09375 -74.9375 C 33 -75.625 35.945312 -75.8125 38.9375 -75.5 C 41.9375 -75.195312 44.78125 -74.421875 47.46875 -73.171875 C 50.15625 -71.921875 52.472656 -70.222656 54.421875 -68.078125 C 56.378906 -65.929688 57.738281 -63.328125 58.5 -60.265625 L 50.859375 -58.421875 C 49.910156 -61.773438 48.445312 -64.476562 46.46875 -66.53125 C 44.488281 -68.582031 42.222656 -70.03125 39.671875 -70.875 C 37.128906 -71.726562 34.488281 -71.988281 31.75 -71.65625 C 29.019531 -71.320312 26.40625 -70.445312 23.90625 -69.03125 C 21.40625 -67.625 19.257812 -65.703125 17.46875 -63.265625 C 15.675781 -60.835938 14.425781 -57.925781 13.71875 -54.53125 Z M 1.765625 0 C 1.765625 0 2.007812 -0.195312 2.5 -0.59375 C 3 -1 3.492188 -1.875 3.984375 -3.21875 C 4.484375 -4.5625 4.734375 -6.625 4.734375 -9.40625 L 4.734375 -61.46875 C 4.734375 -64.300781 4.484375 -66.410156 3.984375 -67.796875 C 3.492188 -69.191406 3 -70.125 2.5 -70.59375 C 2.007812 -71.0625 1.765625 -71.296875 1.765625 -71.296875 L 13.296875 -75.75 L 13.375 -9.34375 C 13.375 -6.550781 13.617188 -4.484375 14.109375 -3.140625 C 14.609375 -1.796875 15.09375 -0.9375 15.5625 -0.5625 C 16.03125 -0.1875 16.265625 0 16.265625 0 Z M 1.765625 0 "/></g></g><g style="fill:#000000;fill-opacity:1;"><g transform="translate(60.394393, 253.886538)"><path style="stroke:none" d="M 43.78125 -6.609375 C 44.945312 -4.753906 45.976562 -3.351562 46.875 -2.40625 C 47.769531 -1.457031 48.476562 -0.828125 49 -0.515625 C 49.519531 -0.203125 49.78125 -0.046875 49.78125 -0.046875 L 40.109375 -0.046875 C 40.109375 -0.046875 40.15625 -0.125 40.25 -0.28125 C 40.34375 -0.4375 40.378906 -0.742188 40.359375 -1.203125 C 40.347656 -1.660156 40.175781 -2.320312 39.84375 -3.1875 C 39.507812 -4.050781 38.921875 -5.191406 38.078125 -6.609375 L 26.03125 -26.265625 C 26.03125 -26.265625 25.609375 -26.265625 24.765625 -26.265625 C 23.929688 -26.265625 22.867188 -26.265625 21.578125 -26.265625 C 20.296875 -26.265625 18.921875 -26.265625 17.453125 -26.265625 C 15.984375 -26.265625 14.601562 -26.265625 13.3125 -26.265625 C 12.03125 -26.265625 10.976562 -26.265625 10.15625 -26.265625 C 9.332031 -26.265625 8.921875 -26.265625 8.921875 -26.265625 L 8.921875 -6.28125 C 8.921875 -4.425781 9.085938 -3.046875 9.421875 -2.140625 C 9.753906 -1.242188 10.078125 -0.671875 10.390625 -0.421875 C 10.703125 -0.171875 10.859375 -0.046875 10.859375 -0.046875 L 1.1875 -0.046875 C 1.1875 -0.046875 1.347656 -0.175781 1.671875 -0.4375 C 2.003906 -0.707031 2.335938 -1.289062 2.671875 -2.1875 C 3.003906 -3.09375 3.171875 -4.472656 3.171875 -6.328125 L 3.171875 -61.125 C 3.171875 -63.007812 3.003906 -64.414062 2.671875 -65.34375 C 2.335938 -66.269531 2.003906 -66.890625 1.671875 -67.203125 C 1.347656 -67.523438 1.1875 -67.6875 1.1875 -67.6875 C 1.1875 -67.6875 1.664062 -67.6875 2.625 -67.6875 C 3.582031 -67.6875 4.863281 -67.6875 6.46875 -67.6875 C 8.070312 -67.6875 9.832031 -67.6875 11.75 -67.6875 C 13.675781 -67.6875 15.625 -67.6875 17.59375 -67.6875 C 19.5625 -67.6875 21.382812 -67.6875 23.0625 -67.6875 C 24.75 -67.6875 26.144531 -67.6875 27.25 -67.6875 C 28.351562 -67.6875 29 -67.6875 29.1875 -67.6875 C 32.269531 -67.6875 35.195312 -67.222656 37.96875 -66.296875 C 40.75 -65.367188 43.203125 -64.03125 45.328125 -62.28125 C 47.453125 -60.53125 49.125 -58.414062 50.34375 -55.9375 C 51.570312 -53.46875 52.1875 -50.691406 52.1875 -47.609375 C 52.1875 -43.546875 51.492188 -40.023438 50.109375 -37.046875 C 48.722656 -34.078125 46.523438 -31.707031 43.515625 -29.9375 C 40.515625 -28.175781 36.554688 -27.046875 31.640625 -26.546875 Z M 22.859375 -27.96875 C 26.171875 -27.96875 29.234375 -28.222656 32.046875 -28.734375 C 34.867188 -29.253906 37.34375 -30.207031 39.46875 -31.59375 C 41.59375 -32.976562 43.242188 -34.945312 44.421875 -37.5 C 45.597656 -40.050781 46.1875 -43.375 46.1875 -47.46875 C 46.1875 -50.75 45.585938 -53.546875 44.390625 -55.859375 C 43.203125 -58.171875 41.613281 -60.039062 39.625 -61.46875 C 37.644531 -62.90625 35.445312 -63.953125 33.03125 -64.609375 C 30.625 -65.273438 28.210938 -65.609375 25.796875 -65.609375 L 9.5 -65.609375 C 9.34375 -65.140625 9.207031 -64.535156 9.09375 -63.796875 C 8.976562 -63.054688 8.921875 -62.164062 8.921875 -61.125 L 8.921875 -27.96875 Z M 22.859375 -27.96875 "/></g></g><g style="fill:#000000;fill-opacity:1;"><g transform="translate(114.704335, 253.886538)"><path style="stroke:none" d="M 39.8125 -21.015625 L 39.8125 -33.8125 C 39.8125 -35.738281 39.675781 -37.609375 39.40625 -39.421875 C 39.144531 -41.234375 38.597656 -42.863281 37.765625 -44.3125 C 36.929688 -45.757812 35.671875 -46.90625 33.984375 -47.75 C 32.296875 -48.601562 30.050781 -49.03125 27.25 -49.03125 C 24.507812 -49.03125 22.015625 -48.453125 19.765625 -47.296875 C 17.515625 -46.148438 15.609375 -44.535156 14.046875 -42.453125 C 12.492188 -40.378906 11.382812 -37.957031 10.71875 -35.1875 L 5.671875 -38.546875 C 7.117188 -41.566406 8.984375 -43.953125 11.265625 -45.703125 C 13.546875 -47.453125 16.070312 -48.703125 18.84375 -49.453125 C 21.613281 -50.210938 24.429688 -50.59375 27.296875 -50.59375 C 30.484375 -50.59375 33.160156 -50.289062 35.328125 -49.6875 C 37.503906 -49.09375 39.269531 -48.257812 40.625 -47.1875 C 41.976562 -46.113281 43.015625 -44.875 43.734375 -43.46875 C 44.460938 -42.070312 44.953125 -40.554688 45.203125 -38.921875 C 45.453125 -37.285156 45.578125 -35.597656 45.578125 -33.859375 L 45.578125 -6.234375 C 45.578125 -4.378906 45.742188 -3 46.078125 -2.09375 C 46.410156 -1.195312 46.734375 -0.625 47.046875 -0.375 C 47.359375 -0.125 47.515625 0 47.515625 0 C 46.160156 0 44.898438 -0.125 43.734375 -0.375 C 42.566406 -0.625 41.617188 -1.195312 40.890625 -2.09375 C 40.171875 -3 39.8125 -4.394531 39.8125 -6.28125 L 39.8125 -12.609375 C 39.125 -11.035156 38.242188 -9.492188 37.171875 -7.984375 C 36.097656 -6.472656 34.796875 -5.117188 33.265625 -3.921875 C 31.742188 -2.722656 29.957031 -1.769531 27.90625 -1.0625 C 25.863281 -0.351562 23.519531 0 20.875 0 C 17.789062 0 15.125 -0.328125 12.875 -0.984375 C 10.625 -1.648438 8.75 -2.535156 7.25 -3.640625 C 5.75 -4.742188 4.550781 -5.945312 3.65625 -7.25 C 2.757812 -8.550781 2.125 -9.835938 1.75 -11.109375 C 1.375 -12.390625 1.1875 -13.550781 1.1875 -14.59375 C 1.1875 -17.425781 1.671875 -19.84375 2.640625 -21.84375 C 3.617188 -23.84375 4.929688 -25.503906 6.578125 -26.828125 C 8.234375 -28.148438 10.113281 -29.21875 12.21875 -30.03125 C 14.332031 -30.851562 16.539062 -31.5 18.84375 -31.96875 C 21.144531 -32.445312 23.410156 -32.816406 25.640625 -33.078125 C 27.878906 -33.347656 29.953125 -33.609375 31.859375 -33.859375 C 33.765625 -34.117188 35.394531 -34.4375 36.75 -34.8125 C 38.101562 -35.1875 39.03125 -35.722656 39.53125 -36.421875 C 39.28125 -35.722656 38.632812 -35.15625 37.59375 -34.71875 C 36.5625 -34.28125 35.25 -33.882812 33.65625 -33.53125 C 32.0625 -33.1875 30.316406 -32.832031 28.421875 -32.46875 C 26.535156 -32.113281 24.601562 -31.679688 22.625 -31.171875 C 20.644531 -30.671875 18.734375 -30.035156 16.890625 -29.265625 C 15.046875 -28.492188 13.390625 -27.539062 11.921875 -26.40625 C 10.460938 -25.269531 9.304688 -23.882812 8.453125 -22.25 C 7.597656 -20.613281 7.171875 -18.660156 7.171875 -16.390625 C 7.171875 -11.828125 8.515625 -8.398438 11.203125 -6.109375 C 13.898438 -3.828125 17.535156 -2.6875 22.109375 -2.6875 C 24.941406 -2.6875 27.457031 -3.191406 29.65625 -4.203125 C 31.863281 -5.210938 33.722656 -6.570312 35.234375 -8.28125 C 36.742188 -10 37.882812 -11.960938 38.65625 -14.171875 C 39.425781 -16.378906 39.8125 -18.660156 39.8125 -21.015625 Z M 39.8125 -21.015625 "/></g></g><g style="fill:#000000;fill-opacity:1;"><g transform="translate(164.33889, 253.886538)"><path style="stroke:none" d="M 8.875 -72.265625 L 8.921875 -5.578125 C 8.921875 -4.066406 8.628906 -2.90625 8.046875 -2.09375 C 7.460938 -1.289062 6.597656 -0.738281 5.453125 -0.4375 C 4.304688 -0.144531 2.882812 0 1.1875 0 C 1.1875 0 1.347656 -0.128906 1.671875 -0.390625 C 2.003906 -0.660156 2.335938 -1.242188 2.671875 -2.140625 C 3.003906 -3.046875 3.171875 -4.425781 3.171875 -6.28125 L 3.171875 -62.6875 C 3.171875 -64.570312 3.003906 -65.984375 2.671875 -66.921875 C 2.335938 -67.867188 2.003906 -68.5 1.671875 -68.8125 C 1.347656 -69.132812 1.1875 -69.296875 1.1875 -69.296875 Z M 34.484375 0 C 34.484375 0 34.644531 -0.128906 34.96875 -0.390625 C 35.300781 -0.660156 35.625 -1.242188 35.9375 -2.140625 C 36.257812 -3.046875 36.421875 -4.425781 36.421875 -6.28125 C 36.421875 -6.28125 36.421875 -6.332031 36.421875 -6.4375 C 36.421875 -6.550781 36.421875 -6.875 36.421875 -7.40625 C 36.421875 -7.945312 36.421875 -8.820312 36.421875 -10.03125 C 36.421875 -11.25 36.421875 -12.957031 36.421875 -15.15625 C 36.421875 -17.363281 36.421875 -20.191406 36.421875 -23.640625 C 36.421875 -27.085938 36.421875 -31.316406 36.421875 -36.328125 C 36.421875 -38.679688 36.007812 -40.691406 35.1875 -42.359375 C 34.375 -44.035156 33.273438 -45.382812 31.890625 -46.40625 C 30.503906 -47.425781 28.941406 -48.109375 27.203125 -48.453125 C 25.472656 -48.804688 23.703125 -48.816406 21.890625 -48.484375 C 20.078125 -48.148438 18.335938 -47.476562 16.671875 -46.46875 C 15.003906 -45.46875 13.515625 -44.128906 12.203125 -42.453125 C 10.898438 -40.785156 9.921875 -38.773438 9.265625 -36.421875 C 9.703125 -39.441406 10.617188 -41.953125 12.015625 -43.953125 C 13.421875 -45.953125 15.125 -47.484375 17.125 -48.546875 C 19.125 -49.617188 21.25 -50.273438 23.5 -50.515625 C 25.75 -50.753906 27.972656 -50.617188 30.171875 -50.109375 C 32.378906 -49.609375 34.390625 -48.78125 36.203125 -47.625 C 38.015625 -46.476562 39.460938 -45.039062 40.546875 -43.3125 C 41.640625 -41.582031 42.1875 -39.613281 42.1875 -37.40625 L 42.1875 -6.234375 C 42.1875 -4.378906 42.347656 -3 42.671875 -2.09375 C 43.003906 -1.195312 43.335938 -0.625 43.671875 -0.375 C 44.003906 -0.125 44.171875 0 44.171875 0 Z M 34.484375 0 "/></g></g><g style="fill:#000000;fill-opacity:1;"><g transform="translate(210.620407, 253.886538)"><path style="stroke:none" d="M 8.921875 -50.546875 L 8.921875 -5.578125 C 8.921875 -4.066406 8.628906 -2.90625 8.046875 -2.09375 C 7.460938 -1.289062 6.597656 -0.738281 5.453125 -0.4375 C 4.304688 -0.144531 2.882812 0 1.1875 0 C 1.1875 0 1.347656 -0.128906 1.671875 -0.390625 C 2.003906 -0.660156 2.335938 -1.242188 2.671875 -2.140625 C 3.003906 -3.046875 3.171875 -4.425781 3.171875 -6.28125 L 3.171875 -40.953125 C 3.171875 -42.835938 3.007812 -44.253906 2.6875 -45.203125 C 2.375 -46.148438 2.050781 -46.78125 1.71875 -47.09375 C 1.394531 -47.40625 1.234375 -47.5625 1.234375 -47.5625 Z M 56.640625 0 C 56.640625 0 56.800781 -0.128906 57.125 -0.390625 C 57.457031 -0.660156 57.789062 -1.242188 58.125 -2.140625 C 58.457031 -3.046875 58.625 -4.425781 58.625 -6.28125 C 58.625 -6.28125 58.625 -6.390625 58.625 -6.609375 C 58.625 -6.828125 58.625 -7.28125 58.625 -7.96875 C 58.625 -8.664062 58.625 -9.722656 58.625 -11.140625 C 58.625 -12.554688 58.625 -14.453125 58.625 -16.828125 C 58.625 -19.210938 58.625 -22.179688 58.625 -25.734375 C 58.625 -29.296875 58.625 -33.582031 58.625 -38.59375 C 58.625 -40.882812 58.164062 -42.765625 57.25 -44.234375 C 56.332031 -45.703125 55.140625 -46.757812 53.671875 -47.40625 C 52.210938 -48.050781 50.625 -48.300781 48.90625 -48.15625 C 47.195312 -48.007812 45.53125 -47.472656 43.90625 -46.546875 C 42.28125 -45.617188 40.84375 -44.3125 39.59375 -42.625 C 38.351562 -40.945312 37.484375 -38.878906 36.984375 -36.421875 C 37.109375 -39.347656 37.691406 -41.796875 38.734375 -43.765625 C 39.773438 -45.734375 41.113281 -47.25 42.75 -48.3125 C 44.382812 -49.382812 46.160156 -50.0625 48.078125 -50.34375 C 50.003906 -50.632812 51.921875 -50.554688 53.828125 -50.109375 C 55.734375 -49.671875 57.476562 -48.90625 59.0625 -47.8125 C 60.65625 -46.726562 61.929688 -45.367188 62.890625 -43.734375 C 63.847656 -42.097656 64.328125 -40.226562 64.328125 -38.125 L 64.375 -6.234375 C 64.375 -4.378906 64.539062 -3 64.875 -2.09375 C 65.207031 -1.195312 65.53125 -0.625 65.84375 -0.375 C 66.15625 -0.125 66.3125 0 66.3125 0 Z M 28.90625 0 C 28.90625 0 29.070312 -0.128906 29.40625 -0.390625 C 29.738281 -0.660156 30.066406 -1.242188 30.390625 -2.140625 C 30.722656 -3.046875 30.890625 -4.425781 30.890625 -6.28125 C 30.890625 -6.28125 30.890625 -6.390625 30.890625 -6.609375 C 30.890625 -6.828125 30.890625 -7.28125 30.890625 -7.96875 C 30.890625 -8.664062 30.890625 -9.722656 30.890625 -11.140625 C 30.890625 -12.554688 30.890625 -14.453125 30.890625 -16.828125 C 30.890625 -19.210938 30.890625 -22.179688 30.890625 -25.734375 C 30.890625 -29.296875 30.890625 -33.582031 30.890625 -38.59375 C 30.890625 -40.882812 30.429688 -42.765625 29.515625 -44.234375 C 28.609375 -45.703125 27.421875 -46.757812 25.953125 -47.40625 C 24.492188 -48.050781 22.90625 -48.300781 21.1875 -48.15625 C 19.46875 -48.007812 17.796875 -47.472656 16.171875 -46.546875 C 14.554688 -45.617188 13.125 -44.3125 11.875 -42.625 C 10.632812 -40.945312 9.765625 -38.878906 9.265625 -36.421875 C 9.390625 -39.347656 9.96875 -41.796875 11 -43.765625 C 12.039062 -45.734375 13.378906 -47.25 15.015625 -48.3125 C 16.660156 -49.382812 18.441406 -50.0625 20.359375 -50.34375 C 22.273438 -50.632812 24.1875 -50.554688 26.09375 -50.109375 C 28 -49.671875 29.742188 -48.90625 31.328125 -47.8125 C 32.921875 -46.726562 34.195312 -45.367188 35.15625 -43.734375 C 36.125 -42.097656 36.609375 -40.226562 36.609375 -38.125 L 36.609375 -6.234375 C 36.609375 -4.378906 36.769531 -3 37.09375 -2.09375 C 37.425781 -1.195312 37.757812 -0.625 38.09375 -0.375 C 38.425781 -0.125 38.59375 0 38.59375 0 Z M 28.90625 0 "/></g></g><g style="fill:#000000;fill-opacity:1;"><g transform="translate(279.050933, 253.886538)"><path style="stroke:none" d="M 39.8125 -21.015625 L 39.8125 -33.8125 C 39.8125 -35.738281 39.675781 -37.609375 39.40625 -39.421875 C 39.144531 -41.234375 38.597656 -42.863281 37.765625 -44.3125 C 36.929688 -45.757812 35.671875 -46.90625 33.984375 -47.75 C 32.296875 -48.601562 30.050781 -49.03125 27.25 -49.03125 C 24.507812 -49.03125 22.015625 -48.453125 19.765625 -47.296875 C 17.515625 -46.148438 15.609375 -44.535156 14.046875 -42.453125 C 12.492188 -40.378906 11.382812 -37.957031 10.71875 -35.1875 L 5.671875 -38.546875 C 7.117188 -41.566406 8.984375 -43.953125 11.265625 -45.703125 C 13.546875 -47.453125 16.070312 -48.703125 18.84375 -49.453125 C 21.613281 -50.210938 24.429688 -50.59375 27.296875 -50.59375 C 30.484375 -50.59375 33.160156 -50.289062 35.328125 -49.6875 C 37.503906 -49.09375 39.269531 -48.257812 40.625 -47.1875 C 41.976562 -46.113281 43.015625 -44.875 43.734375 -43.46875 C 44.460938 -42.070312 44.953125 -40.554688 45.203125 -38.921875 C 45.453125 -37.285156 45.578125 -35.597656 45.578125 -33.859375 L 45.578125 -6.234375 C 45.578125 -4.378906 45.742188 -3 46.078125 -2.09375 C 46.410156 -1.195312 46.734375 -0.625 47.046875 -0.375 C 47.359375 -0.125 47.515625 0 47.515625 0 C 46.160156 0 44.898438 -0.125 43.734375 -0.375 C 42.566406 -0.625 41.617188 -1.195312 40.890625 -2.09375 C 40.171875 -3 39.8125 -4.394531 39.8125 -6.28125 L 39.8125 -12.609375 C 39.125 -11.035156 38.242188 -9.492188 37.171875 -7.984375 C 36.097656 -6.472656 34.796875 -5.117188 33.265625 -3.921875 C 31.742188 -2.722656 29.957031 -1.769531 27.90625 -1.0625 C 25.863281 -0.351562 23.519531 0 20.875 0 C 17.789062 0 15.125 -0.328125 12.875 -0.984375 C 10.625 -1.648438 8.75 -2.535156 7.25 -3.640625 C 5.75 -4.742188 4.550781 -5.945312 3.65625 -7.25 C 2.757812 -8.550781 2.125 -9.835938 1.75 -11.109375 C 1.375 -12.390625 1.1875 -13.550781 1.1875 -14.59375 C 1.1875 -17.425781 1.671875 -19.84375 2.640625 -21.84375 C 3.617188 -23.84375 4.929688 -25.503906 6.578125 -26.828125 C 8.234375 -28.148438 10.113281 -29.21875 12.21875 -30.03125 C 14.332031 -30.851562 16.539062 -31.5 18.84375 -31.96875 C 21.144531 -32.445312 23.410156 -32.816406 25.640625 -33.078125 C 27.878906 -33.347656 29.953125 -33.609375 31.859375 -33.859375 C 33.765625 -34.117188 35.394531 -34.4375 36.75 -34.8125 C 38.101562 -35.1875 39.03125 -35.722656 39.53125 -36.421875 C 39.28125 -35.722656 38.632812 -35.15625 37.59375 -34.71875 C 36.5625 -34.28125 35.25 -33.882812 33.65625 -33.53125 C 32.0625 -33.1875 30.316406 -32.832031 28.421875 -32.46875 C 26.535156 -32.113281 24.601562 -31.679688 22.625 -31.171875 C 20.644531 -30.671875 18.734375 -30.035156 16.890625 -29.265625 C 15.046875 -28.492188 13.390625 -27.539062 11.921875 -26.40625 C 10.460938 -25.269531 9.304688 -23.882812 8.453125 -22.25 C 7.597656 -20.613281 7.171875 -18.660156 7.171875 -16.390625 C 7.171875 -11.828125 8.515625 -8.398438 11.203125 -6.109375 C 13.898438 -3.828125 17.535156 -2.6875 22.109375 -2.6875 C 24.941406 -2.6875 27.457031 -3.191406 29.65625 -4.203125 C 31.863281 -5.210938 33.722656 -6.570312 35.234375 -8.28125 C 36.742188 -10 37.882812 -11.960938 38.65625 -14.171875 C 39.425781 -16.378906 39.8125 -18.660156 39.8125 -21.015625 Z M 39.8125 -21.015625 "/></g></g><g style="fill:#000000;fill-opacity:1;"><g transform="translate(328.685489, 253.886538)"><path style="stroke:none" d="M 1.1875 -47.5625 L 8.921875 -50.546875 L 8.921875 -5.578125 C 8.921875 -4.066406 8.628906 -2.90625 8.046875 -2.09375 C 7.460938 -1.289062 6.597656 -0.738281 5.453125 -0.4375 C 4.304688 -0.144531 2.882812 0 1.1875 0 C 1.1875 0 1.347656 -0.128906 1.671875 -0.390625 C 2.003906 -0.660156 2.335938 -1.242188 2.671875 -2.140625 C 3.003906 -3.046875 3.171875 -4.425781 3.171875 -6.28125 L 3.171875 -40.953125 C 3.171875 -42.835938 3.003906 -44.253906 2.671875 -45.203125 C 2.335938 -46.148438 2.003906 -46.78125 1.671875 -47.09375 C 1.347656 -47.40625 1.1875 -47.5625 1.1875 -47.5625 Z M 34.484375 0 C 34.484375 0 34.644531 -0.128906 34.96875 -0.390625 C 35.300781 -0.660156 35.625 -1.242188 35.9375 -2.140625 C 36.257812 -3.046875 36.421875 -4.425781 36.421875 -6.28125 C 36.421875 -6.28125 36.421875 -6.332031 36.421875 -6.4375 C 36.421875 -6.550781 36.421875 -6.875 36.421875 -7.40625 C 36.421875 -7.945312 36.421875 -8.820312 36.421875 -10.03125 C 36.421875 -11.25 36.421875 -12.957031 36.421875 -15.15625 C 36.421875 -17.363281 36.421875 -20.191406 36.421875 -23.640625 C 36.421875 -27.085938 36.421875 -31.316406 36.421875 -36.328125 C 36.421875 -38.679688 36.007812 -40.691406 35.1875 -42.359375 C 34.375 -44.035156 33.273438 -45.382812 31.890625 -46.40625 C 30.503906 -47.425781 28.941406 -48.109375 27.203125 -48.453125 C 25.472656 -48.804688 23.703125 -48.816406 21.890625 -48.484375 C 20.078125 -48.148438 18.335938 -47.476562 16.671875 -46.46875 C 15.003906 -45.46875 13.515625 -44.128906 12.203125 -42.453125 C 10.898438 -40.785156 9.921875 -38.773438 9.265625 -36.421875 C 9.703125 -39.441406 10.617188 -41.953125 12.015625 -43.953125 C 13.421875 -45.953125 15.125 -47.484375 17.125 -48.546875 C 19.125 -49.617188 21.25 -50.273438 23.5 -50.515625 C 25.75 -50.753906 27.972656 -50.617188 30.171875 -50.109375 C 32.378906 -49.609375 34.390625 -48.78125 36.203125 -47.625 C 38.015625 -46.476562 39.460938 -45.039062 40.546875 -43.3125 C 41.640625 -41.582031 42.1875 -39.613281 42.1875 -37.40625 L 42.1875 -6.234375 C 42.1875 -4.378906 42.347656 -3 42.671875 -2.09375 C 43.003906 -1.195312 43.335938 -0.625 43.671875 -0.375 C 44.003906 -0.125 44.171875 0 44.171875 0 Z M 34.484375 0 "/></g></g></g></svg>