<?xml version="1.0" encoding="UTF-8"?>
<svg version="1.1" xmlns="http://www.w3.org/2000/svg" width="512" height="512">
<path d="M0 0 C1.55569176 1.55569176 1.13484055 3.04924917 1.14526367 5.21264648 C1.15164352 6.10704941 1.15802338 7.00145233 1.16459656 7.92295837 C1.16626579 9.38228539 1.16626579 9.38228539 1.16796875 10.87109375 C1.17129715 11.86375748 1.17462555 12.8564212 1.17805481 13.87916565 C1.1831284 15.9833225 1.185463 18.08748743 1.18530273 20.19165039 C1.1874883 23.42021883 1.20563699 26.64844527 1.22460938 29.87695312 C1.22754332 31.91666549 1.22952811 33.95637949 1.23046875 35.99609375 C1.23765427 36.96695419 1.24483978 37.93781464 1.25224304 38.93809509 C1.24916641 39.83565018 1.24608978 40.73320526 1.24291992 41.65795898 C1.24434494 42.44992172 1.24576996 43.24188446 1.24723816 44.05784607 C1 46 1 46 -1 48 C-2.90087891 48.65087891 -2.90087891 48.65087891 -5.2265625 49.2265625 C-6.08588379 49.44948975 -6.94520508 49.67241699 -7.83056641 49.90209961 C-8.75272949 50.14065674 -9.67489258 50.37921387 -10.625 50.625 C-40.96487544 58.89221474 -66.76739936 79.1625569 -83 106 C-89.64039927 117.72153442 -94.06782085 129.87996113 -97 143 C-97.36738281 144.57007813 -97.36738281 144.57007813 -97.7421875 146.171875 C-103.37695727 175.34917601 -96.71159042 204.68411599 -82 230 C-74.33095139 222.41253702 -67.24603349 214.39198776 -60.46875 206.00390625 C-57.59962776 202.51283821 -54.65355539 199.09621768 -51.6875 195.6875 C-50.86076782 194.73713867 -50.86076782 194.73713867 -50.01733398 193.76757812 C-48.89821841 192.48151545 -47.77899624 191.19554552 -46.65966797 189.90966797 C-40.45127377 182.76608759 -34.27176028 175.60354128 -28.3125 168.25 C-24.7672161 163.88067714 -21.05369648 159.70580662 -17.265625 155.546875 C-14.06740615 151.95163588 -11.03801695 148.23018248 -8.0234375 144.48046875 C-6.36162228 142.44330144 -4.64503591 140.50367198 -2.875 138.5625 C-0.74648714 136.26508506 -0.74648714 136.26508506 -1.23046875 134.078125 C-2.05566756 131.84966932 -3.0942562 130.14457034 -4.4375 128.1875 C-9.26879552 120.59147467 -10.24570119 112.40646326 -8.53515625 103.609375 C-5.45927297 93.19869315 0.62286279 86.30667572 10 81 C17.1383847 77.90221041 26.82895992 77.61166178 34.25 80.125 C35.52172396 80.70451978 36.77194666 81.3329093 38 82 C38.75023437 82.4021875 39.50046875 82.804375 40.2734375 83.21875 C48.62146208 88.21092417 53.11114605 95.18606419 55.53125 104.53515625 C56.70517133 110.70802588 56.18634211 115.7466489 54.4765625 121.78515625 C54.20150879 122.76492432 53.92645508 123.74469238 53.64306641 124.75415039 C53.32474854 125.86584595 53.32474854 125.86584595 53 127 C53.46970215 127.30478271 53.9394043 127.60956543 54.42333984 127.92358398 C69.86802644 137.94801093 85.27974494 148.02257367 100.68725586 158.10400391 C115.44328533 167.75899901 130.20730867 177.40124335 145 187 C151.67499228 157.71832045 142.11298931 126.01372636 126.86035156 101.14160156 C108.5029966 72.15880084 79.50858487 55.83108643 46.9765625 47.578125 C45 47 45 47 44 46 C43.90195149 44.5932478 43.87201814 43.18164864 43.87060547 41.77148438 C43.86745331 40.87385376 43.86430115 39.97622314 43.86105347 39.0513916 C43.86408981 37.58735901 43.86408981 37.58735901 43.8671875 36.09375 C43.86623077 35.0987146 43.86527405 34.1036792 43.86428833 33.07849121 C43.8636064 30.97013282 43.86546156 28.86177235 43.86962891 26.75341797 C43.87497697 23.51394973 43.86968433 20.27462015 43.86328125 17.03515625 C43.86394203 14.99218719 43.86522319 12.94921822 43.8671875 10.90625 C43.86516327 9.93022827 43.86313904 8.95420654 43.86105347 7.9486084 C43.86578171 6.60216248 43.86578171 6.60216248 43.87060547 5.22851562 C43.87140106 4.43433228 43.87219666 3.64014893 43.87301636 2.82189941 C44 1 44 1 45 0 C50.72513181 -0.26540346 55.80970263 0.33009485 61.375 1.625 C62.15174072 1.80393799 62.92848145 1.98287598 63.72875977 2.16723633 C98.68558023 10.5164477 132.34648856 29.63208928 155 58 C155.77859375 58.96421875 156.5571875 59.9284375 157.359375 60.921875 C184.89614688 95.53922981 198.23658265 139.20237238 194.25 183.3125 C194.12455811 184.71363037 194.12455811 184.71363037 193.99658203 186.14306641 C193.00873721 196.2258381 191.08634224 206.09493831 189 216 C189.48355957 216.31227539 189.96711914 216.62455078 190.46533203 216.94628906 C192.68551217 218.38040973 194.90525874 219.81520014 197.125 221.25 C197.88554687 221.74113281 198.64609375 222.23226562 199.4296875 222.73828125 C200.17734375 223.22167969 200.925 223.70507812 201.6953125 224.203125 C202.44458008 224.67427734 203.19384766 225.14542969 203.96582031 225.63085938 C206 227 206 227 208.6796875 229.484375 C213.54556548 231.70550518 217.43555888 231.27826134 222.63818359 230.32910156 C228.89488521 227.85550072 230.69518974 222.74968914 233.3125 216.875 C233.92151286 215.61578023 234.53624256 214.35931159 235.15625 213.10546875 C236.4641274 210.44969093 237.74670913 207.78368967 239.01416016 205.10839844 C241.94826804 198.97081479 245.1956782 192.99996331 248.41973877 187.01135254 C250.23200574 183.63706891 252.02260756 180.25131286 253.81640625 176.8671875 C257.06818299 170.74291819 260.33668016 164.62784837 263.61743164 158.51904297 C264.82483509 156.26749063 266.02848952 154.01392359 267.22827148 151.75830078 C270.33410553 145.92526131 273.47959603 140.1215737 276.71427917 134.35879517 C278.42973005 131.29278565 280.12220441 128.2144011 281.81204224 125.13421631 C282.63671551 123.6442697 283.47155231 122.15989725 284.31710815 120.68170166 C289.92091084 111.58270336 289.92091084 111.58270336 290.4921875 101.296875 C290.23421387 100.5656543 289.97624023 99.83443359 289.71044922 99.08105469 C288.17940362 94.59630118 289.09198754 90.04484407 290.9765625 85.80078125 C294.12654128 80.30356021 297.9040475 77.03198417 304 75 C311.04973631 74.30527639 317.2560295 74.51944251 323 79 C328.40950287 84.93561412 329.31176663 90.14631193 329.20703125 98.05859375 C328.81447119 103.63590926 326.62654536 106.60589115 322.625 110.25 C317.07611663 114.67520553 312.95717107 115.23583631 306 115 C305.72849121 115.70906494 305.45698242 116.41812988 305.17724609 117.14868164 C303.97415443 120.06259859 302.61356192 122.82189114 301.1640625 125.62109375 C300.60066162 126.70986816 300.03726074 127.79864258 299.45678711 128.92041016 C298.85229736 130.0810498 298.24780762 131.24168945 297.625 132.4375 C297.31354034 133.03713562 297.00208069 133.63677124 296.68118286 134.25457764 C292.05412914 143.16022012 287.31080794 151.99676775 282.47119141 160.78881836 C278.71087288 167.64041495 275.08678871 174.55618129 271.5 181.5 C267.4045792 189.42787761 263.23218431 197.30329388 258.9375 205.125 C257.96463982 206.91134729 256.99198405 208.69780591 256.01953125 210.484375 C254.45619785 213.3531617 252.88030003 216.21284523 251.27880859 219.06054688 C249.53936568 222.15395793 247.83066444 225.26286675 246.125 228.375 C245.58222412 229.32004395 245.03944824 230.26508789 244.48022461 231.23876953 C241.29147659 236.99969784 241.29147659 236.99969784 241.6875 243.34375 C242.120625 244.5503125 242.55375 245.756875 243 247 C243.26825878 253.31302323 242.19625442 258.12327189 238 263 C233.41491246 267.4831967 229.33880933 269.93834729 222.80078125 270.03125 C216.08233442 269.57498875 211.33820325 267.5277873 206.6875 262.5 C203.77261835 258.18165682 202.7491464 255.53585106 202.875 250.25 C202.89304687 249.26515625 202.91109375 248.2803125 202.9296875 247.265625 C202.96449219 246.14414062 202.96449219 246.14414062 203 245 C202.33613281 244.77570313 201.67226563 244.55140625 200.98828125 244.3203125 C197.07498719 242.59130153 193.71176843 240.28296905 190.1875 237.875 C189.14819336 237.17310547 189.14819336 237.17310547 188.08789062 236.45703125 C186.38908895 235.30887563 184.69415136 234.15500633 183 233 C182.74943848 233.49177734 182.49887695 233.98355469 182.24072266 234.49023438 C177.62911066 243.5001321 172.92723164 252.41160896 167.5625 261 C167.15016113 261.66322266 166.73782227 262.32644531 166.31298828 263.00976562 C162.15485156 269.55990264 162.15485156 269.55990264 160 271 C157.05547151 271.48351806 154.94819552 271.62633758 152.3898468 269.93640137 C150.61893242 268.36399896 148.96794852 266.72061951 147.32421875 265.015625 C146.71359085 264.40362244 146.10296295 263.79161987 145.47383118 263.16107178 C144.18853307 261.86672655 142.91051838 260.56511334 141.6394043 259.25683594 C139.69258572 257.25522885 137.72279884 255.2787018 135.74804688 253.3046875 C134.50117925 252.04307334 133.25568821 250.78009689 132.01171875 249.515625 C131.42323654 248.92380432 130.83475433 248.33198364 130.22843933 247.722229 C125.55829449 242.88690582 125.55829449 242.88690582 125 239 C125.93359375 236.80078125 125.93359375 236.80078125 127.4375 234.3125 C130.28109194 229.35957695 132.85941554 224.34137088 135.3125 219.1875 C135.83638306 218.11205933 135.83638306 218.11205933 136.37084961 217.01489258 C138.26873038 213.00483159 139.51628672 209.46558494 140 205 C127.54739913 196.63661955 114.98804259 188.43728182 102.42724609 180.23779297 C98.02372497 177.36297554 93.62240198 174.48479851 89.22119141 171.60644531 C87.07916796 170.2057042 84.93691646 168.80531175 82.79443359 167.40527344 C77.73914195 164.10151195 72.6856047 160.79515796 67.63821411 157.4793396 C65.26754971 155.92219541 62.89589734 154.36655961 60.52416992 152.81103516 C58.86085345 151.71923906 57.19895959 150.62527662 55.53710938 149.53125 C52.70116126 147.67178878 49.85463276 145.83060619 47 144 C46.29294922 143.53585693 45.58589844 143.07171387 44.85742188 142.59350586 C41.54859102 140.4840638 41.54859102 140.4840638 37.7421875 140.23046875 C36.81792969 140.70419922 36.81792969 140.70419922 35.875 141.1875 C30.71941901 143.70111314 26.93143445 144.02130074 21.25 143.375 C17.26609932 143.33598996 15.60509421 143.48600555 12.53515625 146.09375 C10.22596502 148.98328279 8.11771626 151.96807836 6 155 C4.52746122 156.69097821 3.02777856 158.35875948 1.5 160 C-1.52282421 163.31989486 -4.42512161 166.69764112 -7.25 170.1875 C-11.41084769 175.32694428 -15.71734489 180.32326152 -20.05932617 185.30908203 C-23.59159995 189.36783257 -27.09432856 193.44885282 -30.5625 197.5625 C-34.35414489 202.05982362 -38.16728302 206.53761799 -42 211 C-46.29959826 216.00687355 -50.57392279 221.03410367 -54.83129883 226.0769043 C-60.18636654 232.41410718 -65.59355393 238.70663258 -71 245 C-70.61328125 245.44730469 -70.2265625 245.89460937 -69.828125 246.35546875 C-69.30734375 246.96003906 -68.7865625 247.56460938 -68.25 248.1875 C-67.69771729 248.82856689 -67.14543457 249.46963379 -66.57641602 250.13012695 C-65.34921232 251.58578022 -64.17660925 253.08752798 -63.02734375 254.60546875 C-60.50636862 257.58303668 -57.63436695 259.93726209 -54.5625 262.3125 C-53.94850342 262.78961426 -53.33450684 263.26672852 -52.7019043 263.75830078 C-25.20227369 284.78390583 7.35027877 292.86291053 41.48876953 288.37548828 C57.09891515 286.04140273 71.45521721 280.31130445 85.09765625 272.515625 C86.05542969 272.01546875 87.01320313 271.5153125 88 271 C88.94746094 270.45859375 89.89492188 269.9171875 90.87109375 269.359375 C94 269 94 269 95.75439453 270.04956055 C97.95190452 271.93374378 99.96731777 273.93869455 102 276 C103.85281252 277.76177351 105.70568058 279.5234886 107.55859375 281.28515625 C109.0268809 282.71759766 110.48860451 284.15640165 111.94799805 285.59790039 C112.94828065 286.5814597 113.95391875 287.55959948 114.96459961 288.5324707 C116.44576455 289.95883945 117.90975978 291.40101 119.37109375 292.84765625 C120.6693811 294.1162146 120.6693811 294.1162146 121.99389648 295.41040039 C124.26920513 298.34750624 124.71184525 300.33746294 125 304 C89.41587672 331.66816365 44.31612608 341.89466609 -0.03125 336.68359375 C-28.91570657 332.91629932 -56.88284665 321.80997589 -80 304 C-80.93585938 303.28457031 -81.87171875 302.56914062 -82.8359375 301.83203125 C-89.73915123 296.36940414 -95.89153649 290.32113729 -102 284 C-106.98760865 285.95901559 -109.44864648 290.02110731 -112.66015625 294.125 C-114.72956133 296.66770808 -116.89901875 298.85192652 -119.25 301.125 C-120.99306364 302.96563268 -120.99306364 302.96563268 -122 305 C-121.71129447 307.33804154 -120.8917565 309.10212501 -119.9296875 311.25 C-117.54899401 318.29205133 -117.79055198 328.11792215 -120.5625 335 C-124.82583516 342.86615361 -131.38056744 349.71358331 -139.7265625 353.109375 C-147.92553742 355.34012235 -158.47177457 355.43371378 -166.046875 351.328125 C-174.08929712 345.85927796 -180.40079895 339.54180384 -183 330 C-183.99334697 318.95767789 -183.13173502 310.13857774 -176.8125 300.75 C-169.21505988 293.32139188 -160.70819891 289.10023275 -150 289 C-145.39755232 289.56820342 -140.84986763 290.39653708 -136.4375 291.8359375 C-133.86373936 292.2841221 -133.86373936 292.2841221 -131.859375 290.296875 C-130.81523437 289.03617187 -130.81523437 289.03617187 -129.75 287.75 C-128.98300781 286.83476562 -128.21601563 285.91953125 -127.42578125 284.9765625 C-126.62527344 283.99429687 -125.82476562 283.01203125 -125 282 C-124.14792969 281.01773437 -123.29585937 280.03546875 -122.41796875 279.0234375 C-117.41016213 273.75475018 -117.41016213 273.75475018 -116 267 C-117.24648342 264.84591163 -118.52463333 262.85125447 -119.9375 260.8125 C-136.00167294 236.58509142 -147.01732114 207.45168465 -147.203125 178.07421875 C-147.21009399 177.33333008 -147.21706299 176.59244141 -147.22424316 175.82910156 C-147.24156245 173.44850947 -147.24796369 171.06815249 -147.25 168.6875 C-147.25100708 167.87664948 -147.25201416 167.06579895 -147.25305176 166.2303772 C-147.243208 154.54453928 -146.83227601 143.38936521 -144 132 C-143.8448291 131.3488623 -143.6896582 130.69772461 -143.52978516 130.02685547 C-140.51453099 117.44024404 -136.50205717 105.3484137 -130.875 93.6875 C-130.39417969 92.69057129 -129.91335937 91.69364258 -129.41796875 90.66650391 C-122.97762526 77.58931037 -114.96074532 66.35636738 -105.30957031 55.47705078 C-104.05800739 54.06542593 -102.82157691 52.64042773 -101.5859375 51.21484375 C-97.03657726 46.03232512 -92.38582827 41.30695011 -87 37 C-86.46552246 36.56961426 -85.93104492 36.13922852 -85.38037109 35.69580078 C-63.32503807 18.08850194 -29.40788448 -1.87709901 0 0 Z " fill="#87E4E7" transform="translate(183,56)"/>
<path d="M0 0 C4.42723458 0.06102458 8.53387187 0.7880797 12.8359375 1.7890625 C13.61267822 1.96800049 14.38941895 2.14693848 15.18969727 2.33129883 C50.14651773 10.6805102 83.80742606 29.79615178 106.4609375 58.1640625 C107.62882812 59.61039063 107.62882812 59.61039063 108.8203125 61.0859375 C136.35708438 95.70329231 149.69752015 139.36643488 145.7109375 183.4765625 C145.62730957 184.41064941 145.54368164 185.34473633 145.45751953 186.30712891 C144.46967471 196.3899006 142.54727974 206.25900081 140.4609375 216.1640625 C140.94449707 216.47633789 141.42805664 216.78861328 141.92626953 217.11035156 C144.14644967 218.54447223 146.36619624 219.97926264 148.5859375 221.4140625 C149.34648437 221.90519531 150.10703125 222.39632812 150.890625 222.90234375 C151.63828125 223.38574219 152.3859375 223.86914062 153.15625 224.3671875 C153.90551758 224.83833984 154.65478516 225.30949219 155.42675781 225.79492188 C157.4609375 227.1640625 157.4609375 227.1640625 160.140625 229.6484375 C165.00650298 231.86956768 168.89649638 231.44232384 174.09912109 230.49316406 C180.35582271 228.01956322 182.15612724 222.91375164 184.7734375 217.0390625 C185.38245036 215.77984273 185.99718006 214.52337409 186.6171875 213.26953125 C187.9250649 210.61375343 189.20764663 207.94775217 190.47509766 205.27246094 C193.40920554 199.13487729 196.6566157 193.16402581 199.88067627 187.17541504 C201.69294324 183.80113141 203.48354506 180.41537536 205.27734375 177.03125 C208.52912049 170.90698069 211.79761766 164.79191087 215.07836914 158.68310547 C216.28577259 156.43155313 217.48942702 154.17798609 218.68920898 151.92236328 C221.79504303 146.08932381 224.94053353 140.2856362 228.17521667 134.52285767 C229.89066755 131.45684815 231.58314191 128.3784636 233.27297974 125.29827881 C234.09765301 123.8083322 234.93248981 122.32395975 235.77804565 120.84576416 C241.38184834 111.74676586 241.38184834 111.74676586 241.953125 101.4609375 C241.69515137 100.7297168 241.43717773 99.99849609 241.17138672 99.24511719 C239.64034112 94.76036368 240.55292504 90.20890657 242.4375 85.96484375 C245.58747878 80.46762271 249.364985 77.19604667 255.4609375 75.1640625 C262.51067381 74.46933889 268.716967 74.68350501 274.4609375 79.1640625 C279.87044037 85.09967662 280.77270413 90.31037443 280.66796875 98.22265625 C280.27540869 103.79997176 278.08748286 106.76995365 274.0859375 110.4140625 C268.53705413 114.83926803 264.41810857 115.39989881 257.4609375 115.1640625 C257.18942871 115.87312744 256.91791992 116.58219238 256.63818359 117.31274414 C255.43509193 120.22666109 254.07449942 122.98595364 252.625 125.78515625 C252.06159912 126.87393066 251.49819824 127.96270508 250.91772461 129.08447266 C250.31323486 130.2451123 249.70874512 131.40575195 249.0859375 132.6015625 C248.77447784 133.20119812 248.46301819 133.80083374 248.14212036 134.41864014 C243.51506664 143.32428262 238.77174544 152.16083025 233.93212891 160.95288086 C230.17181038 167.80447745 226.54772621 174.72024379 222.9609375 181.6640625 C218.8655167 189.59194011 214.69312181 197.46735638 210.3984375 205.2890625 C209.42557732 207.07540979 208.45292155 208.86186841 207.48046875 210.6484375 C205.91713535 213.5172242 204.34123753 216.37690773 202.73974609 219.22460938 C201.00030318 222.31802043 199.29160194 225.42692925 197.5859375 228.5390625 C197.04316162 229.48410645 196.50038574 230.42915039 195.94116211 231.40283203 C192.75241409 237.16376034 192.75241409 237.16376034 193.1484375 243.5078125 C193.5815625 244.714375 194.0146875 245.9209375 194.4609375 247.1640625 C194.72919628 253.47708573 193.65719192 258.28733439 189.4609375 263.1640625 C184.87584996 267.6472592 180.79974683 270.10240979 174.26171875 270.1953125 C167.54327192 269.73905125 162.79914075 267.6918498 158.1484375 262.6640625 C155.23355585 258.34571932 154.2100839 255.69991356 154.3359375 250.4140625 C154.35398437 249.42921875 154.37203125 248.444375 154.390625 247.4296875 C154.41382813 246.68203125 154.43703125 245.934375 154.4609375 245.1640625 C153.46513672 244.82761719 153.46513672 244.82761719 152.44921875 244.484375 C148.53592469 242.75536403 145.17270593 240.44703155 141.6484375 238.0390625 C140.60913086 237.33716797 140.60913086 237.33716797 139.54882812 236.62109375 C137.85002645 235.47293813 136.15508886 234.31906883 134.4609375 233.1640625 C134.21037598 233.65583984 133.95981445 234.14761719 133.70166016 234.65429688 C129.09004816 243.6641946 124.38816914 252.57567146 119.0234375 261.1640625 C118.61109863 261.82728516 118.19875977 262.49050781 117.77392578 263.17382812 C113.61578906 269.72396514 113.61578906 269.72396514 111.4609375 271.1640625 C108.51640901 271.64758056 106.40913302 271.79040008 103.8507843 270.10046387 C102.07986992 268.52806146 100.42888602 266.88468201 98.78515625 265.1796875 C98.17452835 264.56768494 97.56390045 263.95568237 96.93476868 263.32513428 C95.64947057 262.03078905 94.37145588 260.72917584 93.1003418 259.42089844 C91.15352322 257.41929135 89.18373634 255.4427643 87.20898438 253.46875 C85.96211675 252.20713584 84.71662571 250.94415939 83.47265625 249.6796875 C82.88417404 249.08786682 82.29569183 248.49604614 81.68937683 247.8862915 C77.01923199 243.05096832 77.01923199 243.05096832 76.4609375 239.1640625 C77.39453125 236.96484375 77.39453125 236.96484375 78.8984375 234.4765625 C90.78461241 213.68957753 97.89608877 193.10614941 97.7734375 168.9140625 C97.76779785 167.73529541 97.7621582 166.55652832 97.75634766 165.34204102 C97.30398029 132.64394258 83.61532797 102.49707304 60.40942383 79.57348633 C42.89699671 62.9335179 21.59881483 53.61791928 -1.5625 47.7421875 C-3.5390625 47.1640625 -3.5390625 47.1640625 -4.5390625 46.1640625 C-4.63711101 44.7573103 -4.66704436 43.34571114 -4.66845703 41.93554688 C-4.67160919 41.03791626 -4.67476135 40.14028564 -4.67800903 39.2154541 C-4.6759848 38.23943237 -4.67396057 37.26341064 -4.671875 36.2578125 C-4.67283173 35.2627771 -4.67378845 34.2677417 -4.67477417 33.24255371 C-4.6754561 31.13419532 -4.67360094 29.02583485 -4.66943359 26.91748047 C-4.66408553 23.67801223 -4.66937817 20.43868265 -4.67578125 17.19921875 C-4.67512047 15.15624969 -4.67383931 13.11328072 -4.671875 11.0703125 C-4.67389923 10.09429077 -4.67592346 9.11826904 -4.67800903 8.1126709 C-4.67485687 7.21504028 -4.67170471 6.31740967 -4.66845703 5.39257812 C-4.66766144 4.59839478 -4.66686584 3.80421143 -4.66604614 2.98596191 C-4.4308275 -0.38884048 -3.49354882 0.16195259 0 0 Z " fill="#F2C957" transform="translate(231.5390625,55.8359375)"/>
<path d="M0 0 C1.55569176 1.55569176 1.13484055 3.04924917 1.14526367 5.21264648 C1.15164352 6.10704941 1.15802338 7.00145233 1.16459656 7.92295837 C1.16626579 9.38228539 1.16626579 9.38228539 1.16796875 10.87109375 C1.17129715 11.86375748 1.17462555 12.8564212 1.17805481 13.87916565 C1.1831284 15.9833225 1.185463 18.08748743 1.18530273 20.19165039 C1.1874883 23.42021883 1.20563699 26.64844527 1.22460938 29.87695312 C1.22754332 31.91666549 1.22952811 33.95637949 1.23046875 35.99609375 C1.23765427 36.96695419 1.24483978 37.93781464 1.25224304 38.93809509 C1.24916641 39.83565018 1.24608978 40.73320526 1.24291992 41.65795898 C1.24434494 42.44992172 1.24576996 43.24188446 1.24723816 44.05784607 C1 46 1 46 -1 48 C-2.90087891 48.65087891 -2.90087891 48.65087891 -5.2265625 49.2265625 C-6.08588379 49.44948975 -6.94520508 49.67241699 -7.83056641 49.90209961 C-8.75272949 50.14065674 -9.67489258 50.37921387 -10.625 50.625 C-40.96487544 58.89221474 -66.76739936 79.1625569 -83 106 C-89.64039927 117.72153442 -94.06782085 129.87996113 -97 143 C-97.24492188 144.04671875 -97.48984375 145.0934375 -97.7421875 146.171875 C-102.84626275 172.60119614 -98.2864678 202.10216007 -84.45239258 225.23095703 C-81.98874981 229.44669541 -81.98874981 229.44669541 -82.04296875 232.11328125 C-83.32917407 234.64894317 -84.91685698 236.63480638 -86.75 238.8125 C-87.55824219 239.77542969 -88.36648437 240.73835937 -89.19921875 241.73046875 C-90.13144308 242.82148409 -91.06512413 243.91125586 -92 245 C-92.51771973 245.60408691 -93.03543945 246.20817383 -93.56884766 246.83056641 C-99.97107524 254.28615603 -106.43790141 261.68454871 -113 269 C-117.048885 265.23929187 -119.98704698 261.32391645 -122.875 256.625 C-123.30844727 255.92238037 -123.74189453 255.21976074 -124.18847656 254.49584961 C-137.79226957 232.02341064 -147.03632652 204.44674113 -147.203125 178.07421875 C-147.21357849 176.96288574 -147.21357849 176.96288574 -147.22424316 175.82910156 C-147.24156245 173.44850947 -147.24796369 171.06815249 -147.25 168.6875 C-147.25100708 167.87664948 -147.25201416 167.06579895 -147.25305176 166.2303772 C-147.243208 154.54453928 -146.83227601 143.38936521 -144 132 C-143.8448291 131.3488623 -143.6896582 130.69772461 -143.52978516 130.02685547 C-140.51453099 117.44024404 -136.50205717 105.3484137 -130.875 93.6875 C-130.39417969 92.69057129 -129.91335937 91.69364258 -129.41796875 90.66650391 C-122.97762526 77.58931037 -114.96074532 66.35636738 -105.30957031 55.47705078 C-104.05800739 54.06542593 -102.82157691 52.64042773 -101.5859375 51.21484375 C-97.03657726 46.03232512 -92.38582827 41.30695011 -87 37 C-86.46552246 36.56961426 -85.93104492 36.13922852 -85.38037109 35.69580078 C-63.32503807 18.08850194 -29.40788448 -1.87709901 0 0 Z " fill="#FD6C56" transform="translate(183,56)"/>
<path d="M0 0 C3.38121243 1.42483406 5.09897733 3.08989697 7.375 5.9375 C27.45954792 29.11484473 58.28495858 40.97550861 88.1875 43.8125 C112.9927425 45.06846165 136.6451194 38.77421748 158.09765625 26.515625 C159.05542969 26.01546875 160.01320313 25.5153125 161 25 C161.94746094 24.45859375 162.89492188 23.9171875 163.87109375 23.359375 C167 23 167 23 168.75439453 24.04956055 C170.95190452 25.93374378 172.96731777 27.93869455 175 30 C176.85281252 31.76177351 178.70568058 33.5234886 180.55859375 35.28515625 C182.0268809 36.71759766 183.48860451 38.15640165 184.94799805 39.59790039 C185.94828065 40.5814597 186.95391875 41.55959948 187.96459961 42.5324707 C189.44576455 43.95883945 190.90975978 45.40101 192.37109375 46.84765625 C193.23661865 47.69336182 194.10214355 48.53906738 194.99389648 49.41040039 C197.26920513 52.34750624 197.71184525 54.33746294 198 58 C162.41587672 85.66816365 117.31612608 95.89466609 72.96875 90.68359375 C44.08086861 86.91585263 16.12265361 75.8067262 -7 58 C-7.92425781 57.29617188 -8.84851563 56.59234375 -9.80078125 55.8671875 C-17.08463677 50.11840195 -23.55253855 43.6499995 -30 37 C-28.59160505 32.70554982 -26.54145224 30.12953521 -23.4375 26.875 C-19.96080219 23.15353467 -16.63504439 19.40628308 -13.4375 15.4375 C-9.14437033 10.11708573 -4.62120133 5.03634471 0 0 Z " fill="#FD6B55" transform="translate(110,302)"/>
<path d="M0 0 C4.94754234 2.84458286 7.84443678 7.09581034 9.625 12.4375 C10.57416973 25.08701198 10.57416973 25.08701198 6.625 30.4375 C2.60240715 34.54948381 -1.48733694 38.2336525 -7.4609375 38.546875 C-9.43258022 38.56071109 -11.40444059 38.50429862 -13.375 38.4375 C-13.78226318 39.50109741 -13.78226318 39.50109741 -14.19775391 40.58618164 C-15.40084557 43.50009859 -16.76143808 46.25939114 -18.2109375 49.05859375 C-18.77433838 50.14736816 -19.33773926 51.23614258 -19.91821289 52.35791016 C-20.52270264 53.5185498 -21.12719238 54.67918945 -21.75 55.875 C-22.21718948 56.77445343 -22.21718948 56.77445343 -22.69381714 57.69207764 C-27.32087086 66.59772012 -32.06419206 75.43426775 -36.90380859 84.22631836 C-40.66412712 91.07791495 -44.28821129 97.99368129 -47.875 104.9375 C-51.9704208 112.86537761 -56.14281569 120.74079388 -60.4375 128.5625 C-61.41036018 130.34884729 -62.38301595 132.13530591 -63.35546875 133.921875 C-64.91880215 136.7906617 -66.49469997 139.65034523 -68.09619141 142.49804688 C-69.83563432 145.59145793 -71.54433556 148.70036675 -73.25 151.8125 C-73.79277588 152.75754395 -74.33555176 153.70258789 -74.89477539 154.67626953 C-78.08352341 160.43719784 -78.08352341 160.43719784 -77.6875 166.78125 C-77.254375 167.9878125 -76.82125 169.194375 -76.375 170.4375 C-76.10674122 176.75052323 -77.17874558 181.56077189 -81.375 186.4375 C-85.96008754 190.9206967 -90.03619067 193.37584729 -96.57421875 193.46875 C-103.29266558 193.01248875 -108.03679675 190.9652873 -112.6875 185.9375 C-115.60238165 181.61915682 -116.6258536 178.97335106 -116.5 173.6875 C-116.48195313 172.70265625 -116.46390625 171.7178125 -116.4453125 170.703125 C-116.42210937 169.95546875 -116.39890625 169.2078125 -116.375 168.4375 C-117.04144531 168.21449219 -117.70789063 167.99148438 -118.39453125 167.76171875 C-122.29290564 166.02967561 -125.5842131 163.70095692 -129.0625 161.25 C-130.12271362 160.51015869 -130.12271362 160.51015869 -131.2043457 159.75537109 C-132.61538456 158.77023636 -134.02516454 157.78329569 -135.43359375 156.79443359 C-137.10312372 155.62752621 -138.7848101 154.4780459 -140.46875 153.33203125 C-151.94473246 145.50278418 -151.94473246 145.50278418 -153 140.4375 C-152.14314736 136.32460733 -150.79764067 134.84063068 -147.375 132.4375 C-142.15380513 132.24412241 -139.20984843 133.95545835 -135.28295898 137.05664062 C-133.44346099 138.38795229 -131.68712089 139.32977973 -129.6328125 140.28515625 C-125.38302672 142.3598818 -121.56650577 144.86996665 -117.6875 147.5625 C-116.41584039 148.44456117 -115.14116353 149.32229076 -113.86328125 150.1953125 C-113.31196533 150.5783252 -112.76064941 150.96133789 -112.19262695 151.35595703 C-106.71725628 154.61396806 -102.52549421 154.9091529 -96.31787109 153.69628906 C-90.52218187 151.21723036 -88.70077035 145.78151788 -86.1875 140.3125 C-85.5684694 139.05368364 -84.9446532 137.79721087 -84.31640625 136.54296875 C-82.99011807 133.88588758 -81.68512308 131.21978169 -80.39306641 128.54589844 C-77.41389371 122.42566319 -74.17387495 116.44433274 -70.95324707 110.44885254 C-69.14375895 107.07344942 -67.35259898 103.68833635 -65.55859375 100.3046875 C-62.30674438 94.18045632 -59.03832015 88.06534895 -55.75756836 81.95654297 C-54.55016491 79.70499063 -53.34651048 77.45142359 -52.14672852 75.19580078 C-49.04089447 69.36276131 -45.89540397 63.5590737 -42.66072083 57.79629517 C-40.94526995 54.73028565 -39.25279559 51.6519011 -37.56295776 48.57171631 C-36.73828449 47.0817697 -35.90344769 45.59739725 -35.05789185 44.11920166 C-29.45408916 35.02020336 -29.45408916 35.02020336 -28.8828125 24.734375 C-29.14078613 24.0031543 -29.39875977 23.27193359 -29.66455078 22.51855469 C-31.19559638 18.03380118 -30.28301246 13.48234407 -28.3984375 9.23828125 C-22.53074401 -1.00179029 -10.94388276 -4.87784489 0 0 Z " fill="#86E4E7" transform="translate(502.375,132.5625)"/>
<path d="M0 0 C0.75023437 0.4021875 1.50046875 0.804375 2.2734375 1.21875 C10.62146208 6.21092417 15.11114605 13.18606419 17.53125 22.53515625 C18.70517133 28.70802588 18.18634211 33.7466489 16.4765625 39.78515625 C16.20150879 40.76492432 15.92645508 41.74469238 15.64306641 42.75415039 C15.43085449 43.49528076 15.21864258 44.23641113 15 45 C15.46970215 45.30478271 15.9394043 45.60956543 16.42333984 45.92358398 C29.61668942 54.4867729 42.78751646 63.08404129 55.94874573 71.69650269 C59.8635492 74.2578054 63.78090046 76.81517101 67.69921875 79.37109375 C81.18456682 88.17083799 94.62347723 97.03561744 108 106 C107.52434234 108.45906037 107.04463948 110.91720993 106.5625 113.375 C106.36043945 114.42300781 106.36043945 114.42300781 106.15429688 115.4921875 C105.11328125 120.7734375 105.11328125 120.7734375 104 123 C100.05672312 121.58237381 96.84251229 119.70873924 93.37890625 117.359375 C92.28932617 116.62525391 91.19974609 115.89113281 90.07714844 115.13476562 C89.50411987 114.74587158 88.93109131 114.35697754 88.34069824 113.95629883 C85.31375038 111.90286993 82.27626022 109.865185 79.23828125 107.828125 C78.31986954 107.21191284 78.31986954 107.21191284 77.38290405 106.58325195 C71.72853269 102.79908381 66.0034536 99.13164147 60.25 95.5 C53.79958599 91.42433679 47.39066667 87.30582449 41.05761719 83.05029297 C35.15178782 79.0867895 29.2104278 75.17785392 23.26135254 71.2796936 C22.10060126 70.51873744 20.94035101 69.75701639 19.78063965 68.99447632 C16.20086349 66.64115301 12.6067331 64.31177093 9 62 C8.27699707 61.52570557 7.55399414 61.05141113 6.80908203 60.56274414 C3.52254675 58.47300536 3.52254675 58.47300536 -0.2578125 58.23046875 C-0.87398437 58.54628906 -1.49015625 58.86210937 -2.125 59.1875 C-2.79660156 59.496875 -3.46820313 59.80625 -4.16015625 60.125 C-4.76730469 60.41375 -5.37445313 60.7025 -6 61 C-13.6875596 63.06251599 -20.73150429 61.97506646 -28 59 C-30.48993026 57.4781174 -32.68683974 55.79387938 -35 54 C-35.99 53.67 -36.98 53.34 -38 53 C-44.60756665 45.29117225 -47.61836264 36.78059887 -47.28125 26.6953125 C-46.36101114 17.87635672 -42.36187429 9.77885149 -35.6328125 3.94921875 C-25.31692502 -3.62308164 -11.72154211 -6.36725744 0 0 Z " fill="#75B0CA" transform="translate(221,138)"/>
<path d="M0 0 C0 0.66 0 1.32 0 2 C0.556875 2.226875 1.11375 2.45375 1.6875 2.6875 C7.25085137 5.8450778 12.67595912 11.80753906 15.12109375 17.703125 C17.31440543 25.93048082 17.44588858 36.44931121 13.328125 44.046875 C7.86043733 52.08759216 1.54140015 58.40401046 -8 61 C-19.41118939 62.01695574 -28.19261809 61.13468068 -37.25 53.6875 C-43.5545274 47.80997247 -47.54450238 42.06343862 -48.3359375 33.265625 C-48.55641698 23.41104485 -47.43202407 16.09900719 -41.8125 7.75 C-36.72254752 2.77315758 -31.00512565 -1.32486126 -24 -3 C-22.989375 -3.2475 -21.97875 -3.495 -20.9375 -3.75 C-13.98559181 -4.191391 -6.13593914 -3.53824228 0 0 Z " fill="#75B0CA" transform="translate(48,349)"/>
<path d="M0 0 C1.92295898 -0.0009668 1.92295898 -0.0009668 3.88476562 -0.00195312 C4.88141235 0.01363647 4.88141235 0.01363647 5.89819336 0.02954102 C7.931003 0.05855677 9.96121192 0.05013309 11.99414062 0.03710938 C21.82799683 0.10144764 21.82799683 0.10144764 24.21459961 1.83569336 C27.63258638 6.74296126 26.55539423 13.22885241 26.55859375 18.93359375 C26.57083984 20.07892578 26.58308594 21.22425781 26.59570312 22.40429688 C26.59763672 23.50580078 26.59957031 24.60730469 26.6015625 25.7421875 C26.60567139 26.74950928 26.60978027 27.75683105 26.61401367 28.79467773 C26.35795177 31.64224052 26.06286519 33.19532277 24.37109375 35.49609375 C19.01250918 38.39310725 13.30143494 37.8262857 7.37109375 37.80859375 C6.29085937 37.82470703 5.210625 37.84082031 4.09765625 37.85742188 C3.05351562 37.85806641 2.009375 37.85871094 0.93359375 37.859375 C-0.01386719 37.86235596 -0.96132813 37.86533691 -1.9375 37.8684082 C-5.4247414 37.38600226 -8.12324909 36.00175091 -10.62890625 33.49609375 C-10.66983562 31.16311942 -10.67132348 28.8290415 -10.62890625 26.49609375 C-11.22137146 26.5049762 -11.81383667 26.51385864 -12.42425537 26.52301025 C-18.58840287 26.61147671 -24.75237018 26.67182501 -30.91699219 26.71582031 C-33.21784794 26.73594063 -35.51865254 26.76324009 -37.81933594 26.79785156 C-41.12577942 26.84634987 -44.4315471 26.86905853 -47.73828125 26.88671875 C-48.76757751 26.90736389 -49.79687378 26.92800903 -50.85736084 26.94927979 C-57.99411349 26.95152419 -57.99411349 26.95152419 -61.27636719 24.59667969 C-62.73091479 22.33766749 -63.1705611 21.16200423 -63.12890625 18.49609375 C-63.144375 17.50609375 -63.144375 17.50609375 -63.16015625 16.49609375 C-62.32534628 13.35327975 -61.30273808 12.41442755 -58.62890625 10.49609375 C-54.99954962 9.92401481 -51.40423786 10.03193871 -47.73828125 10.10546875 C-46.1486557 10.11395844 -46.1486557 10.11395844 -44.5269165 10.12261963 C-41.14378597 10.14500135 -37.76171641 10.19520277 -34.37890625 10.24609375 C-32.08465072 10.26615635 -29.79037858 10.28440754 -27.49609375 10.30078125 C-21.87333622 10.34487195 -16.25119704 10.41180239 -10.62890625 10.49609375 C-10.71140625 9.58859375 -10.79390625 8.68109375 -10.87890625 7.74609375 C-10.62890625 4.49609375 -10.62890625 4.49609375 -9.04321289 2.15209961 C-5.86929445 -0.02493434 -3.83226785 -0.00604417 0 0 Z " fill="#74DBAD" transform="translate(464.62890625,12.50390625)"/>
<path d="M0 0 C3.64473872 1.13112581 5.77677467 2.42212418 8.71704102 4.74414062 C10.55653901 6.07545229 12.31287911 7.01727973 14.3671875 7.97265625 C18.61697328 10.0473818 22.43349423 12.55746665 26.3125 15.25 C32.10602605 19.38887271 32.10602605 19.38887271 38.625 22.125 C39.615 21.795 40.605 21.465 41.625 21.125 C48.4950752 20.38064016 53.97434089 21.00375482 59.625 25.125 C64.32129416 28.99307174 66.96055616 32.50468806 67.75 38.625 C67.89516765 44.80743406 67.0266413 49.39414495 62.88671875 54.1015625 C58.23684548 58.48959825 54.01749123 61.07802148 47.43359375 61.1484375 C40.71351324 60.71635111 35.95957941 58.64886963 31.3125 53.625 C28.39761835 49.30665682 27.3741464 46.66085106 27.5 41.375 C27.51804687 40.39015625 27.53609375 39.4053125 27.5546875 38.390625 C27.57789063 37.64296875 27.60109375 36.8953125 27.625 36.125 C26.95855469 35.90199219 26.29210937 35.67898438 25.60546875 35.44921875 C21.70709436 33.71717561 18.4157869 31.38845692 14.9375 28.9375 C14.23069092 28.44427246 13.52388184 27.95104492 12.7956543 27.44287109 C11.38461544 26.45773636 9.97483546 25.47079569 8.56640625 24.48193359 C6.89687628 23.31502621 5.2151899 22.1655459 3.53125 21.01953125 C-7.94473246 13.19028418 -7.94473246 13.19028418 -9 8.125 C-7.90453296 2.8667582 -5.44474189 0.20165711 0 0 Z " fill="#5CA1BA" transform="translate(358.375,264.875)"/>
<path d="M0 0 C4.48089988 1.56191367 8.25593072 3.96165213 12.1875 6.5625 C12.91525635 7.03864746 13.6430127 7.51479492 14.39282227 8.00537109 C16.02806496 9.0757913 17.66202359 10.14817483 19.29492188 11.22216797 C22.18793515 13.12351478 25.08566471 15.01750693 27.984375 16.91015625 C32.37926157 19.7800246 36.77245097 22.65246713 41.1640625 25.52734375 C45.67722665 28.48164947 50.19301144 31.43188725 54.7109375 34.37890625 C68.19248881 43.17587879 81.62737761 52.03823131 95 61 C94.52434234 63.45906037 94.04463948 65.91720993 93.5625 68.375 C93.36043945 69.42300781 93.36043945 69.42300781 93.15429688 70.4921875 C92.11328125 75.7734375 92.11328125 75.7734375 91 78 C87.05672312 76.58237381 83.84251229 74.70873924 80.37890625 72.359375 C79.28932617 71.62525391 78.19974609 70.89113281 77.07714844 70.13476562 C76.50411987 69.74587158 75.93109131 69.35697754 75.34069824 68.95629883 C72.31375038 66.90286993 69.27626022 64.865185 66.23828125 62.828125 C65.62600677 62.41731689 65.0137323 62.00650879 64.38290405 61.58325195 C58.72853269 57.79908381 53.0034536 54.13164147 47.25 50.5 C40.7993189 46.42416804 34.38720176 42.30951682 28.05761719 38.0480957 C23.90861349 35.25967129 19.73403143 32.51199295 15.546875 29.78125 C14.97040222 29.40519119 14.39392944 29.02913239 13.79998779 28.64167786 C11.46105715 27.11644402 9.12182536 25.59168649 6.78063965 24.06991577 C0.76567932 20.16019156 -5.20858668 16.23538704 -11 12 C-10.29875 11.319375 -9.5975 10.63875 -8.875 9.9375 C-5.72065663 6.79219487 -2.86065696 3.4111614 0 0 Z " fill="#87E4E7" transform="translate(234,183)"/>
<path d="M0 0 C-2.10600073 2.22988312 -4.27485161 3.91321351 -6.8125 5.625 C-13.27237338 10.41934433 -17.64815799 17.02413217 -19 25 C-19.90744237 34.85425695 -18.5238375 43.93842414 -12.25 51.875 C-9.40753593 54.91425005 -6.17218155 56.96357829 -2.5390625 58.95703125 C-2.03117187 59.30121094 -1.52328125 59.64539063 -1 60 C-1 60.66 -1 61.32 -1 62 C-7.9840349 64.32801163 -18.12831903 64.25850587 -25 61.4375 C-32.86644701 57.17400582 -39.71742641 50.61802444 -43.109375 42.26953125 C-45.48786449 33.53797115 -45.13175311 23.22886583 -41.1875 15.0390625 C-36.89558748 7.66939693 -30.66903144 2.9609932 -22.875 -0.3125 C-21.451875 -0.6528125 -21.451875 -0.6528125 -20 -1 C-18.989375 -1.2475 -17.97875 -1.495 -16.9375 -1.75 C-11.15381263 -2.11721825 -5.68056846 -1.03360719 0 0 Z " fill="#5BA1BA" transform="translate(44,347)"/>
<path d="M0 0 C-1 2 -1 2 -4.125 3.625 C-11.0155896 7.43892716 -15.57995074 13.60540503 -18 21 C-20.08430126 31.42150629 -19.16810611 39.18584899 -13.609375 48.2734375 C-9.70111492 53.80671098 -5.15432159 57.15954388 1 60 C-5.71593515 63.73107508 -12.6745289 63.78003928 -20 61.8125 C-24.76726269 60.29597351 -28.06626508 58.05065157 -32 55 C-32.99 54.67 -33.98 54.34 -35 54 C-41.60756665 46.29117225 -44.61836264 37.78059887 -44.28125 27.6953125 C-43.36101114 18.87635672 -39.36187429 10.77885149 -32.6328125 4.94921875 C-23.21645453 -1.9627887 -11.09039678 -5.19475834 0 0 Z " fill="#5BA1BA" transform="translate(218,137)"/>
<path d="M0 0 C0.80695312 -0.01546875 1.61390625 -0.0309375 2.4453125 -0.046875 C3.22648437 -0.04171875 4.00765625 -0.0365625 4.8125 -0.03125 C5.87404297 -0.02448242 5.87404297 -0.02448242 6.95703125 -0.01757812 C9 0.5 9 0.5 10.78125 2.49951172 C13.8755836 5.28945115 16.72171745 5.0672241 20.6875 5.0390625 C21.42701904 5.05085541 22.16653809 5.06264832 22.9284668 5.07479858 C25.28585939 5.11002764 27.64236583 5.11922384 30 5.125 C32.35736755 5.14136392 34.71434076 5.1634507 37.0715332 5.19662476 C38.53611099 5.21619049 40.00086914 5.22559657 41.46557617 5.22354126 C45.12887675 5.26173288 47.92400172 5.4096341 51 7.5 C53.09679403 10.19587803 52.99510821 11.592944 52.8125 15.0625 C51.71942446 19.68705036 51.71942446 19.68705036 49 21.5 C45.28631386 22.75382923 41.60633437 22.65838562 37.71484375 22.7109375 C36.28319133 22.73898784 34.85155084 22.76765216 33.41992188 22.796875 C31.17277128 22.83822907 28.92584789 22.875136 26.6784668 22.90136719 C24.50263233 22.92893647 22.327795 22.97477926 20.15234375 23.0234375 C18.2031604 23.0531665 18.2031604 23.0531665 16.21459961 23.08349609 C12.77148201 23.52960824 12.09679111 23.9092394 10 26.5 C6.55334258 27.64888581 3.75648095 27.7039347 0.125 27.75 C-1.08929688 27.77578125 -2.30359375 27.8015625 -3.5546875 27.828125 C-7.52048261 27.45043023 -10.16462352 26.33537648 -13 23.5 C-13.30529612 20.40535007 -13.27834765 17.29536417 -13.3125 14.1875 C-13.34150391 13.31931641 -13.37050781 12.45113281 -13.40039062 11.55664062 C-13.43801114 7.78590705 -13.42233873 5.2461695 -11.54296875 1.92578125 C-7.73081677 -0.21160043 -4.29955271 -0.08241954 0 0 Z " fill="#75DBAC" transform="translate(33,472.5)"/>
<path d="M0 0 C2.25 1.625 2.25 1.625 3.25 3.625 C4.28930664 3.6343457 5.32861328 3.64369141 6.39941406 3.65332031 C10.26133838 3.69324123 14.1224678 3.75900478 17.98388672 3.83251953 C19.65403011 3.86071718 21.32430665 3.88193779 22.99462891 3.89599609 C25.39815372 3.91744337 27.80007983 3.96409845 30.203125 4.015625 C30.94806213 4.01685364 31.69299927 4.01808228 32.46051025 4.01934814 C35.94867196 4.1175483 37.89777837 4.35370364 40.69824219 6.51074219 C42.53356392 9.01135361 43.0988806 10.52705238 43.25 13.625 C42.18600927 17.43763347 41.6248349 18.37511007 38.25 20.625 C35.61489493 20.81781706 33.07667074 20.90199981 30.44140625 20.8984375 C28.87434179 20.91872466 27.30728455 20.93957541 25.74023438 20.9609375 C23.27361963 20.9835467 20.80728982 21.00001235 18.34057617 21.00585938 C15.95699787 21.01538321 13.57469799 21.0491538 11.19140625 21.0859375 C10.45588028 21.08089203 9.72035431 21.07584656 8.96253967 21.07064819 C5.45971453 21.13790758 3.67298245 21.24591937 1.01538086 23.62768555 C0.43280518 24.28679932 -0.14977051 24.94591309 -0.75 25.625 C-2.79296875 26.12670898 -2.79296875 26.12670898 -4.9375 26.12109375 C-6.10925781 26.12206055 -6.10925781 26.12206055 -7.3046875 26.12304688 C-8.11164063 26.10306641 -8.91859375 26.08308594 -9.75 26.0625 C-10.96042969 26.07313477 -10.96042969 26.07313477 -12.1953125 26.08398438 C-15.71077309 26.04627729 -18.11759769 25.96392811 -21.25 24.28515625 C-24.30967407 20.89879823 -23.94485378 17.09736037 -24 12.75 C-24.03867188 10.92855469 -24.03867188 10.92855469 -24.078125 9.0703125 C-23.72271792 5.33853819 -23.06937653 3.53989212 -20.75 0.625 C-15.20128676 -3.38509625 -6.04287144 -2.21571953 0 0 Z " fill="#75DBAD" transform="translate(96.75,427.375)"/>
<path d="M0 0 C0.75595459 0.00185303 1.51190918 0.00370605 2.29077148 0.00561523 C3.53697266 0.00464844 3.53697266 0.00464844 4.80834961 0.00366211 C5.66750977 0.02364258 6.52666992 0.04362305 7.41186523 0.06420898 C8.27489258 0.05711914 9.13791992 0.0500293 10.02709961 0.04272461 C16.34589324 0.10655081 16.34589324 0.10655081 18.55615234 1.84130859 C21.30750595 5.37386587 21.04477061 9.07283303 21.09936523 13.37670898 C21.12514648 14.59100586 21.15092773 15.80530273 21.17749023 17.05639648 C20.79979546 21.02219159 19.68474172 23.6663325 16.84936523 26.50170898 C13.7547153 26.80700511 10.6447294 26.78005663 7.53686523 26.81420898 C6.23458984 26.85771484 6.23458984 26.85771484 4.90600586 26.90209961 C4.06618164 26.91047852 3.22635742 26.91885742 2.36108398 26.92749023 C1.20805786 26.94936401 1.20805786 26.94936401 0.03173828 26.97167969 C-2.15063477 26.50170898 -2.15063477 26.50170898 -3.93847656 24.50439453 C-7.07763761 21.66248546 -10.03323822 21.97077073 -14.05688477 22.03295898 C-14.81859985 22.02590942 -15.58031494 22.01885986 -16.3651123 22.01159668 C-18.79396264 21.98957616 -21.22171381 21.99256504 -23.65063477 22.00170898 C-26.84914738 22.01375015 -30.04601637 22.00005941 -33.24438477 21.97045898 C-34.34296814 21.98743835 -34.34296814 21.98743835 -35.46374512 22.00476074 C-38.93618293 21.97037614 -40.79998819 21.772497 -43.58618164 19.62084961 C-45.46423943 17.07691365 -46.07513715 15.67260879 -46.15063477 12.50170898 C-43.87352633 6.86315477 -43.87352633 6.86315477 -41.15063477 5.50170898 C-38.57318895 5.39343017 -36.01791032 5.3403834 -33.43969727 5.32592773 C-31.86937136 5.30272976 -30.29905881 5.27861243 -28.72875977 5.25366211 C-26.25112973 5.21854106 -23.77399131 5.18920008 -21.29614258 5.17578125 C-18.90588778 5.16030033 -16.51707168 5.12009395 -14.12719727 5.07592773 C-13.38853424 5.07783615 -12.64987122 5.07974457 -11.88882446 5.08171082 C-8.38560381 4.998463 -6.57964339 4.88898158 -3.9296875 2.49682617 C-2.15063477 0.50170898 -2.15063477 0.50170898 0 0 Z " fill="#75DBAD" transform="translate(453.150634765625,77.498291015625)"/>
<path d="M0 0 C4.94754234 2.84458286 7.84443678 7.09581034 9.625 12.4375 C10.57416973 25.08701198 10.57416973 25.08701198 6.625 30.4375 C1.86373927 35.30456652 -2.20738276 38.06168101 -9.0625 38.875 C-14.34557237 38.74418107 -19.10545445 36.45316414 -23.375 33.4375 C-24.6640625 31.265625 -24.6640625 31.265625 -25.375 29.4375 C-26.035 29.4375 -26.695 29.4375 -27.375 29.4375 C-29.96883858 23.23866544 -31.27765016 18.02090301 -29.375 11.4375 C-26.88961669 5.85281399 -23.81100592 2.39185104 -18.375 -0.5625 C-12.46189677 -2.53353441 -5.74337675 -2.55990506 0 0 Z " fill="#5CA2BB" transform="translate(502.375,132.5625)"/>
<path d="M0 0 C1.71725784 -0.01441132 1.71725784 -0.01441132 3.46920776 -0.02911377 C4.70671783 -0.03336365 5.94422791 -0.03761353 7.21923828 -0.04199219 C8.49050568 -0.04769226 9.76177307 -0.05339233 11.07156372 -0.05926514 C13.76324036 -0.06871852 16.45480541 -0.07561375 19.14648438 -0.07910156 C22.58867877 -0.08458438 26.03047723 -0.10861218 29.47254753 -0.13707352 C32.76308101 -0.16022182 36.05363477 -0.16215088 39.34423828 -0.16699219 C41.19443069 -0.18551239 41.19443069 -0.18551239 43.08200073 -0.20440674 C44.23314362 -0.20140564 45.3842865 -0.19840454 46.5703125 -0.1953125 C48.08563065 -0.20078094 48.08563065 -0.20078094 49.63156128 -0.20635986 C52.89093296 0.22403889 54.77299327 1.23430998 57.41455078 3.16113281 C58.96041954 6.25287033 58.70814599 8.75542834 58.41455078 12.16113281 C56.05929772 15.35754768 54.23702704 16.45069144 50.41455078 17.16113281 C48.63917172 17.2561872 46.86067077 17.29915097 45.08276367 17.30639648 C43.48574364 17.31596626 43.48574364 17.31596626 41.85646057 17.32572937 C40.13918007 17.32739861 40.13918007 17.32739861 38.38720703 17.32910156 C36.61560463 17.33409416 36.61560463 17.33409416 34.80821228 17.33918762 C32.31086618 17.34424939 29.81351333 17.34659618 27.31616211 17.34643555 C23.49532949 17.34862235 19.67478545 17.36678721 15.85400391 17.38574219 C13.4275726 17.38867618 11.00113993 17.39066094 8.57470703 17.39160156 C6.86046288 17.40237984 6.86046288 17.40237984 5.11158752 17.41337585 C4.04375534 17.41029922 2.97592316 17.4072226 1.87573242 17.40405273 C0.9395961 17.40547775 0.00345978 17.40690277 -0.96104431 17.40837097 C-4.55485538 17.06980765 -7.3894703 15.9447052 -10.39794922 13.97363281 C-12.32662009 11.02987201 -11.94515431 8.57833122 -11.58544922 5.16113281 C-8.80291982 0.12607961 -5.39070573 0.03649315 0 0 Z " fill="#86E4E7" transform="translate(105.58544921875,477.8388671875)"/>
<path d="M0 0 C3.88397689 1.55002747 6.02979619 4.00476621 8.75 7.125 C9.54921875 8.03507812 10.3484375 8.94515625 11.171875 9.8828125 C11.77515625 10.58148438 12.3784375 11.28015625 13 12 C11.63733356 16.03805866 9.8590849 18.54368118 6.9375 21.625 C2.0510394 26.90237745 -2.48123767 32.40754884 -7 38 C-8.68465026 40.06484622 -10.37369374 42.12604634 -12.0625 44.1875 C-12.81660156 45.10917969 -13.57070312 46.03085937 -14.34765625 46.98046875 C-14.89292969 47.64691406 -15.43820313 48.31335938 -16 49 C-19.90285767 47.41332422 -22.33520982 44.86649519 -25.25 41.875 C-26.14203125 40.96492188 -27.0340625 40.05484375 -27.953125 39.1171875 C-28.62859375 38.41851562 -29.3040625 37.71984375 -30 37 C-28.59160505 32.70554982 -26.54145224 30.12953521 -23.4375 26.875 C-19.96080219 23.15353467 -16.63504439 19.40628308 -13.4375 15.4375 C-9.14437033 10.11708573 -4.62120133 5.03634471 0 0 Z " fill="#E24433" transform="translate(110,302)"/>
<path d="M0 0 C1.58962555 0.00848969 1.58962555 0.00848969 3.21136475 0.01715088 C6.59449528 0.0395326 9.97656484 0.08973402 13.359375 0.140625 C15.65363053 0.1606876 17.94790267 0.17893879 20.2421875 0.1953125 C25.86499182 0.23940357 31.48700356 0.30844507 37.109375 0.390625 C37.109375 5.670625 37.109375 10.950625 37.109375 16.390625 C30.34672316 16.48947195 23.58449142 16.56208435 16.82128906 16.61035156 C14.52043331 16.63047188 12.21962871 16.65777134 9.91894531 16.69238281 C6.61250183 16.74088112 3.30673415 16.76358978 0 16.78125 C-1.02929626 16.80189514 -2.05859253 16.82254028 -3.11907959 16.84381104 C-10.25583224 16.84605544 -10.25583224 16.84605544 -13.53808594 14.49121094 C-14.99263354 12.23219874 -15.43227985 11.05653548 -15.390625 8.390625 C-15.40609375 7.400625 -15.40609375 7.400625 -15.421875 6.390625 C-13.39438227 -1.24228881 -6.41780203 -0.12872526 0 0 Z " fill="#87E4E8" transform="translate(416.890625,22.609375)"/>
<path d="M0 0 C3.64464889 1.13109793 5.77655945 2.42248349 8.71728516 4.74365234 C10.5551524 6.0744244 12.31205839 7.02200967 14.36328125 7.98046875 C18.59824984 10.05038831 22.47194304 12.49103518 26.375 15.125 C27.34373047 15.76308594 27.34373047 15.76308594 28.33203125 16.4140625 C31.78162423 18.72323563 34.80162939 21.04495933 37.625 24.125 C36.2328125 25.1459375 36.2328125 25.1459375 34.8125 26.1875 C31.31113361 29.06805675 30.11868977 31.89287899 28.625 36.125 C25.47388661 35.50391353 23.30127851 34.44317542 20.6484375 32.6484375 C19.89973389 32.14578369 19.15103027 31.64312988 18.37963867 31.12524414 C17.20171753 30.32074829 17.20171753 30.32074829 16 29.5 C14.79210815 28.68293579 14.79210815 28.68293579 13.55981445 27.84936523 C11.96417905 26.76787008 10.37045565 25.68354772 8.77880859 24.59619141 C6.98882357 23.37351517 5.19247209 22.16016561 3.39453125 20.94921875 C-7.9393508 13.21611617 -7.9393508 13.21611617 -9 8.125 C-7.90453296 2.8667582 -5.44474189 0.20165711 0 0 Z " fill="#88E4E6" transform="translate(358.375,264.875)"/>
<path d="M0 0 C4.76912207 -0.04595514 9.53747342 -0.08576684 14.30664062 -0.10986328 C15.92841192 -0.11991023 17.55016516 -0.13355015 19.171875 -0.15087891 C21.50525374 -0.17518493 23.8383926 -0.18649613 26.171875 -0.1953125 C27.25647003 -0.21079636 27.25647003 -0.21079636 28.36297607 -0.22659302 C32.06553548 -0.22741505 34.89638253 -0.13028802 38 2 C40.09679403 4.69587803 39.99510821 6.092944 39.8125 9.5625 C38.71942446 14.18705036 38.71942446 14.18705036 36 16 C32.24650158 17.28852271 28.54513744 17.11327435 24.609375 17.09765625 C23.90476135 17.0962413 23.20014771 17.09482635 22.47418213 17.09336853 C20.23274416 17.08778933 17.99140757 17.07524073 15.75 17.0625 C14.22656395 17.05748231 12.70312632 17.05291987 11.1796875 17.04882812 C7.4530549 17.03867934 3.7266404 17.01910009 0 17 C0 11.39 0 5.78 0 0 Z " fill="#86E4E7" transform="translate(46,478)"/>
<path d="M0 0 C4.91223385 -0.0919129 9.82147752 -0.17151843 14.73388672 -0.21972656 C16.40423702 -0.23982393 18.07451713 -0.26710683 19.74462891 -0.30175781 C22.1476372 -0.35036119 24.54971434 -0.37298656 26.953125 -0.390625 C27.69806213 -0.41127014 28.44299927 -0.43191528 29.21051025 -0.45318604 C32.7184859 -0.45469918 34.62229358 -0.28881659 37.44824219 1.87207031 C39.27743819 4.38045174 39.84874704 5.8993144 40 9 C38.93600927 12.81263347 38.3748349 13.75011007 35 16 C32.31405085 16.17162025 29.73455099 16.23224552 27.05078125 16.1953125 C25.89185616 16.19106766 25.89185616 16.19106766 24.70951843 16.18673706 C22.24368757 16.17554878 19.77822094 16.15044703 17.3125 16.125 C15.63997921 16.11496843 13.96745272 16.10584289 12.29492188 16.09765625 C8.19636162 16.077316 4.09858815 16.03816585 0 16 C0 10.72 0 5.44 0 0 Z " fill="#86E5E8" transform="translate(100,432)"/>
<path d="M0 0 C0.77403168 0.00141495 1.54806335 0.0028299 2.34555054 0.00428772 C4.82155192 0.00989222 7.29746338 0.02244542 9.7734375 0.03515625 C11.45051953 0.04017067 13.12760297 0.04473368 14.8046875 0.04882812 C18.91933347 0.05901289 23.03378465 0.07858731 27.1484375 0.09765625 C27.1484375 5.37765625 27.1484375 10.65765625 27.1484375 16.09765625 C22.23620365 16.18956915 17.32695998 16.26917468 12.41455078 16.31738281 C10.74420048 16.33748018 9.07392037 16.36476308 7.40380859 16.39941406 C5.0008003 16.44801744 2.59872316 16.47064281 0.1953125 16.48828125 C-0.54962463 16.50892639 -1.29456177 16.52957153 -2.06207275 16.55084229 C-5.57167648 16.55235613 -7.4721448 16.38885137 -10.29589844 14.22167969 C-12.16162102 11.67431835 -12.77616447 10.26437368 -12.8515625 7.09765625 C-9.91228023 -0.18056651 -7.29751249 -0.04986966 0 0 Z " fill="#87E5E8" transform="translate(419.8515625,82.90234375)"/>
<path d="M0 0 C5.64719541 1.32875186 9.60098051 2.75426774 13.1953125 7.6171875 C16.65596144 13.44946998 16.78304901 19.37204948 16 26 C14.6875 29.5625 14.6875 29.5625 13 32 C12.4121875 32.99 12.4121875 32.99 11.8125 34 C10 35 10 35 6.125 34.4375 C0.78881148 32.80536908 -2.48328451 30.25801001 -5.3125 25.4375 C-7.84221383 19.90310565 -8.33996502 13.60156452 -6.19921875 7.84765625 C-4.5614907 4.85674749 -2.60198102 2.21168387 0 0 Z " fill="#75B1CB" transform="translate(496,131)"/>
<path d="M0 0 C7.54556175 0.52038357 11.88844118 2.68997618 17.3125 8.0625 C20.97115081 12.54916125 21.38744656 17.34973771 21 23 C20.26678642 25.91452397 19.29100123 28.2630774 18 31 C11.78058301 30.9712064 7.52910328 29.84149638 2.734375 25.78515625 C-1.06901815 21.87040249 -2.93277702 18.4904515 -3.08203125 12.9609375 C-2.77434156 8.1888446 -2.41683759 4.19451152 0 0 Z " fill="#75B0CA" transform="translate(405,286)"/>
<path d="M0 0 C1.051875 -0.00515625 2.10375 -0.0103125 3.1875 -0.015625 C4.280625 -0.00015625 5.37375 0.0153125 6.5 0.03125 C8.1396875 0.00804687 8.1396875 0.00804687 9.8125 -0.015625 C10.864375 -0.01046875 11.91625 -0.0053125 13 0 C14.43859375 0.00676758 14.43859375 0.00676758 15.90625 0.01367188 C19.22244233 0.67541206 20.40251749 1.93334073 22.5 4.53125 C23.59310383 7.57632494 23.62181739 9.0947377 22.75 12.21875 C21.5 14.53125 21.5 14.53125 18.5 16.53125 C14.72376714 16.99366172 10.92652457 16.90157982 7.125 16.90625 C6.0834375 16.93074219 5.041875 16.95523437 3.96875 16.98046875 C-0.6064634 16.99802072 -3.6403582 17.00894569 -7.69140625 14.7578125 C-9.59274949 12.41706596 -10.16107258 11.5000241 -10.0625 8.53125 C-10.06378906 7.87125 -10.06507813 7.21125 -10.06640625 6.53125 C-8.60187816 1.35995083 -4.97472933 0.02340262 0 0 Z " fill="#87E5E8" transform="translate(159.5,431.46875)"/>
<path d="M0 0 C1.3602832 -0.03673828 1.3602832 -0.03673828 2.74804688 -0.07421875 C9.36173318 -0.10341825 9.36173318 -0.10341825 12.66015625 2.1484375 C14.12641332 4.47647798 14.60504634 5.65203422 14.5625 8.375 C14.5728125 9.035 14.583125 9.695 14.59375 10.375 C13.76050462 13.5119238 12.75772536 14.5240621 10.0625 16.375 C6.71929878 16.96731145 3.44950262 16.9330629 0.0625 16.875 C-1.29101562 16.89820313 -1.29101562 16.89820313 -2.671875 16.921875 C-9.2425711 16.88299514 -9.2425711 16.88299514 -12.5078125 14.49609375 C-14.19817534 11.98826035 -14.78991744 10.4004424 -14.9375 7.375 C-12.68265802 -0.70485041 -7.16104285 0.01013594 0 0 Z " fill="#86E5E8" transform="translate(376.9375,22.625)"/>
<path d="M0 0 C0.72058594 -0.02900391 1.44117188 -0.05800781 2.18359375 -0.08789062 C5.71423175 -0.13015425 7.7111492 0.00227691 10.57421875 2.1484375 C12.59351842 4.96630152 13.05432216 6.84928563 13.125 10.3125 C10.99456522 14.87771739 10.99456522 14.87771739 8.125 16.3125 C5.48382311 16.48954592 2.89303404 16.58991548 0.25 16.625 C-0.47058594 16.65400391 -1.19117188 16.68300781 -1.93359375 16.71289062 C-5.48856578 16.75544554 -7.45967542 16.62978943 -10.32421875 14.44140625 C-12.18210395 11.89090894 -12.799647 10.47732589 -12.875 7.3125 C-9.96232585 0.10016402 -7.27816036 0.09661275 0 0 Z " fill="#87E5E8" transform="translate(391.875,82.6875)"/>
<path d="M0 0 C1.32 0.66 2.64 1.32 4 2 C3.01 2.33 2.02 2.66 1 3 C-0.06511524 4.88448463 -0.06511524 4.88448463 -1 7 C-1.83373216 8.09057065 -2.7084995 9.15073668 -3.6171875 10.1796875 C-4.13619629 10.77241455 -4.65520508 11.3651416 -5.18994141 11.97583008 C-6.02404541 12.91591919 -6.02404541 12.91591919 -6.875 13.875 C-8.04740632 15.20916871 -9.21926791 16.54381626 -10.390625 17.87890625 C-10.98810547 18.55840332 -11.58558594 19.23790039 -12.20117188 19.93798828 C-13.95924196 21.95327872 -15.69474391 23.98550656 -17.421875 26.02734375 C-17.96086426 26.66365723 -18.49985352 27.2999707 -19.05517578 27.95556641 C-20.08223021 29.17046158 -21.10675155 30.38750388 -22.12841797 31.60693359 C-24.30544394 34.17279494 -26.17924952 36.11949968 -29 38 C-29.495 36.515 -29.495 36.515 -30 35 C-28.4453125 32.65234375 -28.4453125 32.65234375 -26.125 29.9375 C-25.29226562 28.95652344 -24.45953125 27.97554688 -23.6015625 26.96484375 C-20.52826725 23.46239466 -17.41327988 20.00140338 -14.2734375 16.55859375 C-11.0406763 12.92034876 -7.99186896 9.14220237 -4.9453125 5.34765625 C-3.37139584 3.44821064 -1.78331404 1.69919545 0 0 Z " fill="#F86E59" transform="translate(110,302)"/>
</svg>
