<?xml version="1.0" encoding="UTF-8"?>
<svg version="1.1" xmlns="http://www.w3.org/2000/svg" width="664" height="376">
<path d="M0 0 C3 3.56207675 3 3.56207675 3 6 C3.5775 6.20625 4.155 6.4125 4.75 6.625 C7.84477636 8.51625222 9.1918763 10.90035937 11 14 C11 14.66 11 15.32 11 16 C11.97582031 15.52046875 12.95164063 15.0409375 13.95703125 14.546875 C18.19175236 12.73852888 22.12312388 12.40833596 26.6875 12.25 C27.47479492 12.21616211 28.26208984 12.18232422 29.07324219 12.14746094 C46.88537088 11.51469034 46.88537088 11.51469034 54 16 C54.72316406 16.37769531 55.44632813 16.75539062 56.19140625 17.14453125 C65.4311601 22.16205017 73.59489946 29.34822748 78 39 C78.66 40.11375 79.32 41.2275 80 42.375 C83.7478137 49.85621274 85.41852987 59.88658747 84.75 68.1875 C84.8325 69.445625 84.915 70.70375 85 72 C87.77176707 74.46338757 87.77176707 74.46338757 89.9765625 75.68359375 C93.61828035 78.05281945 96.5444952 81.43242767 99 85 C99 85.99 99 86.98 99 88 C99.66 88 100.32 88 101 88 C107.50597132 100.79086595 109.05334029 115.14915718 105 129 C102.21537874 136.47230026 96.98968213 143.74036223 91 149 C90.34 149 89.68 149 89 149 C89 149.66 89 150.32 89 151 C86.8967433 151.98111975 84.79236311 152.95983134 82.6875 153.9375 C81.51574219 154.48277344 80.34398437 155.02804687 79.13671875 155.58984375 C74.10863928 157.85028794 70.01851175 158.15058986 64.58898926 158.15390015 C63.720307 158.1582824 62.85162475 158.16266465 61.95661879 158.1671797 C59.03422806 158.18057636 56.11186751 158.18674859 53.18945312 158.19287109 C51.09850935 158.20077155 49.00756694 158.20904047 46.91662598 158.21765137 C40.03818059 158.24388414 33.15972908 158.25918308 26.28125 158.2734375 C23.91308081 158.2787972 21.54491166 158.28417471 19.17674255 158.28956985 C9.3235451 158.31120293 -0.52965071 158.32993836 -10.38286591 158.34119225 C-24.49958469 158.35742171 -38.61602779 158.39057056 -52.73264265 158.44759309 C-62.65975684 158.48632324 -72.5867974 158.50582876 -82.51398516 158.51111281 C-88.44169461 158.51476282 -94.3691101 158.52674686 -100.29673767 158.55921555 C-105.87822301 158.58934887 -111.45923735 158.59558897 -117.04078674 158.58383179 C-119.0841345 158.58361148 -121.12750444 158.5918811 -123.17077637 158.60948563 C-133.86459738 158.69657036 -142.58353966 158.72181919 -152 153 C-153.19625 152.46375 -154.3925 151.9275 -155.625 151.375 C-158 150 -158 150 -159 147 C-159.5775 146.71125 -160.155 146.4225 -160.75 146.125 C-168.75579108 142.12210446 -173.4344676 132.50812149 -176.20703125 124.3828125 C-179.92865552 108.50632672 -177.71554686 94.78824644 -170.5 80.30078125 C-169 78 -169 78 -166 77 C-166 76.01 -166 75.02 -166 74 C-156.70960546 64.56830668 -146.97511137 59.65579071 -133.97607422 58.33837891 C-130.00633042 57.82924989 -127.79799215 57.25777016 -125.2109375 54.09375 C-124.48132813 53.0728125 -123.75171875 52.051875 -123 51 C-114.6756347 43.10527936 -103.45457166 38.73624342 -92 39 C-89.6875 39.4921875 -89.6875 39.4921875 -88 40 C-87.90203125 39.09378906 -87.8040625 38.18757813 -87.703125 37.25390625 C-86.79141408 29.82660605 -85.53633962 23.60300914 -82 17 C-81.33147697 15.66759646 -80.66429314 14.33451746 -80 13 C-79.34 13 -78.68 13 -78 13 C-77.7525 12.0925 -77.505 11.185 -77.25 10.25 C-75.95193799 6.87503877 -74.78028159 5.25897879 -72 3 C-71.34 3 -70.68 3 -70 3 C-69.773125 2.401875 -69.54625 1.80375 -69.3125 1.1875 C-67.62841765 -1.61930392 -65.86856939 -2.46564893 -63 -4 C-62.26007813 -4.47050781 -61.52015625 -4.94101563 -60.7578125 -5.42578125 C-41.51181208 -16.41181265 -16.96253205 -14.89583275 0 0 Z M-49 4 C-49.721875 4.31582031 -50.44375 4.63164062 -51.1875 4.95703125 C-60.40350459 9.30682652 -65.22445764 15.08381398 -70 24 C-70.40476562 24.72960937 -70.80953125 25.45921875 -71.2265625 26.2109375 C-74.92335691 33.15240039 -75.14272312 39.63655484 -75.0625 47.375 C-75.05798828 48.20644531 -75.05347656 49.03789062 -75.04882812 49.89453125 C-75.03713164 51.92971897 -75.01919935 53.96486923 -75 56 C-75.81082031 55.855625 -76.62164062 55.71125 -77.45703125 55.5625 C-94.49305041 52.65699447 -94.49305041 52.65699447 -110.1953125 58.546875 C-114.2898749 61.96152851 -117.25225627 65.4556546 -120 70 C-122 72 -122 72 -124.546875 72.01953125 C-125.60390625 71.95121094 -126.6609375 71.88289063 -127.75 71.8125 C-135.40238287 71.69333052 -142.22031169 73.42011243 -149 77 C-151.1674049 79.43962782 -151.1674049 79.43962782 -153 82 C-153.68835938 82.50015625 -154.37671875 83.0003125 -155.0859375 83.515625 C-160.15988835 87.45052566 -162.84550391 95.91265699 -164 102 C-164.4953721 111.51635869 -164.33721949 119.60105365 -159.1875 127.875 C-158.84396484 128.45507812 -158.50042969 129.03515625 -158.14648438 129.6328125 C-156.11474044 132.95314077 -156.11474044 132.95314077 -152.796875 134.765625 C-152.20390625 134.84296875 -151.6109375 134.9203125 -151 135 C-150.33333333 136.33333333 -149.66666667 137.66666667 -149 139 C-142.76750807 143.62985115 -135.85911926 144.29724332 -128.36698914 144.26742554 C-127.52276848 144.27195665 -126.67854783 144.27648776 -125.80874473 144.28115618 C-122.99312695 144.29376904 -120.17770337 144.29218183 -117.36206055 144.29052734 C-115.33786776 144.29651452 -113.31367726 144.30332051 -111.28948975 144.31088257 C-105.79972624 144.32853014 -100.3100251 144.33323742 -94.82023597 144.33451414 C-91.38800711 144.33593697 -87.95579404 144.34020906 -84.52356911 144.34550858 C-72.54280213 144.36400453 -60.56207961 144.3721797 -48.58129883 144.37060547 C-37.42445167 144.3694041 -26.26779797 144.39050682 -15.11099976 144.4220928 C-5.52266205 144.44826818 4.06561252 144.45897224 13.65398568 144.45769465 C19.37642642 144.4571854 25.09869517 144.46284817 30.82110023 144.48405075 C36.20480073 144.50345434 41.58816553 144.50354292 46.97187805 144.48901749 C48.94307128 144.48693096 50.91428564 144.49162091 52.88544273 144.5037384 C68.83252996 144.799245 68.83252996 144.799245 82.75 137.75 C83.86375 136.38875 83.86375 136.38875 85 135 C85.50273437 134.47019531 86.00546875 133.94039062 86.5234375 133.39453125 C92.16904517 126.93650686 93.86957851 118.83418793 94.05859375 110.37890625 C93.64013207 105.24162132 92.09386666 100.69026132 90 96 C89.34 95.67 88.68 95.34 88 95 C87.566875 94.2575 87.13375 93.515 86.6875 92.75 C82.77925766 86.38101248 77.47662198 83.31591757 71 80 C71.03480469 78.74445313 71.06960938 77.48890625 71.10546875 76.1953125 C71.40439975 63.31326654 71.40439975 63.31326654 68 51 C67.7215625 50.236875 67.443125 49.47375 67.15625 48.6875 C63.3657633 39.01522358 56.12509977 31.8577737 47 27 C38.00140471 23.82880829 27.22472061 24.25842646 18.25 27.25 C17.1775 27.8275 16.105 28.405 15 29 C13.18897242 29.89880628 11.37638389 30.79447209 9.5625 31.6875 C8.04066567 32.4563552 6.5194799 33.22650218 5 34 C4.74863281 33.14535156 4.49726563 32.29070312 4.23828125 31.41015625 C2.9117732 27.7570284 1.22805259 24.74218078 -0.8125 21.4375 C-1.47894531 20.34308594 -2.14539063 19.24867188 -2.83203125 18.12109375 C-4.9827122 15.0248882 -7.26171052 12.57954806 -10 10 C-10.48082031 9.46761719 -10.96164063 8.93523437 -11.45703125 8.38671875 C-19.21290732 1.41624785 -28.39415144 0.34760749 -38.2734375 0.49609375 C-42.31814996 1.04302028 -45.33554282 2.23336432 -49 4 Z " fill="#666664" transform="translate(189,127)"/>
<path d="M0 0 C1.24330078 0.02513672 1.24330078 0.02513672 2.51171875 0.05078125 C8.33393283 0.37068312 12.58350864 1.92640561 17.67578125 4.74609375 C19.98818749 6.0563322 19.98818749 6.0563322 22.53515625 6.98046875 C25.05481312 8.02267231 26.95585414 9.23325431 29.125 10.875 C29.78757812 11.36742187 30.45015625 11.85984375 31.1328125 12.3671875 C33.10928732 14.09556925 34.56735253 15.80208742 36 18 C36 18.66 36 19.32 36 20 C36.99 20.33 37.98 20.66 39 21 C40.1875 24.0625 40.1875 24.0625 41 27 C45.38427092 26.51285879 49.62921259 25.88815497 53.9375 24.9375 C66.11682116 22.50163577 78.84836117 24.20723073 89.6875 30.375 C98.97096269 36.58310051 106.95628651 44.50381776 111 55 C111.53625 55.99 112.0725 56.98 112.625 58 C114.72951754 62.59167464 115.071371 67.15410092 114.96484375 72.15625 C114.58976391 80.47248518 114.58976391 80.47248518 118.25390625 87.51953125 C120.93861842 89.3493968 120.93861842 89.3493968 123.75 90.67578125 C126 92 126 92 126.8125 94.16796875 C126.9053125 95.07482422 126.9053125 95.07482422 127 96 C127.66 96 128.32 96 129 96 C137.09812702 106.39898762 139.06487335 118.12078854 138 131 C136.26757753 141.53262644 132.36413238 151.12734697 125 159 C122.125 160.5 122.125 160.5 120 161 C120 161.66 120 162.32 120 163 C108.06277691 170.52564065 96.63908284 170.44333474 82.93310547 170.41992188 C80.8984989 170.42726963 78.8638965 170.4358579 76.82929993 170.44558716 C71.32275791 170.46774213 65.81636583 170.47073669 60.30978537 170.46883965 C55.70049445 170.46871962 51.09123493 170.47729723 46.48195279 170.48561716 C35.59797311 170.50483118 24.71407011 170.507743 13.83007812 170.50097656 C2.63404165 170.49434356 -8.56166472 170.51717512 -19.75763428 170.55429029 C-29.39624198 170.58507331 -39.03474399 170.59633782 -48.67339981 170.59245348 C-54.4183757 170.59039416 -60.16309486 170.59573796 -65.90802383 170.62034607 C-71.31729546 170.64275184 -76.72603427 170.64062104 -82.13530922 170.62041855 C-84.10882171 170.61703239 -86.08237103 170.62199289 -88.05583382 170.63640213 C-106.13633597 170.75919665 -121.56875689 168.27616811 -135.015625 155.01171875 C-144.5709682 143.9815291 -147.86506162 129.22545778 -147 115 C-145.14652143 102.55970317 -139.37050497 88.85690374 -129.3125 80.875 C-124.81109373 77.69253129 -120.01701184 75.26106826 -115 73 C-114.05125 72.566875 -113.1025 72.13375 -112.125 71.6875 C-107.12082693 70.58658192 -102.10197892 70.85139867 -97 71 C-96.70867187 70.39800781 -96.41734375 69.79601562 -96.1171875 69.17578125 C-91.87763525 60.91903089 -84.14106301 56.24119181 -75.5703125 53.11328125 C-70.10049621 51.74096079 -64.60799748 51.78926106 -59 52 C-58.731875 51.195625 -58.46375 50.39125 -58.1875 49.5625 C-57.5996875 47.7990625 -57.5996875 47.7990625 -57 46 C-56.67322266 44.98486328 -56.67322266 44.98486328 -56.33984375 43.94921875 C-55.58403085 41.6239583 -54.79773894 39.31120626 -54 37 C-53.72414063 36.18015625 -53.44828125 35.3603125 -53.1640625 34.515625 C-50.80787723 28.03108092 -47.40825567 23.2571773 -43 18 C-42.49597656 17.25492188 -41.99195313 16.50984375 -41.47265625 15.7421875 C-40.74369141 14.87980469 -40.74369141 14.87980469 -40 14 C-39.01 14 -38.02 14 -37 14 C-36.34 12.68 -35.68 11.36 -35 10 C-34.34 10 -33.68 10 -33 10 C-33 9.34 -33 8.68 -33 8 C-30.81570229 7.02424796 -28.63008587 6.05183367 -26.44140625 5.0859375 C-24.40986764 4.18230913 -22.39073244 3.2508582 -20.375 2.3125 C-13.71853165 -0.27612658 -7.039032 -0.2216187 0 0 Z M-34.72265625 29.23828125 C-36.75564101 32.04218378 -38.38126281 34.93596175 -40 38 C-40.34853027 38.63510498 -40.69706055 39.27020996 -41.05615234 39.92456055 C-42.07406352 42.16285929 -42.48934122 44.09112884 -42.8515625 46.51953125 C-42.98046875 47.37740234 -43.109375 48.23527344 -43.2421875 49.11914062 C-43.43167969 50.45235352 -43.43167969 50.45235352 -43.625 51.8125 C-43.7590625 52.68970703 -43.893125 53.56691406 -44.03125 54.47070312 C-44.749459 59.36991455 -45.14857461 64.04976404 -45 69 C-46.05058594 68.69964844 -47.10117187 68.39929688 -48.18359375 68.08984375 C-58.44433392 65.2595478 -65.63103166 63.67527952 -75.5625 68.4375 C-81.38402499 71.80742503 -85.43687567 76.32350393 -89 82 C-89 82.66 -89 83.32 -89 84 C-90.86591797 84.00386719 -90.86591797 84.00386719 -92.76953125 84.0078125 C-104.55174048 84.21148486 -112.47901698 85.63830285 -121.8125 93.3125 C-129.56004063 102.83090706 -134.0109384 112.46436388 -133 125 C-132.21398962 131.79025635 -130.583642 137.74056463 -126 143 C-125.34 143 -124.68 143 -124 143 C-123.835 143.70125 -123.67 144.4025 -123.5 145.125 C-120.65217758 150.58332631 -115.76487051 153.5186588 -110.07116699 155.56311035 C-101.67635178 158.00252359 -92.86682479 157.43494047 -84.20507812 157.41992188 C-82.20014475 157.42726959 -80.19521559 157.43585785 -78.19029236 157.44558716 C-72.76679461 157.46773412 -67.34344909 157.47073738 -61.91991234 157.46883965 C-57.38461547 157.46871967 -52.84935054 157.47729469 -48.3140626 157.48561716 C-37.61251079 157.50482545 -26.91103698 157.5077439 -16.20947266 157.50097656 C-5.18372629 157.49433245 5.84168583 157.51722113 16.86736441 157.55429029 C26.3496167 157.58500897 35.83176156 157.59634511 45.3140626 157.59245348 C50.97054025 157.59038882 56.62675752 157.59582228 62.28318787 157.62034607 C67.60215912 157.64264726 72.9205871 157.64070704 78.23956108 157.62041855 C80.18656781 157.61701489 82.13361137 157.62206972 84.08056831 157.63640213 C95.75180986 157.7163635 104.74332746 157.57659944 113.875 149.4375 C114.57625 148.633125 115.2775 147.82875 116 147 C116.64710938 146.42765625 117.29421875 145.8553125 117.9609375 145.265625 C122.6373851 140.06957211 125.17996763 131.45035849 125.625 124.5 C125.20536243 118.13349857 122.8506353 111.65200036 120 106 C117.48191509 103.72833303 117.48191509 103.72833303 115 102 C114.71125 101.319375 114.4225 100.63875 114.125 99.9375 C112.28972583 96.77675005 109.32480949 96.23975947 106 95 C104.33202004 94.336626 102.6650808 93.67061774 101 93 C101.16048828 91.16888672 101.16048828 91.16888672 101.32421875 89.30078125 C102.4814357 74.35441081 101.74779202 62.17525773 92 50 C86.20467148 43.50485823 80.29387978 40.40658479 72 38 C71.01 37.67 70.02 37.34 69 37 C62.71931184 36.36128595 57.64307061 37.46851579 51.6875 39.3125 C50.64686401 39.63178467 50.64686401 39.63178467 49.58520508 39.95751953 C45.87373467 41.16779142 43.00152179 42.51403372 40 45 C37.75 45.6875 37.75 45.6875 36 46 C35.71382812 45.27296875 35.42765625 44.5459375 35.1328125 43.796875 C30.08979366 31.34583537 23.01894551 21.58787225 11 15 C6.36417403 13.59619354 1.49334333 13.77991965 -3.3125 13.75 C-4.53743164 13.7190625 -4.53743164 13.7190625 -5.78710938 13.6875 C-18.13010349 13.60881956 -27.07580667 19.81210933 -34.72265625 29.23828125 Z " fill="#6A6A69" transform="translate(512,37)"/>
<path d="M0 0 C12.94008995 -1.33352072 12.94008995 -1.33352072 17.2265625 1.44140625 C23.2972299 9.64459014 23.92514763 21.86040975 24.3125 31.75 C24.44960391 34.58361884 24.44960391 34.58361884 25 37 C27.52218792 39.29535723 27.52218792 39.29535723 31 41 C40.01713219 48.90609269 46.34905348 60.76156663 47.203125 72.8828125 C47.36552746 84.11564934 44.29438424 92.75451475 40 103 C39.34 103 38.68 103 38 103 C37.6596875 103.8353125 37.6596875 103.8353125 37.3125 104.6875 C35.6296426 107.65253447 33.46378626 109.65353689 31 112 C30.34 112.721875 29.68 113.44375 29 114.1875 C26.70360662 116.2686065 24.91938982 116.96199473 22 118 C21.0485576 118.47262559 21.0485576 118.47262559 20.07789415 118.95479918 C14.49996423 121.70470995 10.03749739 122.57685999 3.86073303 122.50793457 C2.98621866 122.51417453 2.11170429 122.5204145 1.21068949 122.52684355 C-1.69567747 122.54269376 -4.60119641 122.53020066 -7.50756836 122.51757812 C-9.60102321 122.52300282 -11.69447425 122.53012743 -13.78791809 122.53881836 C-19.45739293 122.55701425 -25.12657578 122.54999918 -30.79605556 122.53730202 C-36.7384396 122.52715372 -42.68079915 122.53657291 -48.6231842 122.54284668 C-58.60226922 122.5501183 -68.58123572 122.54054863 -78.56030273 122.52148438 C-90.08415956 122.49972263 -101.60773321 122.50676403 -113.13158315 122.52879 C-123.03844525 122.54696486 -132.94522228 122.54949191 -142.85209566 122.53903532 C-148.76339739 122.53281113 -154.6745662 122.53193514 -160.5858593 122.54518127 C-166.14525868 122.55676923 -171.70429444 122.54866 -177.26365471 122.52560425 C-179.29934079 122.52033266 -181.33505768 122.52180425 -183.37073135 122.53065491 C-202.94290608 122.60787923 -202.94290608 122.60787923 -211 118 C-212.04414063 117.47277344 -213.08828125 116.94554687 -214.1640625 116.40234375 C-214.97617187 115.91894531 -215.78828125 115.43554688 -216.625 114.9375 C-217.46289062 114.45152344 -218.30078125 113.96554687 -219.1640625 113.46484375 C-219.76992188 112.98144531 -220.37578125 112.49804688 -221 112 C-221 111.01 -221 110.02 -221 109 C-221.928125 108.814375 -221.928125 108.814375 -222.875 108.625 C-225 108 -225 108 -227 106 C-227 105.01 -227 104.02 -227 103 C-227.66 103 -228.32 103 -229 103 C-234.29942125 96.02707731 -238 86.851194 -238 78 C-233.38 78 -228.76 78 -224 78 C-219 90.625 -219 90.625 -219 94 C-218.4225 94.226875 -217.845 94.45375 -217.25 94.6875 C-215 96 -215 96 -213.375 98.25 C-208.78591606 103.56367614 -203.84042327 106.88298896 -196.71539497 107.56269264 C-191.30791834 107.86687247 -185.90047566 107.82340376 -180.48657227 107.79223633 C-178.40443643 107.80201409 -176.32231118 107.81432412 -174.24020386 107.82896423 C-168.60574026 107.86049626 -162.97191967 107.85412467 -157.33741117 107.83888459 C-152.62572263 107.82971368 -147.91415069 107.8394487 -143.20246929 107.84922332 C-132.08368189 107.87210655 -120.9652048 107.86458328 -109.84643555 107.8371582 C-98.3922605 107.80935514 -86.93886727 107.8287163 -75.48475796 107.87203389 C-65.63387353 107.90785056 -55.78322966 107.91634723 -45.93228954 107.90264148 C-40.05606769 107.89461088 -34.18028355 107.89632335 -28.30410957 107.92350197 C-22.77727245 107.94770578 -17.25152031 107.9375741 -11.72475815 107.90151405 C-9.70239483 107.89388805 -7.67994556 107.89805162 -5.65764046 107.91518784 C9.95274738 108.06469898 9.95274738 108.06469898 23 100 C30.40989479 91.04743997 33.41057095 81.63271198 32.34033203 70.04248047 C31.05188484 62.30994877 26.49279979 55.7893036 20.5 50.9375 C16.8280119 48.35477702 12.90649918 46.20451714 9 44 C9.10699219 42.83984375 9.21398437 41.6796875 9.32421875 40.484375 C10.38472624 27.46206956 9.79469987 17.33537295 2.3046875 6.15625 C1.03965723 4.0655413 0.44473417 2.38637847 0 0 Z " fill="#676765" transform="translate(476,216)"/>
<path d="M0 0 C2 2 2 2 2 5 C2.66 5 3.32 5 4 5 C7 9.38461538 7 9.38461538 7 12 C7.88751953 11.58427734 7.88751953 11.58427734 8.79296875 11.16015625 C9.58316406 10.79792969 10.37335938 10.43570313 11.1875 10.0625 C11.96480469 9.70285156 12.74210938 9.34320313 13.54296875 8.97265625 C26.4019343 3.88222315 40.80083499 7.86350947 53 13 C56 14.5625 56 14.5625 58 16 C58 16.66 58 17.32 58 18 C58.556875 18.04125 59.11375 18.0825 59.6875 18.125 C62.54523747 19.20630607 63.83335858 20.93640705 65.65625 23.33203125 C67.0058002 25.09235991 67.0058002 25.09235991 68.89453125 26.73828125 C77.16576017 35.62333049 80.2961314 47.15474412 80 59 C78.60582227 59.34019152 77.20955342 59.67181779 75.8125 60 C75.03519531 60.185625 74.25789062 60.37125 73.45703125 60.5625 C70.92009775 61.01422743 68.57120097 61.07307143 66 61 C65.82984375 60.01 65.6596875 59.02 65.484375 58 C63.2273503 45.43674476 59.83076844 36.68529542 50 28 C40.75965763 22.32509991 32.83645363 19.93737362 22 21 C17.48778444 22.30431231 13.27513139 24.06669698 9 26 C7.56324854 26.6059446 6.12591228 27.21050854 4.6875 27.8125 C3.3571875 28.4003125 3.3571875 28.4003125 2 29 C-1.74889284 23.80290472 -5.18294834 18.76824864 -8 13 C-9.32869858 11.32963607 -10.66104368 9.66215268 -12 8 C-12 7.34 -12 6.68 -12 6 C-13.65 5.67 -15.3 5.34 -17 5 C-17 4.34 -17 3.68 -17 3 C-20.58417982 0.9856002 -24.36673438 -0.06914597 -28.3125 -1.125 C-28.95123047 -1.30675781 -29.58996094 -1.48851562 -30.24804688 -1.67578125 C-39.8024936 -4.25073852 -47.89761912 -2.41612136 -57 1 C-59.32206752 2.50126343 -61.00827653 4.0621069 -63 6 C-63.99 6 -64.98 6 -66 6 C-66.37125 7.11375 -66.37125 7.11375 -66.75 8.25 C-68 11 -68 11 -69.87890625 12.70703125 C-72.57271632 15.61912427 -73.8124701 18.78384912 -75.1875 22.4375 C-75.44724609 23.09298828 -75.70699219 23.74847656 -75.97460938 24.42382812 C-78.44646033 30.79187825 -79.19490261 36.56919713 -79.5625 43.3125 C-79.60568359 44.05306641 -79.64886719 44.79363281 -79.69335938 45.55664062 C-79.79870432 47.37091464 -79.89978316 49.1854355 -80 51 C-80.82242188 50.9278125 -81.64484375 50.855625 -82.4921875 50.78125 C-99.55018087 48.88605296 -99.55018087 48.88605296 -114.9375 55.1875 C-115.618125 55.785625 -116.29875 56.38375 -117 57 C-117.66 57 -118.32 57 -119 57 C-119.66 58.98 -120.32 60.96 -121 63 C-121.66 63 -122.32 63 -123 63 C-123.66 64.65 -124.32 66.3 -125 68 C-126.24136719 68.04898438 -127.48273438 68.09796875 -128.76171875 68.1484375 C-130.40366694 68.22349799 -132.04559297 68.29904439 -133.6875 68.375 C-134.50412109 68.4059375 -135.32074219 68.436875 -136.16210938 68.46875 C-140.575265 68.68315432 -143.9142671 69.20879101 -148 71 C-153.53084525 70.63732162 -158.65547229 69.43156992 -164 68 C-163.69769776 64.87090663 -163.47464082 63.41614973 -161.06640625 61.3046875 C-152.56457222 56.45028617 -144.84937096 53.77909004 -135.03125 53.40625 C-134.3609375 53.2721875 -133.690625 53.138125 -133 53 C-132.34 52.01 -131.68 51.02 -131 50 C-130.34 50 -129.68 50 -129 50 C-128.76152344 49.41347656 -128.52304688 48.82695313 -128.27734375 48.22265625 C-124.90641987 42.35704253 -117.7961417 38.94308928 -111.5 37.125 C-98.55882353 34.14705882 -98.55882353 34.14705882 -93 36 C-92.90203125 35.35675781 -92.8040625 34.71351562 -92.703125 34.05078125 C-91.44853532 26.46916604 -89.38984279 19.29714135 -87 12 C-86.34 12 -85.68 12 -85 12 C-84.79375 11.34 -84.5875 10.68 -84.375 10 C-82.50875748 5.92819814 -80.02438473 2.31203002 -77 -1 C-76.34 -1 -75.68 -1 -75 -1 C-74.773125 -1.5775 -74.54625 -2.155 -74.3125 -2.75 C-71.53169573 -7.51709303 -66.88848676 -9.78634562 -62 -12 C-61.27941406 -12.34289062 -60.55882812 -12.68578125 -59.81640625 -13.0390625 C-37.88305579 -22.79501679 -16.56395551 -15.41202575 0 0 Z " fill="#696967" transform="translate(330,39)"/>
<path d="M0 0 C1.70892588 0.45611901 3.41711229 0.91500891 5.125 1.375 C6.55199219 1.75785156 6.55199219 1.75785156 8.0078125 2.1484375 C11 3 11 3 13.6437912 4.03903198 C17.76893491 5.22016564 21.42662584 5.26540897 25.69152832 5.22705078 C26.98531237 5.22749736 26.98531237 5.22749736 28.30523348 5.22795296 C31.18861532 5.2265666 34.07174071 5.21089435 36.95507812 5.1953125 C39.02501787 5.19147328 41.09495948 5.18854609 43.16490173 5.1864624 C47.61907903 5.18014357 52.07318038 5.1676112 56.52732849 5.15032959 C63.5696862 5.12328414 70.61201867 5.11149643 77.65441895 5.10205078 C92.60297967 5.0798504 107.55148015 5.04078062 122.5 5 C138.63783812 4.95597483 154.77565139 4.91480869 170.9135375 4.89316368 C177.91501011 4.88319446 184.91636719 4.86346849 191.91779327 4.83630371 C196.27199666 4.82139122 200.62618412 4.81475454 204.98040962 4.8103714 C207.000051 4.80662547 209.01968937 4.79941976 211.03930473 4.78850555 C213.79576792 4.77407797 216.55197713 4.77199776 219.30847168 4.77294922 C220.50760216 4.76216434 220.50760216 4.76216434 221.73095751 4.75116158 C226.99057742 4.77061298 231.23588144 5.61794072 236 8 C236.8125 10.375 236.8125 10.375 237 13 C233.64447247 17.21378197 229.11763457 18.09888302 224 19 C217.33125974 19.5618368 210.61950398 19.43134374 203.93310547 19.41992188 C201.8984989 19.42726963 199.8638965 19.4358579 197.82929993 19.44558716 C192.32275791 19.46774213 186.81636583 19.47073669 181.30978537 19.46883965 C176.70049445 19.46871962 172.09123493 19.47729723 167.48195279 19.48561716 C156.59797311 19.50483118 145.71407011 19.507743 134.83007812 19.50097656 C123.63404165 19.49434356 112.43833528 19.51717512 101.24236572 19.55429029 C91.60375802 19.58507331 81.96525601 19.59633782 72.32660019 19.59245348 C66.5816243 19.59039416 60.83690514 19.59573796 55.09197617 19.62034607 C49.68270454 19.64275184 44.27396573 19.64062104 38.86469078 19.62041855 C36.89117829 19.61703239 34.91762897 19.62199289 32.94416618 19.63640213 C20.79893275 19.71888701 10.31878509 18.62163472 -1 14 C-1.33 13.67 -1.66 13.34 -2 13 C-2 11 -2 9 -2 7 C-2.33 6.34 -2.66 5.68 -3 5 C-1.5625 2.375 -1.5625 2.375 0 0 Z " fill="#636361" transform="translate(391,188)"/>
<path d="M0 0 C2.38164192 2.84260487 3 4.28405267 3 8 C7.95696581 6.76075855 10.11658466 5.21422242 13 1 C16.59391114 2.33488128 19.75490696 3.96022723 23 6 C22.91621094 6.68707031 22.83242188 7.37414062 22.74609375 8.08203125 C22.64425781 8.98308594 22.54242188 9.88414063 22.4375 10.8125 C22.33308594 11.70582031 22.22867188 12.59914063 22.12109375 13.51953125 C21.84341291 16.13375572 21.84341291 16.13375572 23 19 C25.97 18.67 28.94 18.34 32 18 C35.57142857 26.42857143 35.57142857 26.42857143 34 31 C31.69 31.33 29.38 31.66 27 32 C26.58013054 34.28836222 26.58013054 34.28836222 27 37 C28.6459651 38.68711423 30.31237149 40.3545622 32 42 C32 46.38448044 31.28905989 48.32115375 29 52 C25.96760733 53.17635923 23.43554023 52.98411562 20.25 52.5625 C19.45078125 52.46066406 18.6515625 52.35882813 17.828125 52.25390625 C17.22484375 52.17011719 16.6215625 52.08632812 16 52 C16.33 52.99 16.66 53.98 17 55 C17.03954234 57.33299825 17.04401732 59.66708189 17 62 C12.49646738 63.75747614 8.82360189 64.19294408 4 64 C3.34 61.69 2.68 59.38 2 57 C0.02 56.67 -1.96 56.34 -4 56 C-4.2475 56.78375 -4.495 57.5675 -4.75 58.375 C-6.15389099 61.32317108 -7.00675737 61.9024777 -10 63 C-10.928125 62.360625 -11.85625 61.72125 -12.8125 61.0625 C-15.84219943 58.91377907 -15.84219943 58.91377907 -19 58 C-18.48579339 55.42896697 -17.96897576 52.86659575 -17.375 50.3125 C-16.76572985 47.98135781 -16.76572985 47.98135781 -18 46 C-21.3 46 -24.6 46 -28 46 C-29.13764351 41.73383684 -30 38.43513689 -30 34 C-26.91190305 32.23537317 -25.76687864 32 -22 32 C-21.49758678 29.6704053 -21.49758678 29.6704053 -22 27 C-24.90412546 24.64677204 -24.90412546 24.64677204 -28 23 C-27.58525633 17.71201818 -26.64775386 14.88309282 -23 11 C-22.38511719 11.15597656 -21.77023437 11.31195313 -21.13671875 11.47265625 C-19.92435547 11.76462891 -19.92435547 11.76462891 -18.6875 12.0625 C-17.88699219 12.25972656 -17.08648437 12.45695312 -16.26171875 12.66015625 C-13.84042821 13.19885554 -13.84042821 13.19885554 -11 12 C-11.495 7.05 -11.495 7.05 -12 2 C-7.88954343 0.00705136 -4.55147826 -0.59000644 0 0 Z M-8.1875 23.546875 C-10.63014683 27.3804735 -11.84480598 30.40050077 -11 35 C-9.1973952 38.93765722 -7.32715785 42.16179504 -3.625 44.5 C0.7333668 45.3301651 5.89135528 45.91736754 10 44 C13.33352661 40.82152114 15.20826335 38.5212732 15.9375 33.9375 C16.01246583 29.21465241 15.66234347 26.97314989 12.62109375 23.36328125 C9.41413596 20.17120494 6.96227097 18.59066431 2.375 18.4375 C-2.20464576 18.79516334 -5.29778195 19.78263701 -8.1875 23.546875 Z " fill="#6B6B6B" transform="translate(296,89)"/>
<path d="M0 0 C1.17755859 -0.02126953 1.17755859 -0.02126953 2.37890625 -0.04296875 C4.4375 0.1875 4.4375 0.1875 6.4375 2.1875 C6.5625 4.8125 6.5625 4.8125 6.4375 7.1875 C9.83830577 7.08342083 9.83830577 7.08342083 13.4375 6.1875 C15.42833177 3.7623212 15.42833177 3.7623212 16.4375 1.1875 C21.36312136 1.62211365 24.1668338 3.52746878 27.4375 7.1875 C27.5713672 9.36392165 27.28451134 11.10830709 26.76953125 13.22265625 C26.24244863 15.54287722 26.24244863 15.54287722 27.4375 19.1875 C30.4075 18.8575 33.3775 18.5275 36.4375 18.1875 C38.39939209 21.8553852 39.83051257 25.05998551 40.4375 29.1875 C39.87160156 29.42984375 39.30570312 29.6721875 38.72265625 29.921875 C37.62244141 30.42460937 37.62244141 30.42460937 36.5 30.9375 C35.76910156 31.26234375 35.03820312 31.5871875 34.28515625 31.921875 C32.27643165 33.04908396 32.27643165 33.04908396 31.60546875 35.22265625 C31.21205526 37.2721304 31.21205526 37.2721304 32.6875 38.875 C34.5132629 40.38843639 34.5132629 40.38843639 37.4375 41.1875 C36.76652328 45.38110449 34.5816606 48.59084352 32.4375 52.1875 C31.72722656 52.10371094 31.01695312 52.01992188 30.28515625 51.93359375 C29.36605469 51.83175781 28.44695312 51.72992188 27.5 51.625 C26.58347656 51.52058594 25.66695313 51.41617188 24.72265625 51.30859375 C23.96855469 51.26863281 23.21445312 51.22867188 22.4375 51.1875 C21.17800951 52.22156673 21.17800951 52.22156673 21.33984375 54.47265625 C21.35144531 55.38917969 21.36304688 56.30570312 21.375 57.25 C21.38402344 58.16910156 21.39304687 59.08820313 21.40234375 60.03515625 C21.41394531 60.74542969 21.42554688 61.45570313 21.4375 62.1875 C16.93396738 63.94497614 13.26110189 64.38044408 8.4375 64.1875 C7.7775 61.8775 7.1175 59.5675 6.4375 57.1875 C3.60676564 56.68580585 3.60676564 56.68580585 0.4375 57.1875 C-1.98672186 60.07259913 -1.98672186 60.07259913 -3.5625 63.1875 C-7.67208767 61.73705729 -10.99508745 59.67639248 -14.5625 57.1875 C-14.32853516 56.24777344 -14.32853516 56.24777344 -14.08984375 55.2890625 C-13.79787109 54.06316406 -13.79787109 54.06316406 -13.5 52.8125 C-13.30277344 52.00039063 -13.10554688 51.18828125 -12.90234375 50.3515625 C-12.34140681 48.14588716 -12.34140681 48.14588716 -13.5625 46.1875 C-16.8625 46.1875 -20.1625 46.1875 -23.5625 46.1875 C-24.2225 42.2275 -24.8825 38.2675 -25.5625 34.1875 C-21.5625 32.1875 -21.5625 32.1875 -17.5625 32.1875 C-17.5936941 29.32015479 -17.5936941 29.32015479 -18.5625 26.1875 C-21.50192994 23.78228763 -21.50192994 23.78228763 -24.5625 22.1875 C-23.31544253 17.71887738 -22.19633577 14.18541451 -18.5625 11.1875 C-15.14034428 11.06567569 -11.92440937 11.59594452 -8.5625 12.1875 C-7.9025 12.1875 -7.2425 12.1875 -6.5625 12.1875 C-6.8925 8.5575 -7.2225 4.9275 -7.5625 1.1875 C-4.76092552 0.25364184 -2.90802197 0.02395405 0 0 Z M-3.5625 22.1875 C-6.61306084 26.47735119 -7.11916413 29.99196811 -6.5625 35.1875 C-4.84046857 39.80979488 -2.88916412 42.74199419 1.4375 45.1875 C5.55839351 46.10150315 8.92294032 45.94219527 12.7265625 44.046875 C16.07546022 41.73309112 18.10714667 39.8217784 20 36.1875 C20.65244666 31.71358003 20.0888651 28.58793497 18.1875 24.5 C15.35638337 20.7588816 12.59340534 19.51464302 8.125 18.25 C3.35066908 18.16907914 0.24922269 19.33729294 -3.5625 22.1875 Z " fill="#6B6B6B" transform="translate(381.5625,234.8125)"/>
<path d="M0 0 C0.66 2.64 1.32 5.28 2 8 C4.475 8.495 4.475 8.495 7 9 C7.2475 8.401875 7.495 7.80375 7.75 7.1875 C9 5 9 5 13 2 C17.455 4.475 17.455 4.475 22 7 C21.70703125 9.50651042 21.4140625 12.01302083 21.12109375 14.51953125 C20.84341291 17.13375572 20.84341291 17.13375572 22 20 C25.3 19.67 28.6 19.34 32 19 C32.99 24.445 32.99 24.445 34 30 C30.535 31.98 30.535 31.98 27 34 C26.58219121 36.37305578 26.58219121 36.37305578 27 39 C29.40858714 40.8624438 29.40858714 40.8624438 32 42 C31.52389341 46.99911924 29.96837781 49.97832683 27 54 C26.07767578 53.76603516 26.07767578 53.76603516 25.13671875 53.52734375 C24.32847656 53.33269531 23.52023438 53.13804687 22.6875 52.9375 C21.88699219 52.74027344 21.08648437 52.54304688 20.26171875 52.33984375 C17.84042821 51.80114446 17.84042821 51.80114446 15 53 C15.495 57.455 15.495 57.455 16 62 C14.56445975 62.50559908 13.1264798 63.0042749 11.6875 63.5 C10.88699219 63.7784375 10.08648437 64.056875 9.26171875 64.34375 C7 65 7 65 4 65 C2.54388513 63.01116017 1.45444606 60.91590042 0.28125 58.75 C-0.35296875 57.88375 -0.35296875 57.88375 -1 57 C-1.99 57 -2.98 57 -4 57 C-4.474375 57.804375 -4.94875 58.60875 -5.4375 59.4375 C-7 62 -7 62 -8.80078125 62.8125 C-11.78709817 63.06710606 -13.20694145 62.09581471 -15.75 60.5625 C-16.54921875 60.08941406 -17.3484375 59.61632812 -18.171875 59.12890625 C-18.77515625 58.75636719 -19.3784375 58.38382813 -20 58 C-19.67 57.071875 -19.34 56.14375 -19 55.1875 C-17.85032996 52.07970709 -17.85032996 52.07970709 -18 49 C-19.00836062 47.76732652 -19.00836062 47.76732652 -21.06640625 47.90234375 C-22.30197266 47.91974609 -22.30197266 47.91974609 -23.5625 47.9375 C-24.38878906 47.94652344 -25.21507812 47.95554688 -26.06640625 47.96484375 C-26.70449219 47.97644531 -27.34257812 47.98804688 -28 48 C-28.67057887 46.2097939 -29.3363469 44.41778511 -30 42.625 C-30.37125 41.62726563 -30.7425 40.62953125 -31.125 39.6015625 C-32 37 -32 37 -32 35 C-31.44570312 34.82984375 -30.89140625 34.6596875 -30.3203125 34.484375 C-25.74877023 33.09174014 -25.74877023 33.09174014 -22.5 29.8125 C-22.335 29.214375 -22.17 28.61625 -22 28 C-22.639375 27.731875 -23.27875 27.46375 -23.9375 27.1875 C-26 26 -26 26 -27 23 C-27.66 23 -28.32 23 -29 23 C-28.60246179 21.53633658 -28.18118616 20.0791065 -27.75 18.625 C-27.51796875 17.81289062 -27.2859375 17.00078125 -27.046875 16.1640625 C-26 14 -26 14 -24.11328125 12.65234375 C-20.81775705 11.63505624 -18.22078014 13.00448614 -15 14 C-14.01 13.67 -13.02 13.34 -12 13 C-12.495 8.05 -12.495 8.05 -13 3 C-4.5 0 -4.5 0 0 0 Z M-8 23 C-10.99331887 26.29265076 -12.22834752 28.74172035 -12.375 33.125 C-11.88727495 38.16482554 -11.30087293 39.83254993 -7.5625 43.1875 C-3.33899024 46.17486056 0.93283922 46.83371932 6 46 C8.69894861 44.7098716 10.98452887 43.21993922 13 41 C14.73680535 36.06906986 14.21353702 30.85065418 13.625 25.75 C11.04170499 21.37826998 6.73557478 20.35987789 2 19 C-1.72694549 19 -4.91463538 21.03658615 -8 23 Z " fill="#696969" transform="translate(160,181)"/>
<path d="M0 0 C1.32 2.64 2.64 5.28 4 8 C6.3295947 8.50241322 6.3295947 8.50241322 9 8 C11.35322796 5.09587454 11.35322796 5.09587454 13 2 C16.7910119 3.44950455 20.3874638 5.15172566 24 7 C23.33333333 10.33333333 22.66666667 13.66666667 22 17 C25.8503105 19.56687367 27.58569763 18.83288724 32 18 C32.67057887 19.7902061 33.3363469 21.58221489 34 23.375 C34.37125 24.37273437 34.7425 25.37046875 35.125 26.3984375 C36 29 36 29 36 31 C35.43410156 31.15855469 34.86820313 31.31710938 34.28515625 31.48046875 C32.06779058 32.18581705 30.04806871 32.89153152 28 34 C26.86559222 36.57080135 26.86559222 36.57080135 27 39 C27.99 39.33 28.98 39.66 30 40 C30 40.66 30 41.32 30 42 C30.99 42.33 31.98 42.66 33 43 C31.92289822 47.30840713 30.96052484 50.63576723 28 54 C24.125 53.125 24.125 53.125 23 52 C21.33382885 51.95936168 19.66611905 51.957279 18 52 C17.08307039 54.75078884 16.89113917 56.35948913 16.9375 59.1875 C16.958125 60.445625 16.97875 61.70375 17 63 C12.49646738 64.75747614 8.82360189 65.19294408 4 65 C3.34 62.69 2.68 60.38 2 58 C-2.83256305 58.41421969 -4.82679218 60.46413986 -8 64 C-12.33759883 62.8170185 -15.51506065 61.87650539 -18 58 C-17.94419044 55.63024026 -17.62652768 53.44517723 -17.1640625 51.12109375 C-16.75697711 48.6958857 -16.75697711 48.6958857 -19 46 C-23.455 46.495 -23.455 46.495 -28 47 C-28.99 41.555 -28.99 41.555 -30 36 C-24.25 33 -24.25 33 -22 33 C-22 31.02 -22 29.04 -22 27 C-23.98 26.01 -25.96 25.02 -28 24 C-28.1875 21.6875 -28.1875 21.6875 -28 19 C-26.625 17.5 -26.625 17.5 -25 16 C-23.80972016 13.40084462 -23.80972016 13.40084462 -23 11 C-20.03 11.99 -17.06 12.98 -14 14 C-10.85714552 11.45671716 -10.85714552 11.45671716 -10.70703125 8.95703125 C-10.75923828 7.89548828 -10.75923828 7.89548828 -10.8125 6.8125 C-10.874375 5.554375 -10.93625 4.29625 -11 3 C-9.54293274 2.49632243 -8.08429904 1.99717444 -6.625 1.5 C-5.81289063 1.2215625 -5.00078125 0.943125 -4.1640625 0.65625 C-2 0 -2 0 0 0 Z M-9 25 C-10.7292 29.96399656 -10.65696225 35.03149252 -8.9375 40 C-6.56142153 43.67908924 -5.20042661 44.75542915 -1 46 C4.24461309 46.12949662 8.8626644 45.40721755 13 42 C16.09242067 38.37440335 16.63919863 34.92212402 16.484375 30.28515625 C15.61495588 26.18346122 13.15409374 23.63090283 10 21 C2.88123427 17.00654606 -3.63087199 19.2567934 -9 25 Z " fill="#686868" transform="translate(513,103)"/>
<path d="M0 0 C1.32 3.96 2.64 7.92 4 12 C-2.75 18 -2.75 18 -5 18 C-5.2475 18.721875 -5.495 19.44375 -5.75 20.1875 C-7 23 -7 23 -8.91796875 25.33203125 C-16.91572365 35.58056145 -17.58255893 49.55370235 -19 62 C-25.7109375 62.0625 -25.7109375 62.0625 -28.3125 61.5 C-36.3324104 60.00792365 -44.11390231 61.32083091 -52 63 C-53.34911472 58.10945915 -54.11704968 54.10629224 -54 49 C-51.48146969 48.4648501 -48.96129252 47.94670571 -46.4375 47.4375 C-45.38079102 47.21030273 -45.38079102 47.21030273 -44.30273438 46.97851562 C-39.52811995 46.03239387 -35.77928414 46.05167949 -31 47 C-30.89042969 46.33355469 -30.78085937 45.66710937 -30.66796875 44.98046875 C-27.40009168 25.98427279 -27.40009168 25.98427279 -21 18 C-20.525625 17.175 -20.05125 16.35 -19.5625 15.5 C-15.95325074 9.72520119 -11.87123926 5.52274356 -6 2 C-3 0 -3 0 0 0 Z " fill="#676765" transform="translate(358,174)"/>
<path d="M0 0 C6.06169588 1.83687754 11.78652983 6.51819794 15 12 C15 12.99 15 13.98 15 15 C15.66 15 16.32 15 17 15 C23.50597132 27.79086595 25.05334029 42.14915718 21 56 C18.14164749 63.67015197 12.85618847 70.3574111 7 76 C6.34 75.67 5.68 75.34 5 75 C6.65 73.35 8.3 71.7 10 70 C8.8509288 68.7018576 8.8509288 68.7018576 6 68 C4.8125 65.4375 4.8125 65.4375 4 63 C3.4225 63.28875 2.845 63.5775 2.25 63.875 C0.16666667 64.91666667 -1.91666667 65.95833333 -4 67 C-3 64 -3 64 -0.625 62.125 C5.6823406 57.01905761 7.9361659 49.05660965 8.875 41.25 C9.27515725 34.96753117 8.49067836 28.82146648 6 23 C5.01 22.67 4.02 22.34 3 22 C1.9935725 20.33720673 0.99414593 18.67016516 0 17 C-2.06954847 15.21655822 -2.06954847 15.21655822 -4 14 C-3.67 13.34 -3.34 12.68 -3 12 C-0.525 13.98 -0.525 13.98 2 16 C2.33 15.01 2.66 14.02 3 13 C3.66 13 4.32 13 5 13 C4.82750027 6.76312464 4.82750027 6.76312464 1.9375 1.4375 C1.298125 0.963125 0.65875 0.48875 0 0 Z " fill="#6A6A68" transform="translate(273,200)"/>
<path d="M0 0 C2.60546875 2.078125 2.60546875 2.078125 3.60546875 5.078125 C4.71921875 5.51125 4.71921875 5.51125 5.85546875 5.953125 C9.26485792 7.34787512 11.13239875 9.39307757 13.60546875 12.078125 C12.60546875 14.078125 12.60546875 14.078125 11.10546875 15.890625 C9.44098512 18.31799697 9.00675424 20.18886949 8.60546875 23.078125 C6.29546875 21.758125 3.98546875 20.438125 1.60546875 19.078125 C1.60546875 18.418125 1.60546875 17.758125 1.60546875 17.078125 C1.04859375 16.81 0.49171875 16.541875 -0.08203125 16.265625 C-2.39453125 15.078125 -2.39453125 15.078125 -4.51953125 13.640625 C-12.47016088 9.31963063 -20.89855561 7.50597464 -29.671875 10.015625 C-31.91878764 10.74353371 -34.15572234 11.50333485 -36.37890625 12.30078125 C-39.53742198 13.11495823 -41.30160019 12.98882137 -44.39453125 12.078125 C-44.72453125 11.088125 -45.05453125 10.098125 -45.39453125 9.078125 C-44.07453125 8.748125 -42.75453125 8.418125 -41.39453125 8.078125 C-41.39453125 7.088125 -41.39453125 6.098125 -41.39453125 5.078125 C-42.05453125 5.078125 -42.71453125 5.078125 -43.39453125 5.078125 C-43.72453125 4.088125 -44.05453125 3.098125 -44.39453125 2.078125 C-43.73453125 2.078125 -43.07453125 2.078125 -42.39453125 2.078125 C-42.39453125 1.418125 -42.39453125 0.758125 -42.39453125 0.078125 C-39.42453125 -0.581875 -36.45453125 -1.241875 -33.39453125 -1.921875 C-33.39453125 -2.581875 -33.39453125 -3.241875 -33.39453125 -3.921875 C-22.69737965 -6.11616251 -9.6545494 -5.46609702 0 0 Z " fill="#646462" transform="translate(598.39453125,65.921875)"/>
<path d="M0 0 C0 0.66 0 1.32 0 2 C0.66 2 1.32 2 2 2 C4.9296875 7.078125 4.9296875 7.078125 6 9 C6.51046875 9.87205078 6.51046875 9.87205078 7.03125 10.76171875 C8.40090558 13.92628587 9.00351852 17.18970534 9.625 20.5625 C9.7597876 21.26979248 9.8945752 21.97708496 10.03344727 22.70581055 C10.94924877 27.83488043 11.16951604 32.65449169 10.71484375 37.86328125 C10.77819624 40.18953581 10.77819624 40.18953581 12.953125 41.60546875 C13.62859375 42.06566406 14.3040625 42.52585938 15 43 C15.97717908 46.60804584 16.18951523 48.4314543 15 52 C14.34 52.66 13.68 53.32 13 54 C12.67 54.66 12.34 55.32 12 56 C11.14728516 55.41992188 11.14728516 55.41992188 10.27734375 54.828125 C9.50519531 54.30734375 8.73304688 53.7865625 7.9375 53.25 C7.18339844 52.73953125 6.42929687 52.2290625 5.65234375 51.703125 C2.49704035 49.67703916 -0.73260864 47.83965731 -4 46 C-3.94779297 44.11667969 -3.94779297 44.11667969 -3.89453125 42.1953125 C-3.71976497 33.17863344 -3.86101413 25.53743499 -7 17 C-9.92879876 6.32508866 -9.92879876 6.32508866 -7 1 C-4.10758195 -1.14598758 -3.50082948 -1.16694316 0 0 Z " fill="#616160" transform="translate(263,161)"/>
<path d="M0 0 C16.83 0 33.66 0 51 0 C51.495 0.99 51.495 0.99 52 2 C51.50628906 2.61488281 51.01257813 3.22976562 50.50390625 3.86328125 C49.54291016 5.07564453 49.54291016 5.07564453 48.5625 6.3125 C47.60537109 7.51326172 47.60537109 7.51326172 46.62890625 8.73828125 C44.83888645 10.98697277 44.83888645 10.98697277 44 14 C29.81 14 15.62 14 1 14 C0.67 9.38 0.34 4.76 0 0 Z " fill="#525250" transform="translate(282,178)"/>
<path d="M0 0 C4.00180712 1.77858094 6.76459712 3.15013949 9 7 C9 7.66 9 8.32 9 9 C9.99 9.33 10.98 9.66 12 10 C13.1875 13.0625 13.1875 13.0625 14 16 C19.94 15.505 19.94 15.505 26 15 C22.81237635 17.12508244 20.73487777 17.5020163 17 18 C16.67 19.65 16.34 21.3 16 23 C16.99 22.67 17.98 22.34 19 22 C18.6875 23.875 18.6875 23.875 18 26 C17.01 26.66 16.02 27.32 15 28 C15.66 29.32 16.32 30.64 17 32 C13.93882432 34.62386487 13.26826873 35 9 35 C8.25556641 33.515 8.25556641 33.515 7.49609375 32 C3.70461271 24.58314984 0.02269664 17.89095015 -6 12 C-3.98618701 8.97928051 -3.21407182 8.30571668 0 7 C0.66 7 1.32 7 2 7 C2 5.68 2 4.36 2 3 C1.34 2.67 0.68 2.34 0 2 C0 1.34 0 0.68 0 0 Z " fill="#6D6D6B" transform="translate(539,48)"/>
<path d="M0 0 C1.32 3.96 2.64 7.92 4 12 C1.69 13.98 -0.62 15.96 -3 18 C-5 17 -5 17 -6 15 C-6.99 15.99 -7.98 16.98 -9 18 C-9.33 17.01 -9.66 16.02 -10 15 C-9.01 14.67 -8.02 14.34 -7 14 C-7.495 13.54625 -7.99 13.0925 -8.5 12.625 C-10 11 -10 11 -10 9 C-11.29243468 10.1241176 -12.58392075 11.24932592 -13.875 12.375 C-14.95394531 13.31472656 -14.95394531 13.31472656 -16.0546875 14.2734375 C-17.4076598 15.47426834 -18.7208345 16.7208345 -20 18 C-19.02762262 12.34253161 -14.70103474 8.13338079 -10.30859375 4.6640625 C-8.9036243 3.7274162 -7.4537288 2.85902156 -6 2 C-3 0 -3 0 0 0 Z " fill="#878786" transform="translate(358,174)"/>
<path d="M0 0 C16.83 0 33.66 0 51 0 C51.495 0.99 51.495 0.99 52 2 C50.35 3.65 48.7 5.3 47 7 C47.66 5.35 48.32 3.7 49 2 C33.49 2 17.98 2 2 2 C2 5.63 2 9.26 2 13 C15.86 12.67 29.72 12.34 44 12 C44 12.66 44 13.32 44 14 C29.81 14 15.62 14 1 14 C0.67 9.38 0.34 4.76 0 0 Z " fill="#BFBFBE" transform="translate(282,178)"/>
<path d="M0 0 C2.875 1.375 2.875 1.375 4.875 4.375 C5.3125 6.8125 5.3125 6.8125 4.875 9.375 C2.75 11.75 2.75 11.75 -0.125 13.375 C-3.3125 13.375 -3.3125 13.375 -6.125 12.375 C-8.21168665 9.92541132 -8.13129296 8.52917762 -8 5.3125 C-7.125 2.375 -7.125 2.375 -5.4375 0.375 C-3.125 -0.625 -3.125 -0.625 0 0 Z " fill="#8D8D8D" transform="translate(300.125,114.625)"/>
<path d="M0 0 C2 1.0625 2 1.0625 3 3 C2.9375 6.5625 2.9375 6.5625 2 10 C0.3125 11.5 0.3125 11.5 -2 12 C-5.25 11.625 -5.25 11.625 -8 11 C-10.06956522 5.64347826 -10.06956522 5.64347826 -9.75 2.6875 C-7.9977115 -1.25514912 -3.69337523 -0.25918423 0 0 Z " fill="#686868" transform="translate(392,261)"/>
<path d="M0 0 C0.70125 -0.01675781 1.4025 -0.03351563 2.125 -0.05078125 C2.74375 0.06910156 3.3625 0.18898437 4 0.3125 C6.16551116 3.56076674 6.55156953 4.54344157 6 8.3125 C4.375 10.6875 4.375 10.6875 2 12.3125 C-1.20434008 12.2471053 -3.20595939 11.79917005 -5.9375 10.125 C-7 8.3125 -7 8.3125 -6.8125 5.25 C-5.62124498 0.94315492 -4.28378417 0.02362381 0 0 Z " fill="#828282" transform="translate(162,207.6875)"/>
<path d="M0 0 C2 2 2 2 2.25 5 C2 8 2 8 0 10 C-2.1640625 10.1953125 -2.1640625 10.1953125 -4.625 10.125 C-5.44226563 10.10695312 -6.25953125 10.08890625 -7.1015625 10.0703125 C-7.72804688 10.04710937 -8.35453125 10.02390625 -9 10 C-11.20100503 4.61976549 -11.20100503 4.61976549 -10.25 1.6875 C-7.4242481 -2.12726507 -4.23744942 -0.83235614 0 0 Z " fill="#818181" transform="translate(520,131)"/>
<path d="M0 0 C6.28918866 1.90581475 11.4344809 6.54685314 15 12 C14.67 12.66 14.34 13.32 14 14 C13.01 13.34 12.02 12.68 11 12 C10.67 12.99 10.34 13.98 10 15 C9.01 15 8.02 15 7 15 C6.17361624 17.89234315 6 19.88742431 6 23 C2.19616653 21.73205551 1.99730186 20.35546712 0 17 C-2.06954847 15.21655822 -2.06954847 15.21655822 -4 14 C-3.67 13.34 -3.34 12.68 -3 12 C-0.525 13.98 -0.525 13.98 2 16 C2.33 15.01 2.66 14.02 3 13 C3.66 13 4.32 13 5 13 C4.82750027 6.76312464 4.82750027 6.76312464 1.9375 1.4375 C1.298125 0.963125 0.65875 0.48875 0 0 Z " fill="#8C8C8B" transform="translate(273,200)"/>
<path d="M0 0 C1.56902561 3.13805122 0.56136446 6.26618588 0.0625 9.625 C-0.03740234 10.33140625 -0.13730469 11.0378125 -0.24023438 11.765625 C-0.48791959 13.51121607 -0.74323871 15.25572084 -1 17 C-1.95519531 16.96519531 -2.91039063 16.93039063 -3.89453125 16.89453125 C-12.13995577 16.72189524 -19.11734529 17.24680667 -27 20 C-25.56108293 17.12216586 -23.37257941 16.703336 -20.4609375 15.66796875 C-14.80252388 14.13211362 -8.67490498 13.24979566 -3 15 C-2.86722656 14.00097656 -2.73445313 13.00195312 -2.59765625 11.97265625 C-2.42105469 10.68230469 -2.24445313 9.39195312 -2.0625 8.0625 C-1.80146484 6.13083984 -1.80146484 6.13083984 -1.53515625 4.16015625 C-1 1 -1 1 0 0 Z " fill="#D4D4D4" transform="translate(104,152)"/>
<path d="M0 0 C0.7425 0.350625 1.485 0.70125 2.25 1.0625 C5.25482851 2.08687336 6.09198816 1.99962907 9 1 C10.66519519 0.65939189 12.33157466 0.32441604 14 0 C12.16327855 2.14284169 10.71062131 3.1383985 8.125 4.375 C4.72983152 6.14048761 2.57533 8.197435 0 11 C-0.66 10.67 -1.32 10.34 -2 10 C-2 6.09567131 -1.31626692 3.61973402 0 0 Z " fill="#939392" transform="translate(127,130)"/>
<path d="M0 0 C0.33 0 0.66 0 1 0 C0.67 7.92 0.34 15.84 0 24 C-4.29 23.67 -8.58 23.34 -13 23 C-13 22.67 -13 22.34 -13 22 C-9.37 22 -5.74 22 -2 22 C-1.93941406 20.83082031 -1.87882812 19.66164062 -1.81640625 18.45703125 C-1.73195966 16.90884386 -1.64731375 15.36066732 -1.5625 13.8125 C-1.50352539 12.65911133 -1.50352539 12.65911133 -1.44335938 11.48242188 C-1.22492966 7.56748925 -0.91307892 3.82879312 0 0 Z " fill="#C4C4C3" transform="translate(114,159)"/>
<path d="M0 0 C4.95 0 9.9 0 15 0 C15.66 1.32 16.32 2.64 17 4 C16.34 3.67 15.68 3.34 15 3 C12.95944995 2.92934383 10.91665743 2.91578024 8.875 2.9375 C7.77929688 2.94652344 6.68359375 2.95554688 5.5546875 2.96484375 C4.29011719 2.98224609 4.29011719 2.98224609 3 3 C3.66 4.65 4.32 6.3 5 8 C2.5 5.6875 2.5 5.6875 0 3 C0 2.01 0 1.02 0 0 Z " fill="#DADADA" transform="translate(476,216)"/>
<path d="M0 0 C0.33 0.66 0.66 1.32 1 2 C-0.125 4.5625 -0.125 4.5625 -2 7 C-4.125 7.8125 -4.125 7.8125 -7 8 C-7.69738281 8.05027344 -8.39476562 8.10054687 -9.11328125 8.15234375 C-14.217631 8.36681223 -17.53694936 7.7464927 -22 5 C-21.67 4.34 -21.34 3.68 -21 3 C-20.195625 3.515625 -19.39125 4.03125 -18.5625 4.5625 C-13.48034723 6.61319322 -8.92439148 6.17507367 -3.8515625 4.13671875 C-1.68874514 2.98689186 -1.68874514 2.98689186 0 0 Z " fill="#CBCBCB" transform="translate(527,142)"/>
<path d="M0 0 C0.66 0.33 1.32 0.66 2 1 C1.33333333 2.33333333 0.66666667 3.66666667 0 5 C-0.268125 5.721875 -0.53625 6.44375 -0.8125 7.1875 C-2 9 -2 9 -4.375 9.5625 C-5.24125 9.706875 -6.1075 9.85125 -7 10 C-9.26454073 11.46771271 -9.26454073 11.46771271 -11 13 C-9.4705003 9.55862568 -7.54630448 6.7777867 -5 4 C-4.01 4 -3.02 4 -2 4 C-1.34 2.68 -0.68 1.36 0 0 Z " fill="#A4A4A3" transform="translate(477,47)"/>
<path d="M0 0 C1.32 0.66 2.64 1.32 4 2 C3 4 3 4 1.5 5.8125 C-0.16448363 8.23987197 -0.59871451 10.11074449 -1 13 C-1.66 12.67 -2.32 12.34 -3 12 C-3.43200679 7.24792529 -1.98489083 4.21789302 0 0 Z " fill="#505050" transform="translate(608,76)"/>
<path d="M0 0 C2 1.0625 2 1.0625 3 3 C2.6875 6.6875 2.6875 6.6875 2 10 C1.34 9.67 0.68 9.34 0 9 C0 7.02 0 5.04 0 3 C-3.37817425 2.15545644 -5.67465243 1.89155081 -9 3 C-9 2.34 -9 1.68 -9 1 C-5.95016004 -0.52491998 -3.3576631 -0.23562548 0 0 Z " fill="#D5D5D5" transform="translate(392,261)"/>
<path d="M0 0 C0.33 0 0.66 0 1 0 C0.95359375 1.18078125 0.9071875 2.3615625 0.859375 3.578125 C0.82185051 5.13539134 0.78545107 6.69268508 0.75 8.25 C0.69972656 9.41595703 0.69972656 9.41595703 0.6484375 10.60546875 C0.53479091 15.45717688 0.53479091 15.45717688 3.015625 19.546875 C3.99789063 20.26617187 3.99789063 20.26617187 5 21 C3.02 20.34 1.04 19.68 -1 19 C-2.19127531 14.643098 -1.76679687 11.12042737 -1.0625 6.6875 C-0.86785156 5.43324219 -0.67320312 4.17898437 -0.47265625 2.88671875 C-0.31667969 1.93410156 -0.16070312 0.98148438 0 0 Z " fill="#D6D6D6" transform="translate(487,242)"/>
<path d="M0 0 C0.33 0 0.66 0 1 0 C1.06058594 0.88042969 1.12117188 1.76085937 1.18359375 2.66796875 C1.26738281 3.82941406 1.35117187 4.99085938 1.4375 6.1875 C1.55931641 7.91033203 1.55931641 7.91033203 1.68359375 9.66796875 C1.92870623 12.9296147 1.92870623 12.9296147 2.59765625 15.80078125 C3 18 3 18 2 20 C1.01 19.67 0.02 19.34 -1 19 C-0.67 12.73 -0.34 6.46 0 0 Z " fill="#A7A7A7" transform="translate(260,188)"/>
<path d="M0 0 C0.598125 0.165 1.19625 0.33 1.8125 0.5 C4.11344336 1.1114124 4.11344336 1.1114124 7 1 C6.34 1.66 5.68 2.32 5 3 C4.01 3 3.02 3 2 3 C1.7525 3.763125 1.505 4.52625 1.25 5.3125 C-0.10995558 8.2364045 -1.31585826 9.30004356 -4 11 C-3.690625 10.401875 -3.38125 9.80375 -3.0625 9.1875 C-1.61867621 6.2149216 -0.77208986 3.19865799 0 0 Z " fill="#A4A4A3" transform="translate(262,42)"/>
<path d="M0 0 C2.475 0.99 2.475 0.99 5 2 C3 4 3 4 0.5 4.4375 C-2.34936529 4.7765556 -2.34936529 4.7765556 -4 8 C-4.99 7.67 -5.98 7.34 -7 7 C-6.34 7 -5.68 7 -5 7 C-4.731875 6.401875 -4.46375 5.80375 -4.1875 5.1875 C-3.01506533 3.02775192 -1.80630718 1.64209744 0 0 Z " fill="#B5B5B5" transform="translate(172,183)"/>
<path d="M0 0 C2.01822917 0.29296875 4.03645833 0.5859375 6.0546875 0.87890625 C8.08140667 1.1684297 8.08140667 1.1684297 10 0 C12 3 12 3 12 6 C7.76570244 4.68938409 3.92592596 3.05643741 0 1 C0 0.67 0 0.34 0 0 Z " fill="#AAAAA8" transform="translate(368,60)"/>
<path d="M0 0 C4.43458973 1.3937282 6.87378374 3.60582235 10 7 C8.68 7.99 7.36 8.98 6 10 C5.566875 8.906875 5.13375 7.81375 4.6875 6.6875 C3.50504359 3.90591207 2.39199957 1.93638061 0 0 Z " fill="#A6A6A6" transform="translate(273,200)"/>
<path d="M0 0 C0.886875 0.309375 1.77375 0.61875 2.6875 0.9375 C5.46709155 1.8290671 8.13136375 2.49377007 11 3 C11 3.66 11 4.32 11 5 C9.375 5.75 9.375 5.75 7 6 C1.4109589 2.82191781 1.4109589 2.82191781 0 0 Z " fill="#AEAEAE" transform="translate(496,161)"/>
<path d="M0 0 C0.556875 0.226875 1.11375 0.45375 1.6875 0.6875 C-2.19559282 4.33525386 -5.02451818 5.27275633 -10.3125 5.6875 C-7.50687824 2.58654963 -4.3951302 -0.59393651 0 0 Z " fill="#B4B4B3" transform="translate(436.3125,91.3125)"/>
<path d="M0 0 C0.66 0.33 1.32 0.66 2 1 C1.814375 2.2375 1.62875 3.475 1.4375 4.75 C1.05288777 7.76279577 0.9125406 10.10010827 2 13 C0.68 12.01 -0.64 11.02 -2 10 C-1.34 6.7 -0.68 3.4 0 0 Z " fill="#E4E4E2" transform="translate(407,241)"/>
<path d="M0 0 C0.33 0 0.66 0 1 0 C1.25 5.625 1.25 5.625 -1 9 C-3.97 8.505 -3.97 8.505 -7 8 C-6.34 7.34 -5.68 6.68 -5 6 C-3.68 6 -2.36 6 -1 6 C-1.020625 5.195625 -1.04125 4.39125 -1.0625 3.5625 C-1 1 -1 1 0 0 Z " fill="#B4B4B4" transform="translate(275,115)"/>
<path d="M0 0 C0.66 0 1.32 0 2 0 C1.34 2.64 0.68 5.28 0 8 C-1.65 7.01 -3.3 6.02 -5 5 C-4.67 4.34 -4.34 3.68 -4 3 C-1.9375 2.375 -1.9375 2.375 0 2 C0 1.34 0 0.68 0 0 Z " fill="#838383" transform="translate(605,80)"/>
<path d="M0 0 C0.66 0.33 1.32 0.66 2 1 C-0.31883213 5.50884026 -3.06451569 7.93906776 -7 11 C-6.34 9.35 -5.68 7.7 -5 6 C-4.34 6 -3.68 6 -3 6 C-3 5.01 -3 4.02 -3 3 C-1.5 1.3125 -1.5 1.3125 0 0 Z " fill="#BEBEBC" transform="translate(26,198)"/>
<path d="M0 0 C2.475 0.99 2.475 0.99 5 2 C4.25 8.625 4.25 8.625 2 12 C1.67 9.69 1.34 7.38 1 5 C1.66 5 2.32 5 3 5 C3.22609337 2.87635519 3.22609337 2.87635519 1.5 1.375 C1.005 0.92125 0.51 0.4675 0 0 Z " fill="#C5C5C5" transform="translate(177,186)"/>
<path d="M0 0 C1.485 0.99 1.485 0.99 3 2 C3.4375 4.9375 3.4375 4.9375 3 8 C1.68 8.99 0.36 9.98 -1 11 C-0.67 7.37 -0.34 3.74 0 0 Z " fill="#A9A9A9" transform="translate(496,150)"/>
<path d="M0 0 C1.485 0.99 1.485 0.99 3 2 C3.99 2 4.98 2 6 2 C6.66 2.33 7.32 2.66 8 3 C3.25 7 3.25 7 1 7 C0.67 4.69 0.34 2.38 0 0 Z " fill="#949492" transform="translate(210,89)"/>
<path d="M0 0 C0.66 0.99 1.32 1.98 2 3 C1.01 3.99 0.02 4.98 -1 6 C-2.32 5.34 -3.64 4.68 -5 4 C-3 1 -3 1 0 0 Z " fill="#50504E" transform="translate(38,192)"/>
<path d="M0 0 C0.66 0.33 1.32 0.66 2 1 C1.34 3.31 0.68 5.62 0 8 C-0.99 8 -1.98 8 -3 8 C-3.33 8.99 -3.66 9.98 -4 11 C-3.39301257 6.87248551 -1.96189209 3.6678852 0 0 Z " fill="#B7B7B6" transform="translate(109,140)"/>
<path d="M0 0 C0.33 0.99 0.66 1.98 1 3 C-0.1875 4.5625 -0.1875 4.5625 -2 6 C-4.6875 5.6875 -4.6875 5.6875 -7 5 C-5.6875 3.5 -5.6875 3.5 -4 2 C-3.01 2 -2.02 2 -1 2 C-0.67 1.34 -0.34 0.68 0 0 Z " fill="#A7A7A7" transform="translate(154,238)"/>
<path d="M0 0 C2 3 2 3 1.625 5.6875 C1.41875 6.450625 1.2125 7.21375 1 8 C-1.31 8.33 -3.62 8.66 -6 9 C-4 7 -4 7 -1 6 C-0.67 4.02 -0.34 2.04 0 0 Z " fill="#E1E1E1" transform="translate(329,112)"/>
<path d="M0 0 C0.33 0.66 0.66 1.32 1 2 C0.0625 4.125 0.0625 4.125 -1 6 C-1.66 6 -2.32 6 -3 6 C-3.33 6.66 -3.66 7.32 -4 8 C-4.33 6.02 -4.66 4.04 -5 2 C-4.360625 1.855625 -3.72125 1.71125 -3.0625 1.5625 C-1.02454854 1.18992819 -1.02454854 1.18992819 0 0 Z " fill="#A3A3A1" transform="translate(210,96)"/>
<path d="M0 0 C1.32 0 2.64 0 4 0 C4.99 2.64 5.98 5.28 7 8 C3.28631113 6.76210371 2.22645819 5.14775123 0 2 C0 1.34 0 0.68 0 0 Z " fill="#B9B9B8" transform="translate(375,187)"/>
<path d="M0 0 C0.66 0 1.32 0 2 0 C1.67 2.31 1.34 4.62 1 7 C0.01 6.67 -0.98 6.34 -2 6 C-1.125 1.125 -1.125 1.125 0 0 Z " fill="#50504E" transform="translate(388,65)"/>
<path d="M0 0 C0.33 0.99 0.66 1.98 1 3 C0.01 4.485 0.01 4.485 -1 6 C-1.99 6 -2.98 6 -4 6 C-3.6875 4.125 -3.6875 4.125 -3 2 C-2.01 1.34 -1.02 0.68 0 0 Z " fill="#575755" transform="translate(356,175)"/>
<path d="M0 0 C-5.445 1.485 -5.445 1.485 -11 3 C-11.33 2.01 -11.66 1.02 -12 0 C-4.5 -1.125 -4.5 -1.125 0 0 Z " fill="#D6D6D5" transform="translate(565,64)"/>
<path d="M0 0 C2.475 0.99 2.475 0.99 5 2 C5 3.98 5 5.96 5 8 C1.75267068 6.37633534 1.29844864 3.24612161 0 0 Z " fill="#9E9E9E" transform="translate(322,51)"/>
<path d="M0 0 C1.98 0.495 1.98 0.495 4 1 C3.67 2.32 3.34 3.64 3 5 C1.68 4.67 0.36 4.34 -1 4 C-0.67 2.68 -0.34 1.36 0 0 Z " fill="#4F4F4F" transform="translate(410,281)"/>
<path d="M0 0 C2.00720923 0.28674418 4.0085944 0.61866701 6 1 C6 1.66 6 2.32 6 3 C4.02 3.66 2.04 4.32 0 5 C0.33 4.01 0.66 3.02 1 2 C0.34 1.67 -0.32 1.34 -1 1 C-0.67 0.67 -0.34 0.34 0 0 Z " fill="#979797" transform="translate(272,275)"/>
<path d="" fill="#FFFFFF" transform="translate(0,0)"/>
<path d="" fill="#FFFFFF" transform="translate(0,0)"/>
<path d="" fill="#FFFFFF" transform="translate(0,0)"/>
<path d="" fill="#FFFFFF" transform="translate(0,0)"/>
<path d="" fill="#FFFFFF" transform="translate(0,0)"/>
<path d="" fill="#FFFFFF" transform="translate(0,0)"/>
<path d="" fill="#FFFFFF" transform="translate(0,0)"/>
<path d="" fill="#FFFFFF" transform="translate(0,0)"/>
<path d="" fill="#FFFFFF" transform="translate(0,0)"/>
<path d="" fill="#FFFFFF" transform="translate(0,0)"/>
<path d="" fill="#FFFFFF" transform="translate(0,0)"/>
<path d="" fill="#FFFFFF" transform="translate(0,0)"/>
<path d="" fill="#FFFFFF" transform="translate(0,0)"/>
<path d="" fill="#FFFFFF" transform="translate(0,0)"/>
<path d="" fill="#FFFFFF" transform="translate(0,0)"/>
<path d="" fill="#FFFFFF" transform="translate(0,0)"/>
<path d="" fill="#FFFFFF" transform="translate(0,0)"/>
<path d="" fill="#FFFFFF" transform="translate(0,0)"/>
<path d="" fill="#FFFFFF" transform="translate(0,0)"/>
<path d="" fill="#FFFFFF" transform="translate(0,0)"/>
<path d="" fill="#FFFFFF" transform="translate(0,0)"/>
<path d="" fill="#FFFFFF" transform="translate(0,0)"/>
<path d="" fill="#FFFFFF" transform="translate(0,0)"/>
<path d="" fill="#FFFFFF" transform="translate(0,0)"/>
<path d="" fill="#FFFFFF" transform="translate(0,0)"/>
<path d="" fill="#FFFFFF" transform="translate(0,0)"/>
<path d="" fill="#FFFFFF" transform="translate(0,0)"/>
<path d="" fill="#FFFFFF" transform="translate(0,0)"/>
<path d="" fill="#FFFFFF" transform="translate(0,0)"/>
<path d="" fill="#FFFFFF" transform="translate(0,0)"/>
<path d="" fill="#FFFFFF" transform="translate(0,0)"/>
<path d="" fill="#FFFFFF" transform="translate(0,0)"/>
<path d="" fill="#FFFFFF" transform="translate(0,0)"/>
<path d="" fill="#FFFFFF" transform="translate(0,0)"/>
<path d="" fill="#FFFFFF" transform="translate(0,0)"/>
<path d="" fill="#FFFFFF" transform="translate(0,0)"/>
<path d="" fill="#FFFFFF" transform="translate(0,0)"/>
<path d="" fill="#FFFFFF" transform="translate(0,0)"/>
<path d="" fill="#FFFFFF" transform="translate(0,0)"/>
<path d="" fill="#FFFFFF" transform="translate(0,0)"/>
<path d="" fill="#FFFFFF" transform="translate(0,0)"/>
<path d="" fill="#FFFFFF" transform="translate(0,0)"/>
<path d="" fill="#FFFFFF" transform="translate(0,0)"/>
<path d="" fill="#FFFFFF" transform="translate(0,0)"/>
<path d="" fill="#FFFFFF" transform="translate(0,0)"/>
<path d="" fill="#FFFFFF" transform="translate(0,0)"/>
<path d="" fill="#FFFFFF" transform="translate(0,0)"/>
<path d="" fill="#FFFFFF" transform="translate(0,0)"/>
<path d="" fill="#FFFFFF" transform="translate(0,0)"/>
<path d="" fill="#FFFFFF" transform="translate(0,0)"/>
<path d="" fill="#FFFFFF" transform="translate(0,0)"/>
<path d="" fill="#FFFFFF" transform="translate(0,0)"/>
<path d="" fill="#FFFFFF" transform="translate(0,0)"/>
<path d="" fill="#FFFFFF" transform="translate(0,0)"/>
<path d="" fill="#FFFFFF" transform="translate(0,0)"/>
<path d="" fill="#FFFFFF" transform="translate(0,0)"/>
<path d="" fill="#FFFFFF" transform="translate(0,0)"/>
<path d="" fill="#FFFFFF" transform="translate(0,0)"/>
<path d="" fill="#FFFFFF" transform="translate(0,0)"/>
<path d="" fill="#FFFFFF" transform="translate(0,0)"/>
<path d="" fill="#FFFFFF" transform="translate(0,0)"/>
<path d="" fill="#FFFFFF" transform="translate(0,0)"/>
<path d="" fill="#FFFFFF" transform="translate(0,0)"/>
</svg>
